<?xml version="1.0" standalone="no"?>
<!DOCTYPE svg PUBLIC "-//W3C//DTD SVG 20010904//EN"
 "http://www.w3.org/TR/2001/REC-SVG-20010904/DTD/svg10.dtd">
<svg version="1.0" xmlns="http://www.w3.org/2000/svg"
 width="300.000000pt" height="159.000000pt" viewBox="0 0 300.000000 159.000000"
 preserveAspectRatio="xMidYMid meet">
<metadata>
Created by potrace 1.10, written by Peter Selinger 2001-2011
</metadata>
<g transform="translate(0.000000,159.000000) scale(0.050000,-0.050000)"
fill="#371a94" stroke="none">
<path d="M3830 2837 c-519 -26 -481 40 -478 -827 2 -754 14 -843 118 -877 73
-24 1302 -30 1435 -7 146 25 156 52 174 458 14 343 -4 1065 -30 1151 -23 76
-118 90 -749 111 -93 4 -305 -1 -470 -9z m1030 -867 l0 -670 -650 0 -650 0 0
670 0 670 650 0 650 0 0 -670z"/>
<path d="M4150 2460 c-37 -39 -77 -60 -113 -60 -87 0 -127 -79 -127 -252 0
-161 37 -228 125 -228 29 0 70 -24 101 -60 29 -33 65 -60 80 -60 15 0 49 27
77 60 35 42 69 60 110 60 77 0 117 90 117 265 0 138 -21 175 -96 175 -31 0
-75 29 -122 80 -87 96 -80 95 -152 20z m145 -258 c56 -84 28 -148 -70 -158
-109 -11 -155 93 -83 184 53 68 94 61 153 -26z"/>
<path d="M4550 1873 c-91 -43 -223 -168 -313 -296 l-33 -47 -41 93 c-60 140
-301 305 -394 269 -80 -30 30 -251 173 -346 226 -149 595 -48 720 199 78 152
38 198 -112 128z"/>
<path d="M640 2578 l0 -222 370 7 370 7 0 -932 0 -931 205 -1 205 -1 -7 928
-7 927 367 0 367 0 -6 220 -6 220 -929 0 -929 0 0 -222z m1060 -54 c0 -9 -27
-42 -60 -74 l-60 -57 -50 47 c-80 75 -65 100 60 100 61 0 110 -7 110 -16z"/>
<path d="M2865 2218 c-119 -77 -118 -163 15 -1168 76 -573 42 -556 890 -458
712 81 930 135 930 230 0 97 -137 94 -1166 -24 -207 -24 -379 -39 -384 -35
-20 20 -71 498 -93 869 l-24 402 46 74 c81 132 -63 206 -214 110z"/>
</g>
</svg>
