 <svg  version="1.0" xmlns="http://www.w3.org/2000/svg"  width="300.000000pt" height="159.000000pt" viewBox="0 0 300.000000 159.000000"  preserveAspectRatio="xMidYMid meet">  <g transform="translate(0.000000,159.000000) scale(0.050000,-0.050000)" fill="#371a94" stroke="none"> <path d="M5990 1630 c0 -858 2 -1206 5 -774 3 433 3 1135 0 1560 -3 426 -5 72 -5 -786z"/> <path d="M3520 2821 c-386 -41 -362 1 -375 -641 -17 -839 19 -1045 190 -1074 277 -47 1436 -12 1493 45 83 82 87 1487 6 1597 -50 67 -917 116 -1314 73z m1144 -866 l-5 -665 -645 4 -644 5 -5 660 -6 661 656 0 655 0 -6 -665z"/> <path d="M3950 2440 c-37 -39 -77 -60 -113 -60 -179 0 -181 -459 -2 -476 45 -5 79 -25 109 -65 55 -74 86 -74 149 1 35 42 69 60 110 60 79 0 121 98 119 278 -1 142 -26 182 -115 182 -28 0 -67 27 -101 70 -68 85 -83 86 -156 10z m152 -259 c65 -122 -64 -219 -161 -122 -52 52 -52 82 1 149 56 71 113 61 160 -27z"/> <path d="M4382 1878 c-96 -38 -244 -164 -294 -250 -60 -103 -100 -112 -118 -29 -39 176 -430 371 -430 214 0 -256 438 -438 713 -297 231 119 350 451 129 362z"/> <path d="M450 2557 l0 -223 365 12 365 11 0 -928 0 -929 212 0 211 0 -14 920 -15 920 370 0 370 0 0 220 0 220 -932 0 -932 0 0 -223z m1058 -34 c23 -37 -105 -146 -147 -124 -49 26 -103 102 -89 124 13 22 222 22 236 0z"/> <path d="M2706 2228 c-162 -80 -163 -98 -56 -944 104 -826 69 -777 534 -744 792 56 1316 160 1316 260 0 101 -126 102 -932 10 -338 -39 -616 -68 -619 -65 -58 59 -122 1261 -71 1332 94 132 -15 228 -172 151z"/> </g> </svg> 