<svg width="941.06005859375px" height="235.5599609375px" xmlns="http://www.w3.org/2000/svg" viewBox="-220.530029296875 -42.77998046875 941.06005859375 235.5599609375" style="background: rgba(194, 192, 191, 0.353);" preserveAspectRatio="xMidYMid"><defs><linearGradient id="editing-shiny-gradient" x1="0.027240712200341577" x2="0.9727592877996585" y1="0.33721592277142165" y2="0.6627840772285783" gradientUnits="objectBoundingBox"><stop offset="0.0" stop-color="#0e0000"></stop><stop offset="0.5" stop-color="#080014"></stop><stop offset="1.0" stop-color="#562d94"></stop></linearGradient><linearGradient id="editing-shiny-gradient2" x1="0" x2="0" y1="0" y2="1"><stop offset="0.2" stop-color="#fff" stop-opacity="0.8"></stop><stop offset="0.8" stop-color="#fff" stop-opacity="0"></stop></linearGradient><filter id="editing-shiny2" x="-100%" y="-100%" width="300%" height="300%"><feMorphology operator="erode" radius="2"></feMorphology></filter><filter id="editing-shiny" x="-100%" y="-100%" width="300%" height="300%"><feFlood flood-color="#fff" result="flood"></feFlood><feConvolveMatrix in="SourceGraphic" result="conv" order="8,8" divisor="1" kernelMatrix="0 0 0 0 0 0 0 0 0 0 0 1 1 0 0 0 0 0 0 1 1 0 0 0 0 0 1 0 0 1 0 0 0 0 1 0 0 1 0 0 0 1 0 0 0 0 1 0 0 1 1 0 0 1 1 0 0 0 0 1 1 0 0 0 "></feConvolveMatrix><feOffset dx="0" dy="4" in="conv" result="offset"></feOffset><feComposite operator="in" in="flood" in2="offset" result="comp"></feComposite><feGaussianBlur in="offset" stdDeviation="3" result="shadow"></feGaussianBlur><feColorMatrix in="shadow" type="matrix" values="0.7 0 0 0 0  0 0.7 0 0 0  0 0 0.7 0 0  0 0 0 0.3 0" result="dark-shadow"></feColorMatrix><feOffset dx="0" dy="4" in="dark-shadow" result="offset-shadow"></feOffset><feOffset dx="0" dy="2" in="conv" result="offset-2"></feOffset><feComposite operator="out" in="offset" in2="offset-2" result="edge-diff"></feComposite><feGaussianBlur in="edge-diff" stdDeviation="1" result="edge-blur"></feGaussianBlur><feColorMatrix in="edge-blur" result="edge-shadow" type="matrix" values="0 0 0 0 0  0 0 0 0 0  0 0 0 0 0  0 0 0 0.5 0"></feColorMatrix><feComposite operator="in" in="edge-shadow" in2="offset" result="edge-shadow-in"></feComposite><feOffset dx="0" dy="1" in="edge-shadow-in" result="edge-shadow-final"></feOffset><feMerge result="out"><feMergeNode in="offset-shadow"></feMergeNode><feMergeNode in="comp"></feMergeNode><feMergeNode in="edge-shadow-final"></feMergeNode><feMergeNode in="SourceGraphic"></feMergeNode></feMerge></filter></defs><g filter="url(#editing-shiny)"><g transform="translate(-93.77001345157623, 134.56000137329102)"><path d="M3.46 3.22L1.35 2.29L1.35 2.29Q11.25-18.40 21.04-38.67L21.04-38.67L21.04-38.67Q30.82-58.95 40.90-79.57L40.90-79.57L43.07-78.57L43.07-78.57Q32.17-55.90 22.32-35.51L22.32-35.51L22.32-35.51Q12.48-15.12 3.46 3.22L3.46 3.22ZM59.30-60.82L59.30-60.82L59.30-60.82Q59.30-57.54 60.64-54.93L60.64-54.93L60.64-54.93Q61.99-52.32 64.28-50.19L64.28-50.19L64.28-50.19Q66.56-48.05 69.64-46.26L69.64-46.26L69.64-46.26Q72.71-44.47 76.17-42.80L76.17-42.80L76.17-42.80Q79.63-41.13 83.29-39.52L83.29-39.52L83.29-39.52Q86.95-37.91 90.41-36.12L90.41-36.12L90.41-36.12Q93.87-34.34 96.94-32.26L96.94-32.26L96.94-32.26Q100.02-30.18 102.30-27.63L102.30-27.63L102.30-27.63Q104.59-25.08 105.94-21.94L105.94-21.94L105.94-21.94Q107.29-18.81 107.29-14.88L107.29-14.88L107.29-14.88Q107.29-7.73 104.59-2.49L104.59-2.49L104.59-2.49Q101.89 2.75 97.38 6.18L97.38 6.18L97.38 6.18Q92.87 9.61 86.89 11.28L86.89 11.28L86.89 11.28Q80.92 12.95 74.41 12.95L74.41 12.95L74.41 12.95Q68.67 12.95 63.57 11.46L63.57 11.46L63.57 11.46Q58.48 9.96 54.61 7.29L54.61 7.29L54.61 7.29Q50.74 4.63 48.49 0.91L48.49 0.91L48.49 0.91Q46.23-2.81 46.23-7.21L46.23-7.21L46.23-7.21Q46.23-11.07 47.43-13.80L47.43-13.80L47.43-13.80Q48.63-16.52 50.07-18.28L50.07-18.28L50.07-18.28Q51.50-20.04 52.79-20.86L52.79-20.86L52.79-20.86Q54.08-21.68 54.26-21.74L54.26-21.74L55.55-18.98L55.55-18.98Q55.43-18.93 54.43-18.25L54.43-18.25L54.43-18.25Q53.44-17.58 52.29-16.17L52.29-16.17L52.29-16.17Q51.15-14.77 50.19-12.57L50.19-12.57L50.19-12.57Q49.22-10.37 49.22-7.21L49.22-7.21L49.22-7.21Q49.22-4.04 50.42-1.55L50.42-1.55L50.42-1.55Q51.62 0.94 53.64 2.81L53.64 2.81L53.64 2.81Q55.66 4.69 58.27 6.04L58.27 6.04L58.27 6.04Q60.88 7.38 63.69 8.23L63.69 8.23L63.69 8.23Q66.50 9.08 69.32 9.46L69.32 9.46L69.32 9.46Q72.13 9.84 74.53 9.84L74.53 9.84L74.53 9.84Q80.74 9.84 85.78 8.29L85.78 8.29L85.78 8.29Q90.82 6.74 94.37 4.01L94.37 4.01L94.37 4.01Q97.91 1.29 99.84-2.31L99.84-2.31L99.84-2.31Q101.78-5.92 101.78-10.08L101.78-10.08L101.78-10.08Q101.78-14.77 99.79-18.16L99.79-18.16L99.79-18.16Q97.79-21.56 94.51-24.17L94.51-24.17L94.51-24.17Q91.23-26.78 87.04-28.86L87.04-28.86L87.04-28.86Q82.85-30.94 78.49-32.93L78.49-32.93L78.49-32.93Q74.12-34.92 69.93-37.12L69.93-37.12L69.93-37.12Q65.74-39.32 62.46-42.19L62.46-42.19L62.46-42.19Q59.18-45.06 57.19-48.84L57.19-48.84L57.19-48.84Q55.20-52.62 55.20-57.83L55.20-57.83L55.20-57.83Q55.20-63.63 57.16-68.44L57.16-68.44L57.16-68.44Q59.12-73.24 62.55-76.73L62.55-76.73L62.55-76.73Q65.98-80.21 70.61-82.12L70.61-82.12L70.61-82.12Q75.23-84.02 80.63-84.02L80.63-84.02L80.63-84.02Q86.07-84.02 90.18-82.76L90.18-82.76L90.18-82.76Q94.28-81.50 97.06-79.25L97.06-79.25L97.06-79.25Q99.84-76.99 101.22-73.83L101.22-73.83L101.22-73.83Q102.60-70.66 102.60-66.86L102.60-66.86L102.60-66.86Q102.60-63.75 101.87-60.79L101.87-60.79L101.87-60.79Q101.13-57.83 100.25-55.49L100.25-55.49L100.25-55.49Q99.38-53.14 98.61-51.68L98.61-51.68L98.61-51.68Q97.85-50.21 97.79-50.04L97.79-50.04L95.16-51.50L95.16-51.50Q95.16-51.56 95.83-52.91L95.83-52.91L95.83-52.91Q96.50-54.26 97.32-56.43L97.32-56.43L97.32-56.43Q98.14-58.59 98.82-61.32L98.82-61.32L98.82-61.32Q99.49-64.04 99.49-66.86L99.49-66.86L99.49-66.86Q99.49-70.02 98.35-72.63L98.35-72.63L98.35-72.63Q97.21-75.23 94.86-77.05L94.86-77.05L94.86-77.05Q92.52-78.87 88.95-79.86L88.95-79.86L88.95-79.86Q85.37-80.86 80.51-80.86L80.51-80.86L80.51-80.86Q76.00-80.86 72.13-79.37L72.13-79.37L72.13-79.37Q68.26-77.87 65.42-75.18L65.42-75.18L65.42-75.18Q62.58-72.48 60.94-68.82L60.94-68.82L60.94-68.82Q59.30-65.16 59.30-60.82ZM104.30-47.17L105.23-49.34L105.23-49.34Q106.11-48.81 107.34-48.11L107.34-48.11L107.34-48.11Q108.57-47.40 110.21-46.76L110.21-46.76L110.21-46.76Q111.86-46.11 113.88-45.56L113.88-45.56L113.88-45.56Q115.90-45 118.30-44.77L118.30-44.77L118.30-44.77Q119.12-50.04 120.41-54.29L120.41-54.29L120.41-54.29Q121.70-58.54 123.25-61.55L123.25-61.55L123.25-61.55Q124.80-64.57 126.47-66.18L126.47-66.18L126.47-66.18Q128.14-67.79 129.73-67.79L129.73-67.79L129.73-67.79Q131.54-67.79 132.30-66.39L132.30-66.39L132.30-66.39Q133.07-64.98 133.07-62.64L133.07-62.64L133.07-62.64Q133.07-60.94 132.71-58.89L132.71-58.89L132.71-58.89Q132.36-56.84 131.78-54.52L131.78-54.52L131.78-54.52Q131.19-52.21 130.37-49.72L130.37-49.72L130.37-49.72Q129.55-47.23 128.67-44.77L128.67-44.77L128.67-44.77Q134.53-45.29 139.48-46.70L139.48-46.70L139.48-46.70Q144.43-48.11 148.07-49.57L148.07-49.57L149.18-47.40L149.18-47.40Q144.38-45.59 139.22-44.15L139.22-44.15L139.22-44.15Q134.06-42.71 127.68-42.36L127.68-42.36L127.68-42.36Q126.21-38.55 124.66-35.13L124.66-35.13L124.66-35.13Q123.11-31.70 121.82-29.18L121.82-29.18L121.82-29.18Q121.88-25.90 122.20-22.06L122.20-22.06L122.20-22.06Q122.52-18.22 123.49-14.88L123.49-14.88L123.49-14.88Q124.45-11.54 126.24-9.32L126.24-9.32L126.24-9.32Q128.03-7.09 130.96-7.09L130.96-7.09L130.96-7.09Q133.42-7.09 135.47-9.17L135.47-9.17L135.47-9.17Q137.52-11.25 139.25-14.44L139.25-14.44L139.25-14.44Q140.98-17.64 142.44-21.45L142.44-21.45L142.44-21.45Q143.91-25.25 145.20-28.65L145.20-28.65L147.48-28.07L147.48-28.07Q146.66-25.96 145.72-23.32L145.72-23.32L145.72-23.32Q144.79-20.68 143.61-17.96L143.61-17.96L143.61-17.96Q142.44-15.23 141.04-12.69L141.04-12.69L141.04-12.69Q139.63-10.14 137.93-8.12L137.93-8.12L137.93-8.12Q136.23-6.09 134.18-4.89L134.18-4.89L134.18-4.89Q132.13-3.69 129.73-3.69L129.73-3.69L129.73-3.69Q127.15-3.69 124.89-4.86L124.89-4.86L124.89-4.86Q122.64-6.04 120.97-9.05L120.97-9.05L120.97-9.05Q119.30-12.07 118.33-17.26L118.33-17.26L118.33-17.26Q117.36-22.44 117.36-30.47L117.36-30.47L117.36-30.47Q117.36-36.91 118.07-42.48L118.07-42.48L118.07-42.48Q113.03-43.13 109.60-44.50L109.60-44.50L109.60-44.50Q106.17-45.88 104.30-47.17L104.30-47.17ZM130.08-64.69L130.08-64.69L130.08-64.69Q129.55-64.69 128.50-63.63L128.50-63.63L128.50-63.63Q127.44-62.58 126.27-60.21L126.27-60.21L126.27-60.21Q125.10-57.83 124.01-53.99L124.01-53.99L124.01-53.99Q122.93-50.16 122.29-44.53L122.29-44.53L123.40-44.53L126.27-44.53L126.27-44.53Q127.32-47.46 128.12-50.21L128.12-50.21L128.12-50.21Q128.91-52.97 129.49-55.34L129.49-55.34L129.49-55.34Q130.08-57.71 130.37-59.62L130.37-59.62L130.37-59.62Q130.66-61.52 130.66-62.75L130.66-62.75L130.66-62.75Q130.66-64.69 130.08-64.69ZM121.82-33.98L121.82-33.87L121.82-33.87Q122.81-35.92 123.69-38.00L123.69-38.00L123.69-38.00Q124.57-40.08 125.39-42.25L125.39-42.25L123.22-42.25L122.05-42.25L122.05-42.25Q121.93-40.37 121.88-38.29L121.88-38.29L121.88-38.29Q121.82-36.21 121.82-33.98L121.82-33.98ZM188.03-28.65L190.31-28.07L190.31-28.07Q187.91-21.56 185.95-17.17L185.95-17.17L185.95-17.17Q183.98-12.77 182.14-10.08L182.14-10.08L182.14-10.08Q180.29-7.38 178.48-6.21L178.48-6.21L178.48-6.21Q176.66-5.04 174.49-5.04L174.49-5.04L174.49-5.04Q171.86-5.04 169.98-6.88L169.98-6.88L169.98-6.88Q168.11-8.73 167.64-12.60L167.64-12.60L167.64-12.60Q165.76-8.55 162.77-6.01L162.77-6.01L162.77-6.01Q159.79-3.46 155.27-3.46L155.27-3.46L155.27-3.46Q152.87-3.46 150.67-4.34L150.67-4.34L150.67-4.34Q148.48-5.21 146.78-7.06L146.78-7.06L146.78-7.06Q145.08-8.91 144.05-11.72L144.05-11.72L144.05-11.72Q143.03-14.53 143.03-18.34L143.03-18.34L143.03-18.34Q143.03-22.21 143.99-25.61L143.99-25.61L143.99-25.61Q144.96-29.00 146.54-31.85L146.54-31.85L146.54-31.85Q148.13-34.69 150.21-36.91L150.21-36.91L150.21-36.91Q152.29-39.14 154.51-40.66L154.51-40.66L154.51-40.66Q156.74-42.19 158.96-43.01L158.96-43.01L158.96-43.01Q161.19-43.83 163.07-43.83L163.07-43.83L163.07-43.83Q164.71-43.83 166.23-43.42L166.23-43.42L166.23-43.42Q167.75-43.01 168.96-42.10L168.96-42.10L168.96-42.10Q170.16-41.19 170.89-39.67L170.89-39.67L170.89-39.67Q171.62-38.14 171.62-35.86L171.62-35.86L171.62-35.86Q171.62-33.16 170.60-31.17L170.60-31.17L170.60-31.17Q169.57-29.18 168.13-27.83L168.13-27.83L168.13-27.83Q166.70-26.48 165.21-25.66L165.21-25.66L165.21-25.66Q163.71-24.84 162.83-24.49L162.83-24.49L162.13-26.78L162.13-26.78Q162.30-26.78 163.45-27.25L163.45-27.25L163.45-27.25Q164.59-27.71 165.85-28.80L165.85-28.80L165.85-28.80Q167.11-29.88 168.16-31.58L168.16-31.58L168.16-31.58Q169.22-33.28 169.22-35.74L169.22-35.74L169.22-35.74Q169.22-38.55 167.64-40.05L167.64-40.05L167.64-40.05Q166.05-41.54 163.59-41.54L163.59-41.54L163.59-41.54Q161.72-41.54 159.20-40.20L159.20-40.20L159.20-40.20Q156.68-38.85 154.37-35.98L154.37-35.98L154.37-35.98Q152.05-33.11 150.44-28.71L150.44-28.71L150.44-28.71Q148.83-24.32 148.83-18.22L148.83-18.22L148.83-18.22Q148.83-12.19 150.97-9.02L150.97-9.02L150.97-9.02Q153.11-5.86 156.74-5.86L156.74-5.86L156.74-5.86Q158.55-5.86 160.22-6.88L160.22-6.88L160.22-6.88Q161.89-7.91 163.30-9.61L163.30-9.61L163.30-9.61Q164.71-11.31 165.82-13.56L165.82-13.56L165.82-13.56Q166.93-15.82 167.75-18.22L167.75-18.22L167.75-18.22Q167.75-20.10 168.19-22.65L168.19-22.65L168.19-22.65Q168.63-25.20 169.57-27.83L169.57-27.83L173.14-26.66L173.14-26.66Q172.85-25.90 172.56-24.67L172.56-24.67L172.56-24.67Q172.27-23.44 172.00-21.97L172.00-21.97L172.00-21.97Q171.74-20.51 171.56-18.96L171.56-18.96L171.56-18.96Q171.39-17.40 171.39-15.94L171.39-15.94L171.39-15.94Q171.39-11.37 172.29-9.64L172.29-9.64L172.29-9.64Q173.20-7.91 175.43-7.91L175.43-7.91L175.43-7.91Q176.72-7.91 177.98-8.85L177.98-8.85L177.98-8.85Q179.24-9.79 180.70-12.13L180.70-12.13L180.70-12.13Q182.17-14.47 183.93-18.49L183.93-18.49L183.93-18.49Q185.68-22.50 188.03-28.65L188.03-28.65ZM205.08-3.57L205.08-3.57L205.08-3.57Q207.13-3.57 208.86-4.57L208.86-4.57L208.86-4.57Q210.59-5.57 211.93-7.21L211.93-7.21L211.93-7.21Q209.47-7.91 207.33-9.40L207.33-9.40L207.33-9.40Q205.20-10.90 203.55-13.13L203.55-13.13L203.55-13.13Q201.91-15.35 200.98-18.25L200.98-18.25L200.98-18.25Q200.04-21.15 200.04-24.61L200.04-24.61L200.04-24.61Q200.04-27.36 200.74-29.65L200.74-29.65L200.74-29.65Q201.45-31.93 202.73-33.54L202.73-33.54L202.73-33.54Q204.02-35.16 205.78-36.06L205.78-36.06L205.78-36.06Q207.54-36.97 209.65-36.97L209.65-36.97L209.65-36.97Q211.23-36.97 212.99-36.27L212.99-36.27L212.99-36.27Q214.75-35.57 216.21-33.90L216.21-33.90L216.21-33.90Q217.68-32.23 218.64-29.50L218.64-29.50L218.64-29.50Q219.61-26.78 219.61-22.68L219.61-22.68L219.61-22.68Q219.61-19.39 218.70-15.85L218.70-15.85L218.70-15.85Q217.79-12.30 216.09-9.14L216.09-9.14L216.50-9.14L216.50-9.14Q219.49-9.14 221.72-10.52L221.72-10.52L221.72-10.52Q223.95-11.89 225.73-14.41L225.73-14.41L225.73-14.41Q227.52-16.93 229.13-20.54L229.13-20.54L229.13-20.54Q230.74-24.14 232.56-28.65L232.56-28.65L234.84-28.07L234.84-28.07Q232.85-22.79 230.98-18.81L230.98-18.81L230.98-18.81Q229.10-14.82 226.93-12.16L226.93-12.16L226.93-12.16Q224.77-9.49 222.10-8.12L222.10-8.12L222.10-8.12Q219.43-6.74 215.86-6.74L215.86-6.74L214.69-6.74L214.69-6.74Q212.70-3.93 210.03-2.20L210.03-2.20L210.03-2.20Q207.36-0.47 204.02-0.47L204.02-0.47L204.02-0.47Q199.69-0.47 196.55-2.49L196.55-2.49L196.55-2.49Q193.42-4.51 191.37-8.38L191.37-8.38L191.37-8.38Q189.32-12.25 188.32-17.81L188.32-17.81L188.32-17.81Q187.32-23.38 187.32-30.47L187.32-30.47L187.32-30.47Q187.32-42.30 188.58-51.04L188.58-51.04L188.58-51.04Q189.84-59.77 191.95-65.48L191.95-65.48L191.95-65.48Q194.06-71.19 196.88-73.92L196.88-73.92L196.88-73.92Q199.69-76.64 202.79-76.58L202.79-76.58L202.79-76.58Q205.02-76.46 206.19-74.56L206.19-74.56L206.19-74.56Q207.36-72.66 207.36-69.02L207.36-69.02L207.36-69.02Q207.36-65.10 206.25-60.35L206.25-60.35L206.25-60.35Q205.14-55.61 203.14-50.13L203.14-50.13L203.14-50.13Q201.15-44.65 198.40-38.50L198.40-38.50L198.40-38.50Q195.64-32.34 192.36-25.66L192.36-25.66L192.36-25.66Q192.48-23.26 192.80-20.71L192.80-20.71L192.80-20.71Q193.13-18.16 193.74-15.70L193.74-15.70L193.74-15.70Q194.36-13.24 195.29-11.04L195.29-11.04L195.29-11.04Q196.23-8.85 197.61-7.18L197.61-7.18L197.61-7.18Q198.98-5.51 200.83-4.54L200.83-4.54L200.83-4.54Q202.68-3.57 205.08-3.57ZM202.09-74.18L202.09-74.18L202.09-74.18Q199.98-74.18 198.43-72.33L198.43-72.33L198.43-72.33Q196.88-70.49 195.79-67.29L195.79-67.29L195.79-67.29Q194.71-64.10 194.00-59.85L194.00-59.85L194.00-59.85Q193.30-55.61 192.92-50.83L192.92-50.83L192.92-50.83Q192.54-46.05 192.39-40.96L192.39-40.96L192.39-40.96Q192.25-35.86 192.25-31.05L192.25-31.05L192.25-31.05Q195.06-36.97 197.37-42.51L197.37-42.51L197.37-42.51Q199.69-48.05 201.39-52.94L201.39-52.94L201.39-52.94Q203.09-57.83 204.02-61.93L204.02-61.93L204.02-61.93Q204.96-66.04 204.96-69.14L204.96-69.14L204.96-69.14Q204.96-70.02 204.87-70.90L204.87-70.90L204.87-70.90Q204.79-71.78 204.46-72.51L204.46-72.51L204.46-72.51Q204.14-73.24 203.58-73.71L203.58-73.71L203.58-73.71Q203.03-74.18 202.09-74.18ZM204.26-25.20L204.26-25.20L204.26-25.20Q204.26-22.38 204.93-19.83L204.93-19.83L204.93-19.83Q205.61-17.29 206.81-15.23L206.81-15.23L206.81-15.23Q208.01-13.18 209.71-11.69L209.71-11.69L209.71-11.69Q211.41-10.20 213.46-9.49L213.46-9.49L213.46-9.49Q214.39-11.07 215.10-12.80L215.10-12.80L215.10-12.80Q215.80-14.53 216.27-16.26L216.27-16.26L216.27-16.26Q216.74-17.99 216.97-19.60L216.97-19.60L216.97-19.60Q217.21-21.21 217.21-22.44L217.21-22.44L217.21-22.44Q217.21-25.25 216.59-27.51L216.59-27.51L216.59-27.51Q215.98-29.77 214.95-31.35L214.95-31.35L214.95-31.35Q213.93-32.93 212.58-33.75L212.58-33.75L212.58-33.75Q211.23-34.57 209.77-34.57L209.77-34.57L209.77-34.57Q208.42-34.57 207.39-33.81L207.39-33.81L207.39-33.81Q206.37-33.05 205.66-31.73L205.66-31.73L205.66-31.73Q204.96-30.41 204.61-28.71L204.61-28.71L204.61-28.71Q204.26-27.01 204.26-25.20ZM252.83-73.83L252.83-73.83L252.83-73.83Q252.83-70.14 251.98-65.98L251.98-65.98L251.98-65.98Q251.13-61.82 249.76-57.54L249.76-57.54L249.76-57.54Q248.38-53.26 246.59-48.93L246.59-48.93L246.59-48.93Q244.80-44.59 242.99-40.61L242.99-40.61L242.99-40.61Q241.17-36.62 239.41-33.05L239.41-33.05L239.41-33.05Q237.66-29.47 236.31-26.66L236.31-26.66L236.31-26.66Q236.54-21.86 237.13-17.99L237.13-17.99L237.13-17.99Q237.71-14.12 238.59-11.40L238.59-11.40L238.59-11.40Q239.47-8.67 240.70-7.21L240.70-7.21L240.70-7.21Q241.93-5.74 243.52-5.74L243.52-5.74L243.52-5.74Q245.27-5.74 247.00-7.38L247.00-7.38L247.00-7.38Q248.73-9.02 250.49-12.01L250.49-12.01L250.49-12.01Q252.25-15 254.06-19.22L254.06-19.22L254.06-19.22Q255.88-23.44 257.75-28.65L257.75-28.65L260.04-28.07L260.04-28.07Q258.63-24.02 256.88-19.54L256.88-19.54L256.88-19.54Q255.12-15.06 252.95-11.31L252.95-11.31L252.95-11.31Q250.78-7.56 248.23-5.10L248.23-5.10L248.23-5.10Q245.68-2.64 242.75-2.64L242.75-2.64L242.75-2.64Q239.82-2.64 237.83-4.45L237.83-4.45L237.83-4.45Q235.84-6.27 234.55-9.23L234.55-9.23L234.55-9.23Q233.26-12.19 232.56-15.97L232.56-15.97L232.56-15.97Q231.86-19.75 231.50-23.67L231.50-23.67L231.50-23.67Q231.15-27.60 231.09-31.32L231.09-31.32L231.09-31.32Q231.04-35.04 231.04-37.91L231.04-37.91L231.04-37.91Q231.04-43.24 231.47-48.52L231.47-48.52L231.47-48.52Q231.91-53.79 232.82-58.59L232.82-58.59L232.82-58.59Q233.73-63.40 235.02-67.53L235.02-67.53L235.02-67.53Q236.31-71.66 238.04-74.68L238.04-74.68L238.04-74.68Q239.77-77.70 241.85-79.39L241.85-79.39L241.85-79.39Q243.93-81.09 246.39-81.09L246.39-81.09L246.39-81.09Q248.14-81.09 249.38-80.51L249.38-80.51L249.38-80.51Q250.61-79.92 251.37-78.93L251.37-78.93L251.37-78.93Q252.13-77.93 252.48-76.61L252.48-76.61L252.48-76.61Q252.83-75.29 252.83-73.83ZM235.96-40.08L235.96-40.08L235.96-40.08Q235.96-37.85 235.96-35.71L235.96-35.71L235.96-35.71Q235.96-33.57 236.07-31.58L236.07-31.58L236.07-31.58Q237.54-34.51 239.18-38.00L239.18-38.00L239.18-38.00Q240.82-41.48 242.43-45.21L242.43-45.21L242.43-45.21Q244.04-48.93 245.51-52.73L245.51-52.73L245.51-52.73Q246.97-56.54 248.09-60.21L248.09-60.21L248.09-60.21Q249.20-63.87 249.87-67.18L249.87-67.18L249.87-67.18Q250.55-70.49 250.55-73.18L250.55-73.18L250.55-73.18Q250.55-74.06 250.40-75.06L250.40-75.06L250.40-75.06Q250.25-76.05 249.87-76.90L249.87-76.90L249.87-76.90Q249.49-77.75 248.79-78.31L248.79-78.31L248.79-78.31Q248.09-78.87 246.97-78.87L246.97-78.87L246.97-78.87Q244.75-78.87 242.72-75.97L242.72-75.97L242.72-75.97Q240.70-73.07 239.21-67.91L239.21-67.91L239.21-67.91Q237.71-62.75 236.84-55.63L236.84-55.63L236.84-55.63Q235.96-48.52 235.96-40.08ZM270.59-0.82L270.59-0.82L270.59-0.82Q267.60-0.82 264.84-1.88L264.84-1.88L264.84-1.88Q262.09-2.93 260.01-5.07L260.01-5.07L260.01-5.07Q257.93-7.21 256.70-10.43L256.70-10.43L256.70-10.43Q255.47-13.65 255.47-17.99L255.47-17.99L255.47-17.99Q255.47-23.26 256.99-27.39L256.99-27.39L256.99-27.39Q258.52-31.52 260.89-34.37L260.89-34.37L260.89-34.37Q263.26-37.21 266.19-38.70L266.19-38.70L266.19-38.70Q269.12-40.20 271.93-40.20L271.93-40.20L271.93-40.20Q275.57-40.20 277.71-37.79L277.71-37.79L277.71-37.79Q279.84-35.39 279.84-31.58L279.84-31.58L279.84-31.58Q279.84-28.30 278.61-25.63L278.61-25.63L278.61-25.63Q277.38-22.97 275.36-21.06L275.36-21.06L275.36-21.06Q273.34-19.16 270.73-18.11L270.73-18.11L270.73-18.11Q268.13-17.05 265.31-17.05L265.31-17.05L265.31-17.05Q263.96-17.05 262.76-17.20L262.76-17.20L262.76-17.20Q261.56-17.34 260.63-17.52L260.63-17.52L260.63-17.52Q260.98-13.89 262.03-11.25L262.03-11.25L262.03-11.25Q263.09-8.61 264.67-6.91L264.67-6.91L264.67-6.91Q266.25-5.21 268.21-4.39L268.21-4.39L268.21-4.39Q270.18-3.57 272.29-3.57L272.29-3.57L272.29-3.57Q274.92-3.57 277.15-4.86L277.15-4.86L277.15-4.86Q279.38-6.15 281.25-8.23L281.25-8.23L281.25-8.23Q283.13-10.31 284.68-13.01L284.68-13.01L284.68-13.01Q286.23-15.70 287.46-18.49L287.46-18.49L287.46-18.49Q288.69-21.27 289.66-23.94L289.66-23.94L289.66-23.94Q290.63-26.60 291.39-28.65L291.39-28.65L293.67-28.07L293.67-28.07Q292.91-26.13 291.88-23.38L291.88-23.38L291.88-23.38Q290.86-20.63 289.51-17.61L289.51-17.61L289.51-17.61Q288.16-14.59 286.35-11.57L286.35-11.57L286.35-11.57Q284.53-8.55 282.25-6.18L282.25-6.18L282.25-6.18Q279.96-3.81 277.06-2.31L277.06-2.31L277.06-2.31Q274.16-0.82 270.59-0.82ZM272.05-37.91L272.05-37.91L272.05-37.91Q269.88-37.91 267.80-36.53L267.80-36.53L267.80-36.53Q265.72-35.16 264.08-32.75L264.08-32.75L264.08-32.75Q262.44-30.35 261.42-27.07L261.42-27.07L261.42-27.07Q260.39-23.79 260.39-20.04L260.39-20.04L260.39-20.04Q261.15-19.75 262.53-19.54L262.53-19.54L262.53-19.54Q263.91-19.34 265.90-19.34L265.90-19.34L265.90-19.34Q268.01-19.34 270.09-20.24L270.09-20.24L270.09-20.24Q272.17-21.15 273.84-22.76L273.84-22.76L273.84-22.76Q275.51-24.38 276.53-26.60L276.53-26.60L276.53-26.60Q277.56-28.83 277.56-31.46L277.56-31.46L277.56-31.46Q277.56-32.75 277.21-33.93L277.21-33.93L277.21-33.93Q276.86-35.10 276.15-35.98L276.15-35.98L276.15-35.98Q275.45-36.86 274.42-37.38L274.42-37.38L274.42-37.38Q273.40-37.91 272.05-37.91ZM324.67-28.83L324.67-24.73L324.67-24.73Q322.27-24.61 320.42-24.55L320.42-24.55L320.42-24.55Q318.57-24.49 316.93-24.43L316.93-24.43L316.93-24.43Q315.29-24.38 313.65-24.38L313.65-24.38L313.65-24.38Q312.01-24.38 310.02-24.40L310.02-24.40L310.02-24.40Q308.03-24.43 305.51-24.49L305.51-24.49L305.51-24.49Q302.99-24.55 299.59-24.73L299.59-24.73L299.59-28.83L299.59-28.83Q302.58-28.89 304.80-28.95L304.80-28.95L304.80-28.95Q307.03-29.00 308.88-29.03L308.88-29.03L308.88-29.03Q310.72-29.06 312.39-29.09L312.39-29.09L312.39-29.09Q314.06-29.12 315.85-29.09L315.85-29.09L315.85-29.09Q317.64-29.06 319.75-29.00L319.75-29.00L319.75-29.00Q321.86-28.95 324.67-28.83L324.67-28.83ZM351.09 5.74L351.09 5.74L351.09 5.74Q346.58 5.74 342.83 4.63L342.83 4.63L342.83 4.63Q339.08 3.52 336.42 1.41L336.42 1.41L336.42 1.41Q333.75-0.70 332.26-3.75L332.26-3.75L332.26-3.75Q330.76-6.80 330.76-10.66L330.76-10.66L330.76-10.66Q330.76-14.65 332.61-18.78L332.61-18.78L332.61-18.78Q334.45-22.91 337.97-26.43L337.97-26.43L339.08-25.31L339.08-25.31Q337.27-22.97 336.06-19.69L336.06-19.69L336.06-19.69Q334.86-16.41 334.86-12.71L334.86-12.71L334.86-12.71Q334.86-9.73 335.77-6.83L335.77-6.83L335.77-6.83Q336.68-3.93 338.61-1.64L338.61-1.64L338.61-1.64Q340.55 0.64 343.62 2.05L343.62 2.05L343.62 2.05Q346.70 3.46 351.09 3.46L351.09 3.46L351.09 3.46Q351.45 3.46 351.80 3.40L351.80 3.40L351.80 3.40Q352.15 3.34 352.50 3.34L352.50 3.34L352.50 3.34Q350.68-2.17 349.25-10.14L349.25-10.14L349.25-10.14Q347.81-18.11 347.81-28.65L347.81-28.65L347.81-28.65Q347.81-38.50 348.98-46.00L348.98-46.00L348.98-46.00Q350.16-53.50 351.74-58.95L351.74-58.95L351.74-58.95Q353.32-64.39 354.99-67.94L354.99-67.94L354.99-67.94Q356.66-71.48 357.66-73.42L357.66-73.42L359.36-73.07L359.36-73.07Q358.83-70.55 358.01-66.18L358.01-66.18L358.01-66.18Q357.19-61.82 356.40-55.46L356.40-55.46L356.40-55.46Q355.61-49.10 355.02-40.61L355.02-40.61L355.02-40.61Q354.43-32.11 354.43-21.39L354.43-21.39L354.43-21.39Q354.43-15.35 354.79-9.23L354.79-9.23L354.79-9.23Q355.14-3.11 355.84 3.11L355.84 3.11L355.84 3.11Q362.93 2.34 369.08-0.47L369.08-0.47L369.08-0.47Q375.23-3.28 380.30-7.56L380.30-7.56L380.30-7.56Q385.37-11.84 389.30-17.29L389.30-17.29L389.30-17.29Q393.22-22.73 395.95-28.77L395.95-28.77L395.95-28.77Q398.67-34.80 400.08-41.13L400.08-41.13L400.08-41.13Q401.48-47.46 401.48-53.50L401.48-53.50L401.48-53.50Q401.48-61.46 399.02-67.15L399.02-67.15L399.02-67.15Q396.56-72.83 392.64-76.44L392.64-76.44L392.64-76.44Q388.71-80.04 383.76-81.71L383.76-81.71L383.76-81.71Q378.81-83.38 373.89-83.38L373.89-83.38L373.89-83.38Q369.02-83.38 364.86-82.73L364.86-82.73L364.86-82.73Q360.70-82.09 357.22-81.04L357.22-81.04L357.22-81.04Q353.73-79.98 350.89-78.66L350.89-78.66L350.89-78.66Q348.05-77.34 345.82-75.94L345.82-75.94L345.82-75.94Q340.55-72.66 337.15-68.50L337.15-68.50L335.21-69.84L335.21-69.84Q335.27-69.96 336.30-71.19L336.30-71.19L336.30-71.19Q337.32-72.42 339.38-74.18L339.38-74.18L339.38-74.18Q341.43-75.94 344.56-77.93L344.56-77.93L344.56-77.93Q347.70-79.92 351.94-81.65L351.94-81.65L351.94-81.65Q356.19-83.38 361.67-84.52L361.67-84.52L361.67-84.52Q367.15-85.66 373.89-85.66L373.89-85.66L373.89-85.66Q381.97-85.66 388.36-83.55L388.36-83.55L388.36-83.55Q394.75-81.45 399.17-77.31L399.17-77.31L399.17-77.31Q403.59-73.18 405.94-67.12L405.94-67.12L405.94-67.12Q408.28-61.05 408.28-53.14L408.28-53.14L408.28-53.14Q408.28-43.89 405.88-36.12L405.88-36.12L405.88-36.12Q403.48-28.36 399.43-22.06L399.43-22.06L399.43-22.06Q395.39-15.76 390.12-10.96L390.12-10.96L390.12-10.96Q384.84-6.15 379.04-2.72L379.04-2.72L379.04-2.72Q373.24 0.70 367.32 2.72L367.32 2.72L367.32 2.72Q361.41 4.75 356.13 5.39L356.13 5.39L356.13 5.39Q356.31 6.50 356.48 7.50L356.48 7.50L356.48 7.50Q356.66 8.50 356.84 9.61L356.84 9.61L354.90 9.84L354.90 9.84Q354.55 8.91 354.11 7.85L354.11 7.85L354.11 7.85Q353.67 6.80 353.20 5.63L353.20 5.63L353.20 5.63Q352.68 5.74 352.15 5.74L352.15 5.74L352.15 5.74Q351.62 5.74 351.09 5.74ZM424.16-6.09L424.16-6.09L424.16-6.09Q420.47-6.09 418.04-9.08L418.04-9.08L418.04-9.08Q415.61-12.07 415.61-18.11L415.61-18.11L415.61-18.11Q415.61-22.09 417.22-28.27L417.22-28.27L417.22-28.27Q418.83-34.45 422.81-42.25L422.81-42.25L424.98-41.66L424.98-41.66Q424.63-40.14 423.84-37.50L423.84-37.50L423.84-37.50Q423.05-34.86 422.26-31.61L422.26-31.61L422.26-31.61Q421.46-28.36 420.88-24.81L420.88-24.81L420.88-24.81Q420.29-21.27 420.29-17.99L420.29-17.99L420.29-17.99Q420.29-15.23 420.70-13.51L420.70-13.51L420.70-13.51Q421.11-11.78 421.79-10.81L421.79-10.81L421.79-10.81Q422.46-9.84 423.37-9.49L423.37-9.49L423.37-9.49Q424.28-9.14 425.33-9.14L425.33-9.14L425.33-9.14Q427.03-9.14 428.55-10.20L428.55-10.20L428.55-10.20Q430.08-11.25 431.46-12.98L431.46-12.98L431.46-12.98Q432.83-14.71 434.03-16.85L434.03-16.85L434.03-16.85Q435.23-18.98 436.20-21.15L436.20-21.15L436.20-21.15Q437.17-23.32 437.93-25.28L437.93-25.28L437.93-25.28Q438.69-27.25 439.16-28.65L439.16-28.65L441.45-28.07L441.45-28.07Q440.80-26.31 439.95-23.99L439.95-23.99L439.95-23.99Q439.10-21.68 438.02-19.22L438.02-19.22L438.02-19.22Q436.93-16.76 435.59-14.41L435.59-14.41L435.59-14.41Q434.24-12.07 432.54-10.22L432.54-10.22L432.54-10.22Q430.84-8.38 428.76-7.24L428.76-7.24L428.76-7.24Q426.68-6.09 424.16-6.09ZM433.65-60.70L433.65-60.70L433.65-60.70Q433.65-58.65 432.07-57.54L432.07-57.54L432.07-57.54Q430.49-56.43 428.09-56.43L428.09-56.43L428.09-56.43Q426.86-56.43 425.77-56.81L425.77-56.81L425.77-56.81Q424.69-57.19 423.90-57.80L423.90-57.80L423.90-57.80Q423.11-58.42 422.67-59.27L422.67-59.27L422.67-59.27Q422.23-60.12 422.23-61.05L422.23-61.05L422.23-61.05Q422.23-63.05 423.78-64.28L423.78-64.28L423.78-64.28Q425.33-65.51 427.38-65.51L427.38-65.51L427.38-65.51Q428.85-65.51 430.02-65.07L430.02-65.07L430.02-65.07Q431.19-64.63 432.01-63.93L432.01-63.93L432.01-63.93Q432.83-63.22 433.24-62.37L433.24-62.37L433.24-62.37Q433.65-61.52 433.65-60.70ZM430.49-60.70L430.49-60.70L430.49-60.70Q430.49-61.29 429.99-61.79L429.99-61.79L429.99-61.79Q429.49-62.29 428.50-62.29L428.50-62.29L428.50-62.29Q426.68-62.29 426.68-60.94L426.68-60.94L426.68-60.94Q426.68-60.29 427.24-59.85L427.24-59.85L427.24-59.85Q427.79-59.41 428.73-59.41L428.73-59.41L428.73-59.41Q429.61-59.41 430.05-59.79L430.05-59.79L430.05-59.79Q430.49-60.18 430.49-60.70ZM462.07-71.89L462.07-71.89L462.07-71.89Q462.07-67.44 460.46-62.40L460.46-62.40L460.46-62.40Q458.85-57.36 456.27-51.97L456.27-51.97L456.27-51.97Q453.69-46.58 450.44-40.99L450.44-40.99L450.44-40.99Q447.19-35.39 443.96-29.88L443.96-29.88L443.96-29.88Q443.32-24.43 442.76-19.04L442.76-19.04L442.76-19.04Q442.21-13.65 441.83-8.82L441.83-8.82L441.83-8.82Q441.45-3.98 441.21 0.06L441.21 0.06L441.21 0.06Q440.98 4.10 440.98 6.86L440.98 6.86L440.98 6.86Q440.98 12.48 441.53 16.96L441.53 16.96L441.53 16.96Q442.09 21.45 443.23 24.58L443.23 24.58L443.23 24.58Q444.38 27.71 446.04 29.38L446.04 29.38L446.04 29.38Q447.71 31.05 450 31.05L450 31.05L450 31.05Q451.29 31.05 452.17 30.23L452.17 30.23L452.17 30.23Q453.05 29.41 453.63 28.13L453.63 28.13L453.63 28.13Q454.22 26.84 454.51 25.20L454.51 25.20L454.51 25.20Q454.80 23.55 454.95 21.91L454.95 21.91L454.95 21.91Q455.10 20.27 455.13 18.81L455.13 18.81L455.13 18.81Q455.16 17.34 455.16 16.35L455.16 16.35L455.16 16.35Q455.16 9.79 454.28 3.84L454.28 3.84L454.28 3.84Q453.40-2.11 452.11-6.39L452.11-6.39L451.64-6.39L451.64-6.39Q450.23-6.39 448.97-6.77L448.97-6.77L448.97-6.77Q447.71-7.15 446.72-7.85L446.72-7.85L446.72-7.85Q445.72-8.55 445.14-9.49L445.14-9.49L445.14-9.49Q444.55-10.43 444.55-11.54L444.55-11.54L444.55-11.54Q444.55-13.13 445.52-14.24L445.52-14.24L445.52-14.24Q446.48-15.35 447.95-15.35L447.95-15.35L447.95-15.35Q449.77-15.35 451.41-13.62L451.41-13.62L451.41-13.62Q453.05-11.89 454.39-9.02L454.39-9.02L454.39-9.02Q456.74-9.96 458.70-12.30L458.70-12.30L458.70-12.30Q460.66-14.65 462.25-17.55L462.25-17.55L462.25-17.55Q463.83-20.45 465.03-23.44L465.03-23.44L465.03-23.44Q466.23-26.43 467.11-28.65L467.11-28.65L469.39-28.07L469.39-28.07Q468.46-25.55 467.17-22.35L467.17-22.35L467.17-22.35Q465.88-19.16 464.18-16.14L464.18-16.14L464.18-16.14Q462.48-13.13 460.28-10.63L460.28-10.63L460.28-10.63Q458.09-8.14 455.27-7.09L455.27-7.09L455.27-7.09Q456.21-4.63 456.97-1.79L456.97-1.79L456.97-1.79Q457.73 1.05 458.29 4.04L458.29 4.04L458.29 4.04Q458.85 7.03 459.14 10.02L459.14 10.02L459.14 10.02Q459.43 13.01 459.43 15.82L459.43 15.82L459.43 15.82Q459.43 19.57 458.82 22.79L458.82 22.79L458.82 22.79Q458.20 26.02 457.00 28.39L457.00 28.39L457.00 28.39Q455.80 30.76 454.01 32.11L454.01 32.11L454.01 32.11Q452.23 33.46 449.82 33.46L449.82 33.46L449.82 33.46Q446.60 33.46 444.35 31.90L444.35 31.90L444.35 31.90Q442.09 30.35 440.57 27.77L440.57 27.77L440.57 27.77Q439.04 25.20 438.16 21.94L438.16 21.94L438.16 21.94Q437.29 18.69 436.85 15.29L436.85 15.29L436.85 15.29Q436.41 11.89 436.29 8.64L436.29 8.64L436.29 8.64Q436.17 5.39 436.17 2.87L436.17 2.87L436.17 2.87Q436.17-2.93 436.70-10.14L436.70-10.14L436.70-10.14Q437.23-17.34 438.11-24.90L438.11-24.90L438.11-24.90Q438.98-32.46 440.07-39.87L440.07-39.87L440.07-39.87Q441.15-47.29 442.24-53.58L442.24-53.58L442.24-53.58Q443.32-59.88 444.32-64.57L444.32-64.57L444.32-64.57Q445.31-69.26 446.02-71.31L446.02-71.31L446.02-71.31Q446.48-72.77 447.28-74.30L447.28-74.30L447.28-74.30Q448.07-75.82 449.18-77.05L449.18-77.05L449.18-77.05Q450.29-78.28 451.73-79.04L451.73-79.04L451.73-79.04Q453.16-79.80 455.04-79.80L455.04-79.80L455.04-79.80Q458.26-79.80 460.17-77.70L460.17-77.70L460.17-77.70Q462.07-75.59 462.07-71.89ZM448.89-67.09L448.89-67.09L448.89-67.09Q448.59-65.57 448.10-62.49L448.10-62.49L448.10-62.49Q447.60-59.41 447.04-55.22L447.04-55.22L447.04-55.22Q446.48-51.04 445.84-45.97L445.84-45.97L445.84-45.97Q445.20-40.90 444.55-35.51L444.55-35.51L444.55-35.51Q447.77-41.02 450.53-46.03L450.53-46.03L450.53-46.03Q453.28-51.04 455.30-55.58L455.30-55.58L455.30-55.58Q457.32-60.12 458.50-64.13L458.50-64.13L458.50-64.13Q459.67-68.14 459.67-71.78L459.67-71.78L459.67-71.78Q459.67-74.12 458.64-75.82L458.64-75.82L458.64-75.82Q457.62-77.52 455.27-77.52L455.27-77.52L455.27-77.52Q453.57-77.52 452.43-76.35L452.43-76.35L452.43-76.35Q451.29-75.18 450.59-73.54L450.59-73.54L450.59-73.54Q449.88-71.89 449.50-70.11L449.50-70.11L449.50-70.11Q449.12-68.32 448.89-67.09ZM446.95-11.66L446.95-11.66L446.95-11.66Q446.95-10.55 448.33-9.58L448.33-9.58L448.33-9.58Q449.71-8.61 451.52-8.50L451.52-8.50L451.52-8.50Q450.70-10.72 449.85-11.89L449.85-11.89L449.85-11.89Q449.00-13.07 448.18-13.07L448.18-13.07L448.18-13.07Q447.71-13.07 447.33-12.71L447.33-12.71L447.33-12.71Q446.95-12.36 446.95-11.66ZM490.02-71.89L490.02-71.89L490.02-71.89Q490.02-67.44 488.41-62.40L488.41-62.40L488.41-62.40Q486.80-57.36 484.22-51.97L484.22-51.97L484.22-51.97Q481.64-46.58 478.39-40.99L478.39-40.99L478.39-40.99Q475.14-35.39 471.91-29.88L471.91-29.88L471.91-29.88Q471.27-24.43 470.71-19.04L470.71-19.04L470.71-19.04Q470.16-13.65 469.78-8.82L469.78-8.82L469.78-8.82Q469.39-3.98 469.16 0.06L469.16 0.06L469.16 0.06Q468.93 4.10 468.93 6.86L468.93 6.86L468.93 6.86Q468.93 12.48 469.48 16.96L469.48 16.96L469.48 16.96Q470.04 21.45 471.18 24.58L471.18 24.58L471.18 24.58Q472.32 27.71 473.99 29.38L473.99 29.38L473.99 29.38Q475.66 31.05 477.95 31.05L477.95 31.05L477.95 31.05Q479.24 31.05 480.12 30.23L480.12 30.23L480.12 30.23Q481.00 29.41 481.58 28.13L481.58 28.13L481.58 28.13Q482.17 26.84 482.46 25.20L482.46 25.20L482.46 25.20Q482.75 23.55 482.90 21.91L482.90 21.91L482.90 21.91Q483.05 20.27 483.08 18.81L483.08 18.81L483.08 18.81Q483.11 17.34 483.11 16.35L483.11 16.35L483.11 16.35Q483.11 9.79 482.23 3.84L482.23 3.84L482.23 3.84Q481.35-2.11 480.06-6.39L480.06-6.39L479.59-6.39L479.59-6.39Q478.18-6.39 476.92-6.77L476.92-6.77L476.92-6.77Q475.66-7.15 474.67-7.85L474.67-7.85L474.67-7.85Q473.67-8.55 473.09-9.49L473.09-9.49L473.09-9.49Q472.50-10.43 472.50-11.54L472.50-11.54L472.50-11.54Q472.50-13.13 473.47-14.24L473.47-14.24L473.47-14.24Q474.43-15.35 475.90-15.35L475.90-15.35L475.90-15.35Q477.71-15.35 479.36-13.62L479.36-13.62L479.36-13.62Q481.00-11.89 482.34-9.02L482.34-9.02L482.34-9.02Q484.69-9.96 486.65-12.30L486.65-12.30L486.65-12.30Q488.61-14.65 490.20-17.55L490.20-17.55L490.20-17.55Q491.78-20.45 492.98-23.44L492.98-23.44L492.98-23.44Q494.18-26.43 495.06-28.65L495.06-28.65L497.34-28.07L497.34-28.07Q496.41-25.55 495.12-22.35L495.12-22.35L495.12-22.35Q493.83-19.16 492.13-16.14L492.13-16.14L492.13-16.14Q490.43-13.13 488.23-10.63L488.23-10.63L488.23-10.63Q486.04-8.14 483.22-7.09L483.22-7.09L483.22-7.09Q484.16-4.63 484.92-1.79L484.92-1.79L484.92-1.79Q485.68 1.05 486.24 4.04L486.24 4.04L486.24 4.04Q486.80 7.03 487.09 10.02L487.09 10.02L487.09 10.02Q487.38 13.01 487.38 15.82L487.38 15.82L487.38 15.82Q487.38 19.57 486.77 22.79L486.77 22.79L486.77 22.79Q486.15 26.02 484.95 28.39L484.95 28.39L484.95 28.39Q483.75 30.76 481.96 32.11L481.96 32.11L481.96 32.11Q480.18 33.46 477.77 33.46L477.77 33.46L477.77 33.46Q474.55 33.46 472.29 31.90L472.29 31.90L472.29 31.90Q470.04 30.35 468.52 27.77L468.52 27.77L468.52 27.77Q466.99 25.20 466.11 21.94L466.11 21.94L466.11 21.94Q465.23 18.69 464.79 15.29L464.79 15.29L464.79 15.29Q464.36 11.89 464.24 8.64L464.24 8.64L464.24 8.64Q464.12 5.39 464.12 2.87L464.12 2.87L464.12 2.87Q464.12-2.93 464.65-10.14L464.65-10.14L464.65-10.14Q465.18-17.34 466.05-24.90L466.05-24.90L466.05-24.90Q466.93-32.46 468.02-39.87L468.02-39.87L468.02-39.87Q469.10-47.29 470.19-53.58L470.19-53.58L470.19-53.58Q471.27-59.88 472.27-64.57L472.27-64.57L472.27-64.57Q473.26-69.26 473.96-71.31L473.96-71.31L473.96-71.31Q474.43-72.77 475.22-74.30L475.22-74.30L475.22-74.30Q476.02-75.82 477.13-77.05L477.13-77.05L477.13-77.05Q478.24-78.28 479.68-79.04L479.68-79.04L479.68-79.04Q481.11-79.80 482.99-79.80L482.99-79.80L482.99-79.80Q486.21-79.80 488.12-77.70L488.12-77.70L488.12-77.70Q490.02-75.59 490.02-71.89ZM476.84-67.09L476.84-67.09L476.84-67.09Q476.54-65.57 476.04-62.49L476.04-62.49L476.04-62.49Q475.55-59.41 474.99-55.22L474.99-55.22L474.99-55.22Q474.43-51.04 473.79-45.97L473.79-45.97L473.79-45.97Q473.14-40.90 472.50-35.51L472.50-35.51L472.50-35.51Q475.72-41.02 478.48-46.03L478.48-46.03L478.48-46.03Q481.23-51.04 483.25-55.58L483.25-55.58L483.25-55.58Q485.27-60.12 486.45-64.13L486.45-64.13L486.45-64.13Q487.62-68.14 487.62-71.78L487.62-71.78L487.62-71.78Q487.62-74.12 486.59-75.82L486.59-75.82L486.59-75.82Q485.57-77.52 483.22-77.52L483.22-77.52L483.22-77.52Q481.52-77.52 480.38-76.35L480.38-76.35L480.38-76.35Q479.24-75.18 478.54-73.54L478.54-73.54L478.54-73.54Q477.83-71.89 477.45-70.11L477.45-70.11L477.45-70.11Q477.07-68.32 476.84-67.09ZM474.90-11.66L474.90-11.66L474.90-11.66Q474.90-10.55 476.28-9.58L476.28-9.58L476.28-9.58Q477.66-8.61 479.47-8.50L479.47-8.50L479.47-8.50Q478.65-10.72 477.80-11.89L477.80-11.89L477.80-11.89Q476.95-13.07 476.13-13.07L476.13-13.07L476.13-13.07Q475.66-13.07 475.28-12.71L475.28-12.71L475.28-12.71Q474.90-12.36 474.90-11.66ZM517.50-13.54L517.50-13.54L517.50-13.54Q515.68-10.25 513.98-8.09L513.98-8.09L513.98-8.09Q512.29-5.92 510.62-4.63L510.62-4.63L510.62-4.63Q508.95-3.34 507.25-2.81L507.25-2.81L507.25-2.81Q505.55-2.29 503.73-2.29L503.73-2.29L503.73-2.29Q502.27-2.29 500.39-2.75L500.39-2.75L500.39-2.75Q498.52-3.22 496.85-4.72L496.85-4.72L496.85-4.72Q495.18-6.21 494.03-9.02L494.03-9.02L494.03-9.02Q492.89-11.84 492.89-16.58L492.89-16.58L492.89-16.58Q492.89-21.33 494.00-25.52L494.00-25.52L494.00-25.52Q495.12-29.71 496.46-32.87L496.46-32.87L496.46-32.87Q498.05-36.50 500.10-39.61L500.10-39.61L502.27-38.91L502.27-38.91Q502.21-38.85 501.88-37.85L501.88-37.85L501.88-37.85Q501.56-36.86 501.06-35.16L501.06-35.16L501.06-35.16Q500.57-33.46 500.01-31.23L500.01-31.23L500.01-31.23Q499.45-29.00 498.96-26.51L498.96-26.51L498.96-26.51Q498.46-24.02 498.13-21.45L498.13-21.45L498.13-21.45Q497.81-18.87 497.81-16.46L497.81-16.46L497.81-16.46Q497.81-10.96 499.78-7.76L499.78-7.76L499.78-7.76Q501.74-4.57 504.90-4.57L504.90-4.57L504.90-4.57Q508.42-4.57 511.70-8.64L511.70-8.64L511.70-8.64Q514.98-12.71 517.97-20.04L517.97-20.04L517.97-20.04Q518.50-23.44 519.40-26.37L519.40-26.37L519.40-26.37Q520.31-29.30 521.22-31.58L521.22-31.58L521.22-31.58Q522.13-33.87 522.89-35.39L522.89-35.39L522.89-35.39Q523.65-36.91 524.00-37.44L524.00-37.44L526.05-36.97L526.05-36.97Q525.12-32.58 524.44-29.09L524.44-29.09L524.44-29.09Q523.77-25.61 523.36-22.79L523.36-22.79L523.36-22.79Q522.95-19.98 522.74-17.78L522.74-17.78L522.74-17.78Q522.54-15.59 522.54-13.83L522.54-13.83L522.54-13.83Q522.54-10.31 523.65-8.20L523.65-8.20L523.65-8.20Q524.77-6.09 527.11-6.09L527.11-6.09L527.11-6.09Q528.69-6.09 530.16-7.27L530.16-7.27L530.16-7.27Q531.62-8.44 533.20-11.13L533.20-11.13L533.20-11.13Q534.79-13.83 536.54-18.11L536.54-18.11L536.54-18.11Q538.30-22.38 540.53-28.65L540.53-28.65L542.81-28.07L542.81-28.07Q541.82-25.61 540.82-22.79L540.82-22.79L540.82-22.79Q539.82-19.98 538.68-17.17L538.68-17.17L538.68-17.17Q537.54-14.36 536.28-11.78L536.28-11.78L536.28-11.78Q535.02-9.20 533.47-7.21L533.47-7.21L533.47-7.21Q531.91-5.21 530.10-4.04L530.10-4.04L530.10-4.04Q528.28-2.87 526.05-2.87L526.05-2.87L526.05-2.87Q523.95-2.87 522.36-3.69L522.36-3.69L522.36-3.69Q520.78-4.51 519.70-5.92L519.70-5.92L519.70-5.92Q518.61-7.32 518.06-9.29L518.06-9.29L518.06-9.29Q517.50-11.25 517.50-13.54ZM544.75-33.11L544.75-33.11L544.75-33.11Q544.10-31.41 543.49-29.77L543.49-29.77L543.49-29.77Q542.87-28.13 542.14-26.48L542.14-26.48L542.14-26.48Q541.41-24.84 540.41-23.26L540.41-23.26L540.41-23.26Q539.41-21.68 538.01-20.04L538.01-20.04L537.54-20.51L537.54-20.51Q539.06-24.20 540.23-28.07L540.23-28.07L540.23-28.07Q541.41-31.93 542.58-36.74L542.58-36.74L542.58-36.74Q542.29-37.56 542.05-38.14L542.05-38.14L542.05-38.14Q541.82-38.73 541.64-39.23L541.64-39.23L541.64-39.23Q541.46-39.73 541.35-40.28L541.35-40.28L541.35-40.28Q541.23-40.84 541.23-41.54L541.23-41.54L541.23-41.54Q541.23-42.48 541.49-43.62L541.49-43.62L541.49-43.62Q541.76-44.77 542.26-45.76L542.26-45.76L542.26-45.76Q542.75-46.76 543.40-47.43L543.40-47.43L543.40-47.43Q544.04-48.11 544.75-48.11L544.75-48.11L544.75-48.11Q545.57-48.11 546.06-47.72L546.06-47.72L546.06-47.72Q546.56-47.34 546.86-46.76L546.86-46.76L546.86-46.76Q547.15-46.17 547.27-45.53L547.27-45.53L547.27-45.53Q547.38-44.88 547.38-44.30L547.38-44.30L547.38-44.30Q547.38-43.42 547.18-42.28L547.18-42.28L547.18-42.28Q546.97-41.13 546.71-40.05L546.71-40.05L546.71-40.05Q546.45-38.96 546.24-38.14L546.24-38.14L546.24-38.14Q546.04-37.32 546.04-37.09L546.04-37.09L546.04-37.09Q546.50-35.51 547.65-33.87L547.65-33.87L547.65-33.87Q548.79-32.23 550.25-30.53L550.25-30.53L550.25-30.53Q551.72-28.83 553.33-26.98L553.33-26.98L553.33-26.98Q554.94-25.14 556.26-23.09L556.26-23.09L556.26-23.09Q557.58-21.04 558.43-18.72L558.43-18.72L558.43-18.72Q559.28-16.41 559.28-13.83L559.28-13.83L559.28-13.83Q559.28-10.14 558.19-7.85L558.19-7.85L558.19-7.85Q557.11-5.57 555.29-4.34L555.29-4.34L555.29-4.34Q557.93-5.39 560.24-8.09L560.24-8.09L560.24-8.09Q562.56-10.78 564.52-14.27L564.52-14.27L564.52-14.27Q566.48-17.75 568.15-21.56L568.15-21.56L568.15-21.56Q569.82-25.37 571.11-28.65L571.11-28.65L573.40-28.07L573.40-28.07Q571.41-22.97 569.18-18.11L569.18-18.11L569.18-18.11Q566.95-13.24 564.14-9.43L564.14-9.43L564.14-9.43Q561.33-5.63 557.78-3.28L557.78-3.28L557.78-3.28Q554.24-0.94 549.67-0.94L549.67-0.94L549.67-0.94Q548.44-0.94 547.18-1.14L547.18-1.14L547.18-1.14Q545.92-1.35 544.72-1.79L544.72-1.79L544.72-1.79Q543.52-2.23 542.46-2.99L542.46-2.99L542.46-2.99Q541.41-3.75 540.64-4.80L540.64-4.80L542.58-6.09L542.58-6.09Q543.11-5.27 544.22-4.57L544.22-4.57L544.22-4.57Q545.33-3.87 547.15-3.87L547.15-3.87L547.15-3.87Q548.91-3.87 550.22-4.60L550.22-4.60L550.22-4.60Q551.54-5.33 552.45-6.59L552.45-6.59L552.45-6.59Q553.36-7.85 553.80-9.55L553.80-9.55L553.80-9.55Q554.24-11.25 554.24-13.18L554.24-13.18L554.24-13.18Q554.24-17.17 553.10-20.04L553.10-20.04L553.10-20.04Q551.95-22.91 550.40-25.17L550.40-25.17L550.40-25.17Q548.85-27.42 547.24-29.30L547.24-29.30L547.24-29.30Q545.63-31.17 544.75-33.11ZM577.85-6.09L577.85-6.09L577.85-6.09Q574.16-6.09 571.73-9.08L571.73-9.08L571.73-9.08Q569.30-12.07 569.30-18.11L569.30-18.11L569.30-18.11Q569.30-22.09 570.91-28.27L570.91-28.27L570.91-28.27Q572.52-34.45 576.50-42.25L576.50-42.25L578.67-41.66L578.67-41.66Q578.32-40.14 577.53-37.50L577.53-37.50L577.53-37.50Q576.74-34.86 575.95-31.61L575.95-31.61L575.95-31.61Q575.16-28.36 574.57-24.81L574.57-24.81L574.57-24.81Q573.98-21.27 573.98-17.99L573.98-17.99L573.98-17.99Q573.98-15.23 574.39-13.51L574.39-13.51L574.39-13.51Q574.80-11.78 575.48-10.81L575.48-10.81L575.48-10.81Q576.15-9.84 577.06-9.49L577.06-9.49L577.06-9.49Q577.97-9.14 579.02-9.14L579.02-9.14L579.02-9.14Q580.72-9.14 582.25-10.20L582.25-10.20L582.25-10.20Q583.77-11.25 585.15-12.98L585.15-12.98L585.15-12.98Q586.52-14.71 587.72-16.85L587.72-16.85L587.72-16.85Q588.93-18.98 589.89-21.15L589.89-21.15L589.89-21.15Q590.86-23.32 591.62-25.28L591.62-25.28L591.62-25.28Q592.38-27.25 592.85-28.65L592.85-28.65L595.14-28.07L595.14-28.07Q594.49-26.31 593.64-23.99L593.64-23.99L593.64-23.99Q592.79-21.68 591.71-19.22L591.71-19.22L591.71-19.22Q590.63-16.76 589.28-14.41L589.28-14.41L589.28-14.41Q587.93-12.07 586.23-10.22L586.23-10.22L586.23-10.22Q584.53-8.38 582.45-7.24L582.45-7.24L582.45-7.24Q580.37-6.09 577.85-6.09ZM587.34-60.70L587.34-60.70L587.34-60.70Q587.34-58.65 585.76-57.54L585.76-57.54L585.76-57.54Q584.18-56.43 581.78-56.43L581.78-56.43L581.78-56.43Q580.55-56.43 579.46-56.81L579.46-56.81L579.46-56.81Q578.38-57.19 577.59-57.80L577.59-57.80L577.59-57.80Q576.80-58.42 576.36-59.27L576.36-59.27L576.36-59.27Q575.92-60.12 575.92-61.05L575.92-61.05L575.92-61.05Q575.92-63.05 577.47-64.28L577.47-64.28L577.47-64.28Q579.02-65.51 581.07-65.51L581.07-65.51L581.07-65.51Q582.54-65.51 583.71-65.07L583.71-65.07L583.71-65.07Q584.88-64.63 585.70-63.93L585.70-63.93L585.70-63.93Q586.52-63.22 586.93-62.37L586.93-62.37L586.93-62.37Q587.34-61.52 587.34-60.70ZM584.18-60.70L584.18-60.70L584.18-60.70Q584.18-61.29 583.68-61.79L583.68-61.79L583.68-61.79Q583.18-62.29 582.19-62.29L582.19-62.29L582.19-62.29Q580.37-62.29 580.37-60.94L580.37-60.94L580.37-60.94Q580.37-60.29 580.93-59.85L580.93-59.85L580.93-59.85Q581.48-59.41 582.42-59.41L582.42-59.41L582.42-59.41Q583.30-59.41 583.74-59.79L583.74-59.79L583.74-59.79Q584.18-60.18 584.18-60.70ZM607.50-5.27L607.50-5.27L607.50-5.27Q610.78-5.27 613.80-7.68L613.80-7.68L613.80-7.68Q616.82-10.08 618.52-14.65L618.52-14.65L618.05-14.65L618.05-14.65Q614.41-14.65 611.34-15.88L611.34-15.88L611.34-15.88Q608.26-17.11 606.01-19.31L606.01-19.31L606.01-19.31Q603.75-21.50 602.46-24.58L602.46-24.58L602.46-24.58Q601.17-27.66 601.17-31.35L601.17-31.35L601.17-31.35Q601.17-33.40 601.73-35.51L601.73-35.51L601.73-35.51Q602.29-37.62 603.46-39.29L603.46-39.29L603.46-39.29Q604.63-40.96 606.50-42.01L606.50-42.01L606.50-42.01Q608.38-43.07 610.96-43.07L610.96-43.07L610.96-43.07Q613.07-43.07 615.12-42.22L615.12-42.22L615.12-42.22Q617.17-41.37 618.81-39.32L618.81-39.32L618.81-39.32Q620.45-37.27 621.47-33.78L621.47-33.78L621.47-33.78Q622.50-30.29 622.50-24.96L622.50-24.96L622.50-24.96Q622.50-22.97 622.32-21.01L622.32-21.01L622.32-21.01Q622.15-19.04 621.68-17.17L621.68-17.17L621.68-17.17Q623.96-17.58 625.75-18.63L625.75-18.63L625.75-18.63Q627.54-19.69 628.92-21.18L628.92-21.18L628.92-21.18Q630.29-22.68 631.35-24.58L631.35-24.58L631.35-24.58Q632.40-26.48 633.28-28.65L633.28-28.65L635.57-28.07L635.57-28.07Q634.34-24.73 632.72-22.38L632.72-22.38L632.72-22.38Q631.11-20.04 629.27-18.46L629.27-18.46L629.27-18.46Q627.42-16.88 625.40-16.03L625.40-16.03L625.40-16.03Q623.38-15.18 621.21-14.88L621.21-14.88L621.21-14.88Q620.39-12.01 619.04-9.49L619.04-9.49L619.04-9.49Q617.70-6.97 615.76-5.10L615.76-5.10L615.76-5.10Q613.83-3.22 611.28-2.14L611.28-2.14L611.28-2.14Q608.73-1.05 605.57-1.05L605.57-1.05L605.57-1.05Q602.93-1.05 600.26-2.14L600.26-2.14L600.26-2.14Q597.60-3.22 595.46-5.48L595.46-5.48L595.46-5.48Q593.32-7.73 592.00-11.16L592.00-11.16L592.00-11.16Q590.68-14.59 590.68-19.34L590.68-19.34L590.68-19.34Q590.68-22.44 591.42-25.43L591.42-25.43L591.42-25.43Q592.15-28.42 593.47-31.08L593.47-31.08L593.47-31.08Q594.79-33.75 596.60-36.06L596.60-36.06L596.60-36.06Q598.42-38.38 600.53-40.08L600.53-40.08L601.41-38.61L601.41-38.61Q600.06-37.38 598.83-35.57L598.83-35.57L598.83-35.57Q597.60-33.75 596.60-31.55L596.60-31.55L596.60-31.55Q595.61-29.36 595.02-26.92L595.02-26.92L595.02-26.92Q594.43-24.49 594.43-22.09L594.43-22.09L594.43-22.09Q594.43-17.34 595.63-14.12L595.63-14.12L595.63-14.12Q596.84-10.90 598.71-8.94L598.71-8.94L598.71-8.94Q600.59-6.97 602.93-6.12L602.93-6.12L602.93-6.12Q605.27-5.27 607.50-5.27ZM610.84-40.78L610.84-40.78L610.84-40.78Q609.26-40.78 607.91-40.11L607.91-40.11L607.91-40.11Q606.56-39.43 605.57-38.26L605.57-38.26L605.57-38.26Q604.57-37.09 603.98-35.45L603.98-35.45L603.98-35.45Q603.40-33.81 603.40-31.82L603.40-31.82L603.40-31.82Q603.40-28.36 604.57-25.61L604.57-25.61L604.57-25.61Q605.74-22.85 607.76-20.92L607.76-20.92L607.76-20.92Q609.79-18.98 612.48-17.96L612.48-17.96L612.48-17.96Q615.18-16.93 618.28-16.93L618.28-16.93L619.39-16.93L619.39-16.93Q619.86-18.75 620.04-20.74L620.04-20.74L620.04-20.74Q620.21-22.73 620.21-25.08L620.21-25.08L620.21-25.08Q620.10-29.59 619.31-32.61L619.31-32.61L619.31-32.61Q618.52-35.63 617.29-37.44L617.29-37.44L617.29-37.44Q616.05-39.26 614.38-40.02L614.38-40.02L614.38-40.02Q612.71-40.78 610.84-40.78ZM635.57-28.07L633.28-28.65L633.28-28.65Q634.16-30.94 635.19-33.02L635.19-33.02L635.19-33.02Q636.21-35.10 637.38-36.68L637.38-36.68L637.38-36.68Q638.55-38.26 639.93-39.23L639.93-39.23L639.93-39.23Q641.31-40.20 643.01-40.20L643.01-40.20L643.01-40.20Q643.83-40.20 644.88-39.84L644.88-39.84L644.88-39.84Q645.94-39.49 646.90-38.44L646.90-38.44L646.90-38.44Q647.87-37.38 648.52-35.39L648.52-35.39L648.52-35.39Q649.16-33.40 649.16-30.12L649.16-30.12L649.16-30.12Q649.16-28.42 648.98-26.37L648.98-26.37L648.98-26.37Q648.81-24.32 648.63-22.32L648.63-22.32L648.63-22.32Q650.45-26.19 652.24-28.86L652.24-28.86L652.24-28.86Q654.02-31.52 655.75-33.13L655.75-33.13L655.75-33.13Q657.48-34.75 659.18-35.48L659.18-35.48L659.18-35.48Q660.88-36.21 662.58-36.21L662.58-36.21L662.58-36.21Q663.34-36.21 664.37-35.86L664.37-35.86L664.37-35.86Q665.39-35.51 666.30-34.63L666.30-34.63L666.30-34.63Q667.21-33.75 667.82-32.23L667.82-32.23L667.82-32.23Q668.44-30.70 668.44-28.30L668.44-28.30L668.44-28.30Q668.44-26.37 668.14-24.43L668.14-24.43L668.14-24.43Q667.85-22.50 667.50-20.68L667.50-20.68L667.50-20.68Q667.15-18.87 666.86-17.26L666.86-17.26L666.86-17.26Q666.56-15.64 666.56-14.41L666.56-14.41L666.56-14.41Q666.56-11.48 667.62-9.93L667.62-9.93L667.62-9.93Q668.67-8.38 670.84-8.38L670.84-8.38L670.84-8.38Q672.60-8.38 674.18-9.70L674.18-9.70L674.18-9.70Q675.76-11.02 677.14-13.07L677.14-13.07L677.14-13.07Q678.52-15.12 679.66-17.58L679.66-17.58L679.66-17.58Q680.80-20.04 681.65-22.29L681.65-22.29L681.65-22.29Q682.50-24.55 683.09-26.28L683.09-26.28L683.09-26.28Q683.67-28.01 683.91-28.65L683.91-28.65L686.19-28.07L686.19-28.07Q685.37-26.02 684.46-23.53L684.46-23.53L684.46-23.53Q683.55-21.04 682.44-18.52L682.44-18.52L682.44-18.52Q681.33-16.00 680.04-13.62L680.04-13.62L680.04-13.62Q678.75-11.25 677.17-9.43L677.17-9.43L677.17-9.43Q675.59-7.62 673.74-6.50L673.74-6.50L673.74-6.50Q671.89-5.39 669.67-5.39L669.67-5.39L669.67-5.39Q667.79-5.39 666.42-6.12L666.42-6.12L666.42-6.12Q665.04-6.86 664.10-8.09L664.10-8.09L664.10-8.09Q663.16-9.32 662.70-11.02L662.70-11.02L662.70-11.02Q662.23-12.71 662.23-14.65L662.23-14.65L662.23-14.65Q662.23-16.82 662.61-19.10L662.61-19.10L662.61-19.10Q662.99-21.39 663.43-23.50L663.43-23.50L663.43-23.50Q663.87-25.61 664.25-27.39L664.25-27.39L664.25-27.39Q664.63-29.18 664.63-30.35L664.63-30.35L664.63-30.35Q664.63-32.17 663.93-33.08L663.93-33.08L663.93-33.08Q663.22-33.98 661.99-33.98L661.99-33.98L661.99-33.98Q660.29-33.98 658.68-32.75L658.68-32.75L658.68-32.75Q657.07-31.52 655.58-29.47L655.58-29.47L655.58-29.47Q654.08-27.42 652.73-24.79L652.73-24.79L652.73-24.79Q651.39-22.15 650.24-19.37L650.24-19.37L650.24-19.37Q649.10-16.58 648.13-13.83L648.13-13.83L648.13-13.83Q647.17-11.07 646.46-8.85L646.46-8.85L646.46-8.85Q645.76-6.62 645.26-5.07L645.26-5.07L645.26-5.07Q644.77-3.52 644.59-3.11L644.59-3.11L641.19-3.69L641.19-3.69Q641.89-7.15 642.48-10.99L642.48-10.99L642.48-10.99Q643.07-14.82 643.51-18.54L643.51-18.54L643.51-18.54Q643.95-22.27 644.21-25.66L644.21-25.66L644.21-25.66Q644.47-29.06 644.47-31.70L644.47-31.70L644.47-31.70Q644.47-35.27 644.00-36.53L644.00-36.53L644.00-36.53Q643.54-37.79 642.30-37.79L642.30-37.79L642.30-37.79Q641.25-37.79 640.31-37.00L640.31-37.00L640.31-37.00Q639.38-36.21 638.58-34.89L638.58-34.89L638.58-34.89Q637.79-33.57 637.03-31.82L637.03-31.82L637.03-31.82Q636.27-30.06 635.57-28.07L635.57-28.07Z" fill="url(#editing-shiny-gradient)"></path></g></g><g filter="url(#editing-shiny2)"><g transform="translate(-93.77001345157623, 134.56000137329102)"><path d="M3.46 3.22L1.35 2.29L1.35 2.29Q11.25-18.40 21.04-38.67L21.04-38.67L21.04-38.67Q30.82-58.95 40.90-79.57L40.90-79.57L43.07-78.57L43.07-78.57Q32.17-55.90 22.32-35.51L22.32-35.51L22.32-35.51Q12.48-15.12 3.46 3.22L3.46 3.22ZM59.30-60.82L59.30-60.82L59.30-60.82Q59.30-57.54 60.64-54.93L60.64-54.93L60.64-54.93Q61.99-52.32 64.28-50.19L64.28-50.19L64.28-50.19Q66.56-48.05 69.64-46.26L69.64-46.26L69.64-46.26Q72.71-44.47 76.17-42.80L76.17-42.80L76.17-42.80Q79.63-41.13 83.29-39.52L83.29-39.52L83.29-39.52Q86.95-37.91 90.41-36.12L90.41-36.12L90.41-36.12Q93.87-34.34 96.94-32.26L96.94-32.26L96.94-32.26Q100.02-30.18 102.30-27.63L102.30-27.63L102.30-27.63Q104.59-25.08 105.94-21.94L105.94-21.94L105.94-21.94Q107.29-18.81 107.29-14.88L107.29-14.88L107.29-14.88Q107.29-7.73 104.59-2.49L104.59-2.49L104.59-2.49Q101.89 2.75 97.38 6.18L97.38 6.18L97.38 6.18Q92.87 9.61 86.89 11.28L86.89 11.28L86.89 11.28Q80.92 12.95 74.41 12.95L74.41 12.95L74.41 12.95Q68.67 12.95 63.57 11.46L63.57 11.46L63.57 11.46Q58.48 9.96 54.61 7.29L54.61 7.29L54.61 7.29Q50.74 4.63 48.49 0.91L48.49 0.91L48.49 0.91Q46.23-2.81 46.23-7.21L46.23-7.21L46.23-7.21Q46.23-11.07 47.43-13.80L47.43-13.80L47.43-13.80Q48.63-16.52 50.07-18.28L50.07-18.28L50.07-18.28Q51.50-20.04 52.79-20.86L52.79-20.86L52.79-20.86Q54.08-21.68 54.26-21.74L54.26-21.74L55.55-18.98L55.55-18.98Q55.43-18.93 54.43-18.25L54.43-18.25L54.43-18.25Q53.44-17.58 52.29-16.17L52.29-16.17L52.29-16.17Q51.15-14.77 50.19-12.57L50.19-12.57L50.19-12.57Q49.22-10.37 49.22-7.21L49.22-7.21L49.22-7.21Q49.22-4.04 50.42-1.55L50.42-1.55L50.42-1.55Q51.62 0.94 53.64 2.81L53.64 2.81L53.64 2.81Q55.66 4.69 58.27 6.04L58.27 6.04L58.27 6.04Q60.88 7.38 63.69 8.23L63.69 8.23L63.69 8.23Q66.50 9.08 69.32 9.46L69.32 9.46L69.32 9.46Q72.13 9.84 74.53 9.84L74.53 9.84L74.53 9.84Q80.74 9.84 85.78 8.29L85.78 8.29L85.78 8.29Q90.82 6.74 94.37 4.01L94.37 4.01L94.37 4.01Q97.91 1.29 99.84-2.31L99.84-2.31L99.84-2.31Q101.78-5.92 101.78-10.08L101.78-10.08L101.78-10.08Q101.78-14.77 99.79-18.16L99.79-18.16L99.79-18.16Q97.79-21.56 94.51-24.17L94.51-24.17L94.51-24.17Q91.23-26.78 87.04-28.86L87.04-28.86L87.04-28.86Q82.85-30.94 78.49-32.93L78.49-32.93L78.49-32.93Q74.12-34.92 69.93-37.12L69.93-37.12L69.93-37.12Q65.74-39.32 62.46-42.19L62.46-42.19L62.46-42.19Q59.18-45.06 57.19-48.84L57.19-48.84L57.19-48.84Q55.20-52.62 55.20-57.83L55.20-57.83L55.20-57.83Q55.20-63.63 57.16-68.44L57.16-68.44L57.16-68.44Q59.12-73.24 62.55-76.73L62.55-76.73L62.55-76.73Q65.98-80.21 70.61-82.12L70.61-82.12L70.61-82.12Q75.23-84.02 80.63-84.02L80.63-84.02L80.63-84.02Q86.07-84.02 90.18-82.76L90.18-82.76L90.18-82.76Q94.28-81.50 97.06-79.25L97.06-79.25L97.06-79.25Q99.84-76.99 101.22-73.83L101.22-73.83L101.22-73.83Q102.60-70.66 102.60-66.86L102.60-66.86L102.60-66.86Q102.60-63.75 101.87-60.79L101.87-60.79L101.87-60.79Q101.13-57.83 100.25-55.49L100.25-55.49L100.25-55.49Q99.38-53.14 98.61-51.68L98.61-51.68L98.61-51.68Q97.85-50.21 97.79-50.04L97.79-50.04L95.16-51.50L95.16-51.50Q95.16-51.56 95.83-52.91L95.83-52.91L95.83-52.91Q96.50-54.26 97.32-56.43L97.32-56.43L97.32-56.43Q98.14-58.59 98.82-61.32L98.82-61.32L98.82-61.32Q99.49-64.04 99.49-66.86L99.49-66.86L99.49-66.86Q99.49-70.02 98.35-72.63L98.35-72.63L98.35-72.63Q97.21-75.23 94.86-77.05L94.86-77.05L94.86-77.05Q92.52-78.87 88.95-79.86L88.95-79.86L88.95-79.86Q85.37-80.86 80.51-80.86L80.51-80.86L80.51-80.86Q76.00-80.86 72.13-79.37L72.13-79.37L72.13-79.37Q68.26-77.87 65.42-75.18L65.42-75.18L65.42-75.18Q62.58-72.48 60.94-68.82L60.94-68.82L60.94-68.82Q59.30-65.16 59.30-60.82ZM104.30-47.17L105.23-49.34L105.23-49.34Q106.11-48.81 107.34-48.11L107.34-48.11L107.34-48.11Q108.57-47.40 110.21-46.76L110.21-46.76L110.21-46.76Q111.86-46.11 113.88-45.56L113.88-45.56L113.88-45.56Q115.90-45 118.30-44.77L118.30-44.77L118.30-44.77Q119.12-50.04 120.41-54.29L120.41-54.29L120.41-54.29Q121.70-58.54 123.25-61.55L123.25-61.55L123.25-61.55Q124.80-64.57 126.47-66.18L126.47-66.18L126.47-66.18Q128.14-67.79 129.73-67.79L129.73-67.79L129.73-67.79Q131.54-67.79 132.30-66.39L132.30-66.39L132.30-66.39Q133.07-64.98 133.07-62.64L133.07-62.64L133.07-62.64Q133.07-60.94 132.71-58.89L132.71-58.89L132.71-58.89Q132.36-56.84 131.78-54.52L131.78-54.52L131.78-54.52Q131.19-52.21 130.37-49.72L130.37-49.72L130.37-49.72Q129.55-47.23 128.67-44.77L128.67-44.77L128.67-44.77Q134.53-45.29 139.48-46.70L139.48-46.70L139.48-46.70Q144.43-48.11 148.07-49.57L148.07-49.57L149.18-47.40L149.18-47.40Q144.38-45.59 139.22-44.15L139.22-44.15L139.22-44.15Q134.06-42.71 127.68-42.36L127.68-42.36L127.68-42.36Q126.21-38.55 124.66-35.13L124.66-35.13L124.66-35.13Q123.11-31.70 121.82-29.18L121.82-29.18L121.82-29.18Q121.88-25.90 122.20-22.06L122.20-22.06L122.20-22.06Q122.52-18.22 123.49-14.88L123.49-14.88L123.49-14.88Q124.45-11.54 126.24-9.32L126.24-9.32L126.24-9.32Q128.03-7.09 130.96-7.09L130.96-7.09L130.96-7.09Q133.42-7.09 135.47-9.17L135.47-9.17L135.47-9.17Q137.52-11.25 139.25-14.44L139.25-14.44L139.25-14.44Q140.98-17.64 142.44-21.45L142.44-21.45L142.44-21.45Q143.91-25.25 145.20-28.65L145.20-28.65L147.48-28.07L147.48-28.07Q146.66-25.96 145.72-23.32L145.72-23.32L145.72-23.32Q144.79-20.68 143.61-17.96L143.61-17.96L143.61-17.96Q142.44-15.23 141.04-12.69L141.04-12.69L141.04-12.69Q139.63-10.14 137.93-8.12L137.93-8.12L137.93-8.12Q136.23-6.09 134.18-4.89L134.18-4.89L134.18-4.89Q132.13-3.69 129.73-3.69L129.73-3.69L129.73-3.69Q127.15-3.69 124.89-4.86L124.89-4.86L124.89-4.86Q122.64-6.04 120.97-9.05L120.97-9.05L120.97-9.05Q119.30-12.07 118.33-17.26L118.33-17.26L118.33-17.26Q117.36-22.44 117.36-30.47L117.36-30.47L117.36-30.47Q117.36-36.91 118.07-42.48L118.07-42.48L118.07-42.48Q113.03-43.13 109.60-44.50L109.60-44.50L109.60-44.50Q106.17-45.88 104.30-47.17L104.30-47.17ZM130.08-64.69L130.08-64.69L130.08-64.69Q129.55-64.69 128.50-63.63L128.50-63.63L128.50-63.63Q127.44-62.58 126.27-60.21L126.27-60.21L126.27-60.21Q125.10-57.83 124.01-53.99L124.01-53.99L124.01-53.99Q122.93-50.16 122.29-44.53L122.29-44.53L123.40-44.53L126.27-44.53L126.27-44.53Q127.32-47.46 128.12-50.21L128.12-50.21L128.12-50.21Q128.91-52.97 129.49-55.34L129.49-55.34L129.49-55.34Q130.08-57.71 130.37-59.62L130.37-59.62L130.37-59.62Q130.66-61.52 130.66-62.75L130.66-62.75L130.66-62.75Q130.66-64.69 130.08-64.69ZM121.82-33.98L121.82-33.87L121.82-33.87Q122.81-35.92 123.69-38.00L123.69-38.00L123.69-38.00Q124.57-40.08 125.39-42.25L125.39-42.25L123.22-42.25L122.05-42.25L122.05-42.25Q121.93-40.37 121.88-38.29L121.88-38.29L121.88-38.29Q121.82-36.21 121.82-33.98L121.82-33.98ZM188.03-28.65L190.31-28.07L190.31-28.07Q187.91-21.56 185.95-17.17L185.95-17.17L185.95-17.17Q183.98-12.77 182.14-10.08L182.14-10.08L182.14-10.08Q180.29-7.38 178.48-6.21L178.48-6.21L178.48-6.21Q176.66-5.04 174.49-5.04L174.49-5.04L174.49-5.04Q171.86-5.04 169.98-6.88L169.98-6.88L169.98-6.88Q168.11-8.73 167.64-12.60L167.64-12.60L167.64-12.60Q165.76-8.55 162.77-6.01L162.77-6.01L162.77-6.01Q159.79-3.46 155.27-3.46L155.27-3.46L155.27-3.46Q152.87-3.46 150.67-4.34L150.67-4.34L150.67-4.34Q148.48-5.21 146.78-7.06L146.78-7.06L146.78-7.06Q145.08-8.91 144.05-11.72L144.05-11.72L144.05-11.72Q143.03-14.53 143.03-18.34L143.03-18.34L143.03-18.34Q143.03-22.21 143.99-25.61L143.99-25.61L143.99-25.61Q144.96-29.00 146.54-31.85L146.54-31.85L146.54-31.85Q148.13-34.69 150.21-36.91L150.21-36.91L150.21-36.91Q152.29-39.14 154.51-40.66L154.51-40.66L154.51-40.66Q156.74-42.19 158.96-43.01L158.96-43.01L158.96-43.01Q161.19-43.83 163.07-43.83L163.07-43.83L163.07-43.83Q164.71-43.83 166.23-43.42L166.23-43.42L166.23-43.42Q167.75-43.01 168.96-42.10L168.96-42.10L168.96-42.10Q170.16-41.19 170.89-39.67L170.89-39.67L170.89-39.67Q171.62-38.14 171.62-35.86L171.62-35.86L171.62-35.86Q171.62-33.16 170.60-31.17L170.60-31.17L170.60-31.17Q169.57-29.18 168.13-27.83L168.13-27.83L168.13-27.83Q166.70-26.48 165.21-25.66L165.21-25.66L165.21-25.66Q163.71-24.84 162.83-24.49L162.83-24.49L162.13-26.78L162.13-26.78Q162.30-26.78 163.45-27.25L163.45-27.25L163.45-27.25Q164.59-27.71 165.85-28.80L165.85-28.80L165.85-28.80Q167.11-29.88 168.16-31.58L168.16-31.58L168.16-31.58Q169.22-33.28 169.22-35.74L169.22-35.74L169.22-35.74Q169.22-38.55 167.64-40.05L167.64-40.05L167.64-40.05Q166.05-41.54 163.59-41.54L163.59-41.54L163.59-41.54Q161.72-41.54 159.20-40.20L159.20-40.20L159.20-40.20Q156.68-38.85 154.37-35.98L154.37-35.98L154.37-35.98Q152.05-33.11 150.44-28.71L150.44-28.71L150.44-28.71Q148.83-24.32 148.83-18.22L148.83-18.22L148.83-18.22Q148.83-12.19 150.97-9.02L150.97-9.02L150.97-9.02Q153.11-5.86 156.74-5.86L156.74-5.86L156.74-5.86Q158.55-5.86 160.22-6.88L160.22-6.88L160.22-6.88Q161.89-7.91 163.30-9.61L163.30-9.61L163.30-9.61Q164.71-11.31 165.82-13.56L165.82-13.56L165.82-13.56Q166.93-15.82 167.75-18.22L167.75-18.22L167.75-18.22Q167.75-20.10 168.19-22.65L168.19-22.65L168.19-22.65Q168.63-25.20 169.57-27.83L169.57-27.83L173.14-26.66L173.14-26.66Q172.85-25.90 172.56-24.67L172.56-24.67L172.56-24.67Q172.27-23.44 172.00-21.97L172.00-21.97L172.00-21.97Q171.74-20.51 171.56-18.96L171.56-18.96L171.56-18.96Q171.39-17.40 171.39-15.94L171.39-15.94L171.39-15.94Q171.39-11.37 172.29-9.64L172.29-9.64L172.29-9.64Q173.20-7.91 175.43-7.91L175.43-7.91L175.43-7.91Q176.72-7.91 177.98-8.85L177.98-8.85L177.98-8.85Q179.24-9.79 180.70-12.13L180.70-12.13L180.70-12.13Q182.17-14.47 183.93-18.49L183.93-18.49L183.93-18.49Q185.68-22.50 188.03-28.65L188.03-28.65ZM205.08-3.57L205.08-3.57L205.08-3.57Q207.13-3.57 208.86-4.57L208.86-4.57L208.86-4.57Q210.59-5.57 211.93-7.21L211.93-7.21L211.93-7.21Q209.47-7.91 207.33-9.40L207.33-9.40L207.33-9.40Q205.20-10.90 203.55-13.13L203.55-13.13L203.55-13.13Q201.91-15.35 200.98-18.25L200.98-18.25L200.98-18.25Q200.04-21.15 200.04-24.61L200.04-24.61L200.04-24.61Q200.04-27.36 200.74-29.65L200.74-29.65L200.74-29.65Q201.45-31.93 202.73-33.54L202.73-33.54L202.73-33.54Q204.02-35.16 205.78-36.06L205.78-36.06L205.78-36.06Q207.54-36.97 209.65-36.97L209.65-36.97L209.65-36.97Q211.23-36.97 212.99-36.27L212.99-36.27L212.99-36.27Q214.75-35.57 216.21-33.90L216.21-33.90L216.21-33.90Q217.68-32.23 218.64-29.50L218.64-29.50L218.64-29.50Q219.61-26.78 219.61-22.68L219.61-22.68L219.61-22.68Q219.61-19.39 218.70-15.85L218.70-15.85L218.70-15.85Q217.79-12.30 216.09-9.14L216.09-9.14L216.50-9.14L216.50-9.14Q219.49-9.14 221.72-10.52L221.72-10.52L221.72-10.52Q223.95-11.89 225.73-14.41L225.73-14.41L225.73-14.41Q227.52-16.93 229.13-20.54L229.13-20.54L229.13-20.54Q230.74-24.14 232.56-28.65L232.56-28.65L234.84-28.07L234.84-28.07Q232.85-22.79 230.98-18.81L230.98-18.81L230.98-18.81Q229.10-14.82 226.93-12.16L226.93-12.16L226.93-12.16Q224.77-9.49 222.10-8.12L222.10-8.12L222.10-8.12Q219.43-6.74 215.86-6.74L215.86-6.74L214.69-6.74L214.69-6.74Q212.70-3.93 210.03-2.20L210.03-2.20L210.03-2.20Q207.36-0.47 204.02-0.47L204.02-0.47L204.02-0.47Q199.69-0.47 196.55-2.49L196.55-2.49L196.55-2.49Q193.42-4.51 191.37-8.38L191.37-8.38L191.37-8.38Q189.32-12.25 188.32-17.81L188.32-17.81L188.32-17.81Q187.32-23.38 187.32-30.47L187.32-30.47L187.32-30.47Q187.32-42.30 188.58-51.04L188.58-51.04L188.58-51.04Q189.84-59.77 191.95-65.48L191.95-65.48L191.95-65.48Q194.06-71.19 196.88-73.92L196.88-73.92L196.88-73.92Q199.69-76.64 202.79-76.58L202.79-76.58L202.79-76.58Q205.02-76.46 206.19-74.56L206.19-74.56L206.19-74.56Q207.36-72.66 207.36-69.02L207.36-69.02L207.36-69.02Q207.36-65.10 206.25-60.35L206.25-60.35L206.25-60.35Q205.14-55.61 203.14-50.13L203.14-50.13L203.14-50.13Q201.15-44.65 198.40-38.50L198.40-38.50L198.40-38.50Q195.64-32.34 192.36-25.66L192.36-25.66L192.36-25.66Q192.48-23.26 192.80-20.71L192.80-20.71L192.80-20.71Q193.13-18.16 193.74-15.70L193.74-15.70L193.74-15.70Q194.36-13.24 195.29-11.04L195.29-11.04L195.29-11.04Q196.23-8.85 197.61-7.18L197.61-7.18L197.61-7.18Q198.98-5.51 200.83-4.54L200.83-4.54L200.83-4.54Q202.68-3.57 205.08-3.57ZM202.09-74.18L202.09-74.18L202.09-74.18Q199.98-74.18 198.43-72.33L198.43-72.33L198.43-72.33Q196.88-70.49 195.79-67.29L195.79-67.29L195.79-67.29Q194.71-64.10 194.00-59.85L194.00-59.85L194.00-59.85Q193.30-55.61 192.92-50.83L192.92-50.83L192.92-50.83Q192.54-46.05 192.39-40.96L192.39-40.96L192.39-40.96Q192.25-35.86 192.25-31.05L192.25-31.05L192.25-31.05Q195.06-36.97 197.37-42.51L197.37-42.51L197.37-42.51Q199.69-48.05 201.39-52.94L201.39-52.94L201.39-52.94Q203.09-57.83 204.02-61.93L204.02-61.93L204.02-61.93Q204.96-66.04 204.96-69.14L204.96-69.14L204.96-69.14Q204.96-70.02 204.87-70.90L204.87-70.90L204.87-70.90Q204.79-71.78 204.46-72.51L204.46-72.51L204.46-72.51Q204.14-73.24 203.58-73.71L203.58-73.71L203.58-73.71Q203.03-74.18 202.09-74.18ZM204.26-25.20L204.26-25.20L204.26-25.20Q204.26-22.38 204.93-19.83L204.93-19.83L204.93-19.83Q205.61-17.29 206.81-15.23L206.81-15.23L206.81-15.23Q208.01-13.18 209.71-11.69L209.71-11.69L209.71-11.69Q211.41-10.20 213.46-9.49L213.46-9.49L213.46-9.49Q214.39-11.07 215.10-12.80L215.10-12.80L215.10-12.80Q215.80-14.53 216.27-16.26L216.27-16.26L216.27-16.26Q216.74-17.99 216.97-19.60L216.97-19.60L216.97-19.60Q217.21-21.21 217.21-22.44L217.21-22.44L217.21-22.44Q217.21-25.25 216.59-27.51L216.59-27.51L216.59-27.51Q215.98-29.77 214.95-31.35L214.95-31.35L214.95-31.35Q213.93-32.93 212.58-33.75L212.58-33.75L212.58-33.75Q211.23-34.57 209.77-34.57L209.77-34.57L209.77-34.57Q208.42-34.57 207.39-33.81L207.39-33.81L207.39-33.81Q206.37-33.05 205.66-31.73L205.66-31.73L205.66-31.73Q204.96-30.41 204.61-28.71L204.61-28.71L204.61-28.71Q204.26-27.01 204.26-25.20ZM252.83-73.83L252.83-73.83L252.83-73.83Q252.83-70.14 251.98-65.98L251.98-65.98L251.98-65.98Q251.13-61.82 249.76-57.54L249.76-57.54L249.76-57.54Q248.38-53.26 246.59-48.93L246.59-48.93L246.59-48.93Q244.80-44.59 242.99-40.61L242.99-40.61L242.99-40.61Q241.17-36.62 239.41-33.05L239.41-33.05L239.41-33.05Q237.66-29.47 236.31-26.66L236.31-26.66L236.31-26.66Q236.54-21.86 237.13-17.99L237.13-17.99L237.13-17.99Q237.71-14.12 238.59-11.40L238.59-11.40L238.59-11.40Q239.47-8.67 240.70-7.21L240.70-7.21L240.70-7.21Q241.93-5.74 243.52-5.74L243.52-5.74L243.52-5.74Q245.27-5.74 247.00-7.38L247.00-7.38L247.00-7.38Q248.73-9.02 250.49-12.01L250.49-12.01L250.49-12.01Q252.25-15 254.06-19.22L254.06-19.22L254.06-19.22Q255.88-23.44 257.75-28.65L257.75-28.65L260.04-28.07L260.04-28.07Q258.63-24.02 256.88-19.54L256.88-19.54L256.88-19.54Q255.12-15.06 252.95-11.31L252.95-11.31L252.95-11.31Q250.78-7.56 248.23-5.10L248.23-5.10L248.23-5.10Q245.68-2.64 242.75-2.64L242.75-2.64L242.75-2.64Q239.82-2.64 237.83-4.45L237.83-4.45L237.83-4.45Q235.84-6.27 234.55-9.23L234.55-9.23L234.55-9.23Q233.26-12.19 232.56-15.97L232.56-15.97L232.56-15.97Q231.86-19.75 231.50-23.67L231.50-23.67L231.50-23.67Q231.15-27.60 231.09-31.32L231.09-31.32L231.09-31.32Q231.04-35.04 231.04-37.91L231.04-37.91L231.04-37.91Q231.04-43.24 231.47-48.52L231.47-48.52L231.47-48.52Q231.91-53.79 232.82-58.59L232.82-58.59L232.82-58.59Q233.73-63.40 235.02-67.53L235.02-67.53L235.02-67.53Q236.31-71.66 238.04-74.68L238.04-74.68L238.04-74.68Q239.77-77.70 241.85-79.39L241.85-79.39L241.85-79.39Q243.93-81.09 246.39-81.09L246.39-81.09L246.39-81.09Q248.14-81.09 249.38-80.51L249.38-80.51L249.38-80.51Q250.61-79.92 251.37-78.93L251.37-78.93L251.37-78.93Q252.13-77.93 252.48-76.61L252.48-76.61L252.48-76.61Q252.83-75.29 252.83-73.83ZM235.96-40.08L235.96-40.08L235.96-40.08Q235.96-37.85 235.96-35.71L235.96-35.71L235.96-35.71Q235.96-33.57 236.07-31.58L236.07-31.58L236.07-31.58Q237.54-34.51 239.18-38.00L239.18-38.00L239.18-38.00Q240.82-41.48 242.43-45.21L242.43-45.21L242.43-45.21Q244.04-48.93 245.51-52.73L245.51-52.73L245.51-52.73Q246.97-56.54 248.09-60.21L248.09-60.21L248.09-60.21Q249.20-63.87 249.87-67.18L249.87-67.18L249.87-67.18Q250.55-70.49 250.55-73.18L250.55-73.18L250.55-73.18Q250.55-74.06 250.40-75.06L250.40-75.06L250.40-75.06Q250.25-76.05 249.87-76.90L249.87-76.90L249.87-76.90Q249.49-77.75 248.79-78.31L248.79-78.31L248.79-78.31Q248.09-78.87 246.97-78.87L246.97-78.87L246.97-78.87Q244.75-78.87 242.72-75.97L242.72-75.97L242.72-75.97Q240.70-73.07 239.21-67.91L239.21-67.91L239.21-67.91Q237.71-62.75 236.84-55.63L236.84-55.63L236.84-55.63Q235.96-48.52 235.96-40.08ZM270.59-0.82L270.59-0.82L270.59-0.82Q267.60-0.82 264.84-1.88L264.84-1.88L264.84-1.88Q262.09-2.93 260.01-5.07L260.01-5.07L260.01-5.07Q257.93-7.21 256.70-10.43L256.70-10.43L256.70-10.43Q255.47-13.65 255.47-17.99L255.47-17.99L255.47-17.99Q255.47-23.26 256.99-27.39L256.99-27.39L256.99-27.39Q258.52-31.52 260.89-34.37L260.89-34.37L260.89-34.37Q263.26-37.21 266.19-38.70L266.19-38.70L266.19-38.70Q269.12-40.20 271.93-40.20L271.93-40.20L271.93-40.20Q275.57-40.20 277.71-37.79L277.71-37.79L277.71-37.79Q279.84-35.39 279.84-31.58L279.84-31.58L279.84-31.58Q279.84-28.30 278.61-25.63L278.61-25.63L278.61-25.63Q277.38-22.97 275.36-21.06L275.36-21.06L275.36-21.06Q273.34-19.16 270.73-18.11L270.73-18.11L270.73-18.11Q268.13-17.05 265.31-17.05L265.31-17.05L265.31-17.05Q263.96-17.05 262.76-17.20L262.76-17.20L262.76-17.20Q261.56-17.34 260.63-17.52L260.63-17.52L260.63-17.52Q260.98-13.89 262.03-11.25L262.03-11.25L262.03-11.25Q263.09-8.61 264.67-6.91L264.67-6.91L264.67-6.91Q266.25-5.21 268.21-4.39L268.21-4.39L268.21-4.39Q270.18-3.57 272.29-3.57L272.29-3.57L272.29-3.57Q274.92-3.57 277.15-4.86L277.15-4.86L277.15-4.86Q279.38-6.15 281.25-8.23L281.25-8.23L281.25-8.23Q283.13-10.31 284.68-13.01L284.68-13.01L284.68-13.01Q286.23-15.70 287.46-18.49L287.46-18.49L287.46-18.49Q288.69-21.27 289.66-23.94L289.66-23.94L289.66-23.94Q290.63-26.60 291.39-28.65L291.39-28.65L293.67-28.07L293.67-28.07Q292.91-26.13 291.88-23.38L291.88-23.38L291.88-23.38Q290.86-20.63 289.51-17.61L289.51-17.61L289.51-17.61Q288.16-14.59 286.35-11.57L286.35-11.57L286.35-11.57Q284.53-8.55 282.25-6.18L282.25-6.18L282.25-6.18Q279.96-3.81 277.06-2.31L277.06-2.31L277.06-2.31Q274.16-0.82 270.59-0.82ZM272.05-37.91L272.05-37.91L272.05-37.91Q269.88-37.91 267.80-36.53L267.80-36.53L267.80-36.53Q265.72-35.16 264.08-32.75L264.08-32.75L264.08-32.75Q262.44-30.35 261.42-27.07L261.42-27.07L261.42-27.07Q260.39-23.79 260.39-20.04L260.39-20.04L260.39-20.04Q261.15-19.75 262.53-19.54L262.53-19.54L262.53-19.54Q263.91-19.34 265.90-19.34L265.90-19.34L265.90-19.34Q268.01-19.34 270.09-20.24L270.09-20.24L270.09-20.24Q272.17-21.15 273.84-22.76L273.84-22.76L273.84-22.76Q275.51-24.38 276.53-26.60L276.53-26.60L276.53-26.60Q277.56-28.83 277.56-31.46L277.56-31.46L277.56-31.46Q277.56-32.75 277.21-33.93L277.21-33.93L277.21-33.93Q276.86-35.10 276.15-35.98L276.15-35.98L276.15-35.98Q275.45-36.86 274.42-37.38L274.42-37.38L274.42-37.38Q273.40-37.91 272.05-37.91ZM324.67-28.83L324.67-24.73L324.67-24.73Q322.27-24.61 320.42-24.55L320.42-24.55L320.42-24.55Q318.57-24.49 316.93-24.43L316.93-24.43L316.93-24.43Q315.29-24.38 313.65-24.38L313.65-24.38L313.65-24.38Q312.01-24.38 310.02-24.40L310.02-24.40L310.02-24.40Q308.03-24.43 305.51-24.49L305.51-24.49L305.51-24.49Q302.99-24.55 299.59-24.73L299.59-24.73L299.59-28.83L299.59-28.83Q302.58-28.89 304.80-28.95L304.80-28.95L304.80-28.95Q307.03-29.00 308.88-29.03L308.88-29.03L308.88-29.03Q310.72-29.06 312.39-29.09L312.39-29.09L312.39-29.09Q314.06-29.12 315.85-29.09L315.85-29.09L315.85-29.09Q317.64-29.06 319.75-29.00L319.75-29.00L319.75-29.00Q321.86-28.95 324.67-28.83L324.67-28.83ZM351.09 5.74L351.09 5.74L351.09 5.74Q346.58 5.74 342.83 4.63L342.83 4.63L342.83 4.63Q339.08 3.52 336.42 1.41L336.42 1.41L336.42 1.41Q333.75-0.70 332.26-3.75L332.26-3.75L332.26-3.75Q330.76-6.80 330.76-10.66L330.76-10.66L330.76-10.66Q330.76-14.65 332.61-18.78L332.61-18.78L332.61-18.78Q334.45-22.91 337.97-26.43L337.97-26.43L339.08-25.31L339.08-25.31Q337.27-22.97 336.06-19.69L336.06-19.69L336.06-19.69Q334.86-16.41 334.86-12.71L334.86-12.71L334.86-12.71Q334.86-9.73 335.77-6.83L335.77-6.83L335.77-6.83Q336.68-3.93 338.61-1.64L338.61-1.64L338.61-1.64Q340.55 0.64 343.62 2.05L343.62 2.05L343.62 2.05Q346.70 3.46 351.09 3.46L351.09 3.46L351.09 3.46Q351.45 3.46 351.80 3.40L351.80 3.40L351.80 3.40Q352.15 3.34 352.50 3.34L352.50 3.34L352.50 3.34Q350.68-2.17 349.25-10.14L349.25-10.14L349.25-10.14Q347.81-18.11 347.81-28.65L347.81-28.65L347.81-28.65Q347.81-38.50 348.98-46.00L348.98-46.00L348.98-46.00Q350.16-53.50 351.74-58.95L351.74-58.95L351.74-58.95Q353.32-64.39 354.99-67.94L354.99-67.94L354.99-67.94Q356.66-71.48 357.66-73.42L357.66-73.42L359.36-73.07L359.36-73.07Q358.83-70.55 358.01-66.18L358.01-66.18L358.01-66.18Q357.19-61.82 356.40-55.46L356.40-55.46L356.40-55.46Q355.61-49.10 355.02-40.61L355.02-40.61L355.02-40.61Q354.43-32.11 354.43-21.39L354.43-21.39L354.43-21.39Q354.43-15.35 354.79-9.23L354.79-9.23L354.79-9.23Q355.14-3.11 355.84 3.11L355.84 3.11L355.84 3.11Q362.93 2.34 369.08-0.47L369.08-0.47L369.08-0.47Q375.23-3.28 380.30-7.56L380.30-7.56L380.30-7.56Q385.37-11.84 389.30-17.29L389.30-17.29L389.30-17.29Q393.22-22.73 395.95-28.77L395.95-28.77L395.95-28.77Q398.67-34.80 400.08-41.13L400.08-41.13L400.08-41.13Q401.48-47.46 401.48-53.50L401.48-53.50L401.48-53.50Q401.48-61.46 399.02-67.15L399.02-67.15L399.02-67.15Q396.56-72.83 392.64-76.44L392.64-76.44L392.64-76.44Q388.71-80.04 383.76-81.71L383.76-81.71L383.76-81.71Q378.81-83.38 373.89-83.38L373.89-83.38L373.89-83.38Q369.02-83.38 364.86-82.73L364.86-82.73L364.86-82.73Q360.70-82.09 357.22-81.04L357.22-81.04L357.22-81.04Q353.73-79.98 350.89-78.66L350.89-78.66L350.89-78.66Q348.05-77.34 345.82-75.94L345.82-75.94L345.82-75.94Q340.55-72.66 337.15-68.50L337.15-68.50L335.21-69.84L335.21-69.84Q335.27-69.96 336.30-71.19L336.30-71.19L336.30-71.19Q337.32-72.42 339.38-74.18L339.38-74.18L339.38-74.18Q341.43-75.94 344.56-77.93L344.56-77.93L344.56-77.93Q347.70-79.92 351.94-81.65L351.94-81.65L351.94-81.65Q356.19-83.38 361.67-84.52L361.67-84.52L361.67-84.52Q367.15-85.66 373.89-85.66L373.89-85.66L373.89-85.66Q381.97-85.66 388.36-83.55L388.36-83.55L388.36-83.55Q394.75-81.45 399.17-77.31L399.17-77.31L399.17-77.31Q403.59-73.18 405.94-67.12L405.94-67.12L405.94-67.12Q408.28-61.05 408.28-53.14L408.28-53.14L408.28-53.14Q408.28-43.89 405.88-36.12L405.88-36.12L405.88-36.12Q403.48-28.36 399.43-22.06L399.43-22.06L399.43-22.06Q395.39-15.76 390.12-10.96L390.12-10.96L390.12-10.96Q384.84-6.15 379.04-2.72L379.04-2.72L379.04-2.72Q373.24 0.70 367.32 2.72L367.32 2.72L367.32 2.72Q361.41 4.75 356.13 5.39L356.13 5.39L356.13 5.39Q356.31 6.50 356.48 7.50L356.48 7.50L356.48 7.50Q356.66 8.50 356.84 9.61L356.84 9.61L354.90 9.84L354.90 9.84Q354.55 8.91 354.11 7.85L354.11 7.85L354.11 7.85Q353.67 6.80 353.20 5.63L353.20 5.63L353.20 5.63Q352.68 5.74 352.15 5.74L352.15 5.74L352.15 5.74Q351.62 5.74 351.09 5.74ZM424.16-6.09L424.16-6.09L424.16-6.09Q420.47-6.09 418.04-9.08L418.04-9.08L418.04-9.08Q415.61-12.07 415.61-18.11L415.61-18.11L415.61-18.11Q415.61-22.09 417.22-28.27L417.22-28.27L417.22-28.27Q418.83-34.45 422.81-42.25L422.81-42.25L424.98-41.66L424.98-41.66Q424.63-40.14 423.84-37.50L423.84-37.50L423.84-37.50Q423.05-34.86 422.26-31.61L422.26-31.61L422.26-31.61Q421.46-28.36 420.88-24.81L420.88-24.81L420.88-24.81Q420.29-21.27 420.29-17.99L420.29-17.99L420.29-17.99Q420.29-15.23 420.70-13.51L420.70-13.51L420.70-13.51Q421.11-11.78 421.79-10.81L421.79-10.81L421.79-10.81Q422.46-9.84 423.37-9.49L423.37-9.49L423.37-9.49Q424.28-9.14 425.33-9.14L425.33-9.14L425.33-9.14Q427.03-9.14 428.55-10.20L428.55-10.20L428.55-10.20Q430.08-11.25 431.46-12.98L431.46-12.98L431.46-12.98Q432.83-14.71 434.03-16.85L434.03-16.85L434.03-16.85Q435.23-18.98 436.20-21.15L436.20-21.15L436.20-21.15Q437.17-23.32 437.93-25.28L437.93-25.28L437.93-25.28Q438.69-27.25 439.16-28.65L439.16-28.65L441.45-28.07L441.45-28.07Q440.80-26.31 439.95-23.99L439.95-23.99L439.95-23.99Q439.10-21.68 438.02-19.22L438.02-19.22L438.02-19.22Q436.93-16.76 435.59-14.41L435.59-14.41L435.59-14.41Q434.24-12.07 432.54-10.22L432.54-10.22L432.54-10.22Q430.84-8.38 428.76-7.24L428.76-7.24L428.76-7.24Q426.68-6.09 424.16-6.09ZM433.65-60.70L433.65-60.70L433.65-60.70Q433.65-58.65 432.07-57.54L432.07-57.54L432.07-57.54Q430.49-56.43 428.09-56.43L428.09-56.43L428.09-56.43Q426.86-56.43 425.77-56.81L425.77-56.81L425.77-56.81Q424.69-57.19 423.90-57.80L423.90-57.80L423.90-57.80Q423.11-58.42 422.67-59.27L422.67-59.27L422.67-59.27Q422.23-60.12 422.23-61.05L422.23-61.05L422.23-61.05Q422.23-63.05 423.78-64.28L423.78-64.28L423.78-64.28Q425.33-65.51 427.38-65.51L427.38-65.51L427.38-65.51Q428.85-65.51 430.02-65.07L430.02-65.07L430.02-65.07Q431.19-64.63 432.01-63.93L432.01-63.93L432.01-63.93Q432.83-63.22 433.24-62.37L433.24-62.37L433.24-62.37Q433.65-61.52 433.65-60.70ZM430.49-60.70L430.49-60.70L430.49-60.70Q430.49-61.29 429.99-61.79L429.99-61.79L429.99-61.79Q429.49-62.29 428.50-62.29L428.50-62.29L428.50-62.29Q426.68-62.29 426.68-60.94L426.68-60.94L426.68-60.94Q426.68-60.29 427.24-59.85L427.24-59.85L427.24-59.85Q427.79-59.41 428.73-59.41L428.73-59.41L428.73-59.41Q429.61-59.41 430.05-59.79L430.05-59.79L430.05-59.79Q430.49-60.18 430.49-60.70ZM462.07-71.89L462.07-71.89L462.07-71.89Q462.07-67.44 460.46-62.40L460.46-62.40L460.46-62.40Q458.85-57.36 456.27-51.97L456.27-51.97L456.27-51.97Q453.69-46.58 450.44-40.99L450.44-40.99L450.44-40.99Q447.19-35.39 443.96-29.88L443.96-29.88L443.96-29.88Q443.32-24.43 442.76-19.04L442.76-19.04L442.76-19.04Q442.21-13.65 441.83-8.82L441.83-8.82L441.83-8.82Q441.45-3.98 441.21 0.06L441.21 0.06L441.21 0.06Q440.98 4.10 440.98 6.86L440.98 6.86L440.98 6.86Q440.98 12.48 441.53 16.96L441.53 16.96L441.53 16.96Q442.09 21.45 443.23 24.58L443.23 24.58L443.23 24.58Q444.38 27.71 446.04 29.38L446.04 29.38L446.04 29.38Q447.71 31.05 450 31.05L450 31.05L450 31.05Q451.29 31.05 452.17 30.23L452.17 30.23L452.17 30.23Q453.05 29.41 453.63 28.13L453.63 28.13L453.63 28.13Q454.22 26.84 454.51 25.20L454.51 25.20L454.51 25.20Q454.80 23.55 454.95 21.91L454.95 21.91L454.95 21.91Q455.10 20.27 455.13 18.81L455.13 18.81L455.13 18.81Q455.16 17.34 455.16 16.35L455.16 16.35L455.16 16.35Q455.16 9.79 454.28 3.84L454.28 3.84L454.28 3.84Q453.40-2.11 452.11-6.39L452.11-6.39L451.64-6.39L451.64-6.39Q450.23-6.39 448.97-6.77L448.97-6.77L448.97-6.77Q447.71-7.15 446.72-7.85L446.72-7.85L446.72-7.85Q445.72-8.55 445.14-9.49L445.14-9.49L445.14-9.49Q444.55-10.43 444.55-11.54L444.55-11.54L444.55-11.54Q444.55-13.13 445.52-14.24L445.52-14.24L445.52-14.24Q446.48-15.35 447.95-15.35L447.95-15.35L447.95-15.35Q449.77-15.35 451.41-13.62L451.41-13.62L451.41-13.62Q453.05-11.89 454.39-9.02L454.39-9.02L454.39-9.02Q456.74-9.96 458.70-12.30L458.70-12.30L458.70-12.30Q460.66-14.65 462.25-17.55L462.25-17.55L462.25-17.55Q463.83-20.45 465.03-23.44L465.03-23.44L465.03-23.44Q466.23-26.43 467.11-28.65L467.11-28.65L469.39-28.07L469.39-28.07Q468.46-25.55 467.17-22.35L467.17-22.35L467.17-22.35Q465.88-19.16 464.18-16.14L464.18-16.14L464.18-16.14Q462.48-13.13 460.28-10.63L460.28-10.63L460.28-10.63Q458.09-8.14 455.27-7.09L455.27-7.09L455.27-7.09Q456.21-4.63 456.97-1.79L456.97-1.79L456.97-1.79Q457.73 1.05 458.29 4.04L458.29 4.04L458.29 4.04Q458.85 7.03 459.14 10.02L459.14 10.02L459.14 10.02Q459.43 13.01 459.43 15.82L459.43 15.82L459.43 15.82Q459.43 19.57 458.82 22.79L458.82 22.79L458.82 22.79Q458.20 26.02 457.00 28.39L457.00 28.39L457.00 28.39Q455.80 30.76 454.01 32.11L454.01 32.11L454.01 32.11Q452.23 33.46 449.82 33.46L449.82 33.46L449.82 33.46Q446.60 33.46 444.35 31.90L444.35 31.90L444.35 31.90Q442.09 30.35 440.57 27.77L440.57 27.77L440.57 27.77Q439.04 25.20 438.16 21.94L438.16 21.94L438.16 21.94Q437.29 18.69 436.85 15.29L436.85 15.29L436.85 15.29Q436.41 11.89 436.29 8.64L436.29 8.64L436.29 8.64Q436.17 5.39 436.17 2.87L436.17 2.87L436.17 2.87Q436.17-2.93 436.70-10.14L436.70-10.14L436.70-10.14Q437.23-17.34 438.11-24.90L438.11-24.90L438.11-24.90Q438.98-32.46 440.07-39.87L440.07-39.87L440.07-39.87Q441.15-47.29 442.24-53.58L442.24-53.58L442.24-53.58Q443.32-59.88 444.32-64.57L444.32-64.57L444.32-64.57Q445.31-69.26 446.02-71.31L446.02-71.31L446.02-71.31Q446.48-72.77 447.28-74.30L447.28-74.30L447.28-74.30Q448.07-75.82 449.18-77.05L449.18-77.05L449.18-77.05Q450.29-78.28 451.73-79.04L451.73-79.04L451.73-79.04Q453.16-79.80 455.04-79.80L455.04-79.80L455.04-79.80Q458.26-79.80 460.17-77.70L460.17-77.70L460.17-77.70Q462.07-75.59 462.07-71.89ZM448.89-67.09L448.89-67.09L448.89-67.09Q448.59-65.57 448.10-62.49L448.10-62.49L448.10-62.49Q447.60-59.41 447.04-55.22L447.04-55.22L447.04-55.22Q446.48-51.04 445.84-45.97L445.84-45.97L445.84-45.97Q445.20-40.90 444.55-35.51L444.55-35.51L444.55-35.51Q447.77-41.02 450.53-46.03L450.53-46.03L450.53-46.03Q453.28-51.04 455.30-55.58L455.30-55.58L455.30-55.58Q457.32-60.12 458.50-64.13L458.50-64.13L458.50-64.13Q459.67-68.14 459.67-71.78L459.67-71.78L459.67-71.78Q459.67-74.12 458.64-75.82L458.64-75.82L458.64-75.82Q457.62-77.52 455.27-77.52L455.27-77.52L455.27-77.52Q453.57-77.52 452.43-76.35L452.43-76.35L452.43-76.35Q451.29-75.18 450.59-73.54L450.59-73.54L450.59-73.54Q449.88-71.89 449.50-70.11L449.50-70.11L449.50-70.11Q449.12-68.32 448.89-67.09ZM446.95-11.66L446.95-11.66L446.95-11.66Q446.95-10.55 448.33-9.58L448.33-9.58L448.33-9.58Q449.71-8.61 451.52-8.50L451.52-8.50L451.52-8.50Q450.70-10.72 449.85-11.89L449.85-11.89L449.85-11.89Q449.00-13.07 448.18-13.07L448.18-13.07L448.18-13.07Q447.71-13.07 447.33-12.71L447.33-12.71L447.33-12.71Q446.95-12.36 446.95-11.66ZM490.02-71.89L490.02-71.89L490.02-71.89Q490.02-67.44 488.41-62.40L488.41-62.40L488.41-62.40Q486.80-57.36 484.22-51.97L484.22-51.97L484.22-51.97Q481.64-46.58 478.39-40.99L478.39-40.99L478.39-40.99Q475.14-35.39 471.91-29.88L471.91-29.88L471.91-29.88Q471.27-24.43 470.71-19.04L470.71-19.04L470.71-19.04Q470.16-13.65 469.78-8.82L469.78-8.82L469.78-8.82Q469.39-3.98 469.16 0.06L469.16 0.06L469.16 0.06Q468.93 4.10 468.93 6.86L468.93 6.86L468.93 6.86Q468.93 12.48 469.48 16.96L469.48 16.96L469.48 16.96Q470.04 21.45 471.18 24.58L471.18 24.58L471.18 24.58Q472.32 27.71 473.99 29.38L473.99 29.38L473.99 29.38Q475.66 31.05 477.95 31.05L477.95 31.05L477.95 31.05Q479.24 31.05 480.12 30.23L480.12 30.23L480.12 30.23Q481.00 29.41 481.58 28.13L481.58 28.13L481.58 28.13Q482.17 26.84 482.46 25.20L482.46 25.20L482.46 25.20Q482.75 23.55 482.90 21.91L482.90 21.91L482.90 21.91Q483.05 20.27 483.08 18.81L483.08 18.81L483.08 18.81Q483.11 17.34 483.11 16.35L483.11 16.35L483.11 16.35Q483.11 9.79 482.23 3.84L482.23 3.84L482.23 3.84Q481.35-2.11 480.06-6.39L480.06-6.39L479.59-6.39L479.59-6.39Q478.18-6.39 476.92-6.77L476.92-6.77L476.92-6.77Q475.66-7.15 474.67-7.85L474.67-7.85L474.67-7.85Q473.67-8.55 473.09-9.49L473.09-9.49L473.09-9.49Q472.50-10.43 472.50-11.54L472.50-11.54L472.50-11.54Q472.50-13.13 473.47-14.24L473.47-14.24L473.47-14.24Q474.43-15.35 475.90-15.35L475.90-15.35L475.90-15.35Q477.71-15.35 479.36-13.62L479.36-13.62L479.36-13.62Q481.00-11.89 482.34-9.02L482.34-9.02L482.34-9.02Q484.69-9.96 486.65-12.30L486.65-12.30L486.65-12.30Q488.61-14.65 490.20-17.55L490.20-17.55L490.20-17.55Q491.78-20.45 492.98-23.44L492.98-23.44L492.98-23.44Q494.18-26.43 495.06-28.65L495.06-28.65L497.34-28.07L497.34-28.07Q496.41-25.55 495.12-22.35L495.12-22.35L495.12-22.35Q493.83-19.16 492.13-16.14L492.13-16.14L492.13-16.14Q490.43-13.13 488.23-10.63L488.23-10.63L488.23-10.63Q486.04-8.14 483.22-7.09L483.22-7.09L483.22-7.09Q484.16-4.63 484.92-1.79L484.92-1.79L484.92-1.79Q485.68 1.05 486.24 4.04L486.24 4.04L486.24 4.04Q486.80 7.03 487.09 10.02L487.09 10.02L487.09 10.02Q487.38 13.01 487.38 15.82L487.38 15.82L487.38 15.82Q487.38 19.57 486.77 22.79L486.77 22.79L486.77 22.79Q486.15 26.02 484.95 28.39L484.95 28.39L484.95 28.39Q483.75 30.76 481.96 32.11L481.96 32.11L481.96 32.11Q480.18 33.46 477.77 33.46L477.77 33.46L477.77 33.46Q474.55 33.46 472.29 31.90L472.29 31.90L472.29 31.90Q470.04 30.35 468.52 27.77L468.52 27.77L468.52 27.77Q466.99 25.20 466.11 21.94L466.11 21.94L466.11 21.94Q465.23 18.69 464.79 15.29L464.79 15.29L464.79 15.29Q464.36 11.89 464.24 8.64L464.24 8.64L464.24 8.64Q464.12 5.39 464.12 2.87L464.12 2.87L464.12 2.87Q464.12-2.93 464.65-10.14L464.65-10.14L464.65-10.14Q465.18-17.34 466.05-24.90L466.05-24.90L466.05-24.90Q466.93-32.46 468.02-39.87L468.02-39.87L468.02-39.87Q469.10-47.29 470.19-53.58L470.19-53.58L470.19-53.58Q471.27-59.88 472.27-64.57L472.27-64.57L472.27-64.57Q473.26-69.26 473.96-71.31L473.96-71.31L473.96-71.31Q474.43-72.77 475.22-74.30L475.22-74.30L475.22-74.30Q476.02-75.82 477.13-77.05L477.13-77.05L477.13-77.05Q478.24-78.28 479.68-79.04L479.68-79.04L479.68-79.04Q481.11-79.80 482.99-79.80L482.99-79.80L482.99-79.80Q486.21-79.80 488.12-77.70L488.12-77.70L488.12-77.70Q490.02-75.59 490.02-71.89ZM476.84-67.09L476.84-67.09L476.84-67.09Q476.54-65.57 476.04-62.49L476.04-62.49L476.04-62.49Q475.55-59.41 474.99-55.22L474.99-55.22L474.99-55.22Q474.43-51.04 473.79-45.97L473.79-45.97L473.79-45.97Q473.14-40.90 472.50-35.51L472.50-35.51L472.50-35.51Q475.72-41.02 478.48-46.03L478.48-46.03L478.48-46.03Q481.23-51.04 483.25-55.58L483.25-55.58L483.25-55.58Q485.27-60.12 486.45-64.13L486.45-64.13L486.45-64.13Q487.62-68.14 487.62-71.78L487.62-71.78L487.62-71.78Q487.62-74.12 486.59-75.82L486.59-75.82L486.59-75.82Q485.57-77.52 483.22-77.52L483.22-77.52L483.22-77.52Q481.52-77.52 480.38-76.35L480.38-76.35L480.38-76.35Q479.24-75.18 478.54-73.54L478.54-73.54L478.54-73.54Q477.83-71.89 477.45-70.11L477.45-70.11L477.45-70.11Q477.07-68.32 476.84-67.09ZM474.90-11.66L474.90-11.66L474.90-11.66Q474.90-10.55 476.28-9.58L476.28-9.58L476.28-9.58Q477.66-8.61 479.47-8.50L479.47-8.50L479.47-8.50Q478.65-10.72 477.80-11.89L477.80-11.89L477.80-11.89Q476.95-13.07 476.13-13.07L476.13-13.07L476.13-13.07Q475.66-13.07 475.28-12.71L475.28-12.71L475.28-12.71Q474.90-12.36 474.90-11.66ZM517.50-13.54L517.50-13.54L517.50-13.54Q515.68-10.25 513.98-8.09L513.98-8.09L513.98-8.09Q512.29-5.92 510.62-4.63L510.62-4.63L510.62-4.63Q508.95-3.34 507.25-2.81L507.25-2.81L507.25-2.81Q505.55-2.29 503.73-2.29L503.73-2.29L503.73-2.29Q502.27-2.29 500.39-2.75L500.39-2.75L500.39-2.75Q498.52-3.22 496.85-4.72L496.85-4.72L496.85-4.72Q495.18-6.21 494.03-9.02L494.03-9.02L494.03-9.02Q492.89-11.84 492.89-16.58L492.89-16.58L492.89-16.58Q492.89-21.33 494.00-25.52L494.00-25.52L494.00-25.52Q495.12-29.71 496.46-32.87L496.46-32.87L496.46-32.87Q498.05-36.50 500.10-39.61L500.10-39.61L502.27-38.91L502.27-38.91Q502.21-38.85 501.88-37.85L501.88-37.85L501.88-37.85Q501.56-36.86 501.06-35.16L501.06-35.16L501.06-35.16Q500.57-33.46 500.01-31.23L500.01-31.23L500.01-31.23Q499.45-29.00 498.96-26.51L498.96-26.51L498.96-26.51Q498.46-24.02 498.13-21.45L498.13-21.45L498.13-21.45Q497.81-18.87 497.81-16.46L497.81-16.46L497.81-16.46Q497.81-10.96 499.78-7.76L499.78-7.76L499.78-7.76Q501.74-4.57 504.90-4.57L504.90-4.57L504.90-4.57Q508.42-4.57 511.70-8.64L511.70-8.64L511.70-8.64Q514.98-12.71 517.97-20.04L517.97-20.04L517.97-20.04Q518.50-23.44 519.40-26.37L519.40-26.37L519.40-26.37Q520.31-29.30 521.22-31.58L521.22-31.58L521.22-31.58Q522.13-33.87 522.89-35.39L522.89-35.39L522.89-35.39Q523.65-36.91 524.00-37.44L524.00-37.44L526.05-36.97L526.05-36.97Q525.12-32.58 524.44-29.09L524.44-29.09L524.44-29.09Q523.77-25.61 523.36-22.79L523.36-22.79L523.36-22.79Q522.95-19.98 522.74-17.78L522.74-17.78L522.74-17.78Q522.54-15.59 522.54-13.83L522.54-13.83L522.54-13.83Q522.54-10.31 523.65-8.20L523.65-8.20L523.65-8.20Q524.77-6.09 527.11-6.09L527.11-6.09L527.11-6.09Q528.69-6.09 530.16-7.27L530.16-7.27L530.16-7.27Q531.62-8.44 533.20-11.13L533.20-11.13L533.20-11.13Q534.79-13.83 536.54-18.11L536.54-18.11L536.54-18.11Q538.30-22.38 540.53-28.65L540.53-28.65L542.81-28.07L542.81-28.07Q541.82-25.61 540.82-22.79L540.82-22.79L540.82-22.79Q539.82-19.98 538.68-17.17L538.68-17.17L538.68-17.17Q537.54-14.36 536.28-11.78L536.28-11.78L536.28-11.78Q535.02-9.20 533.47-7.21L533.47-7.21L533.47-7.21Q531.91-5.21 530.10-4.04L530.10-4.04L530.10-4.04Q528.28-2.87 526.05-2.87L526.05-2.87L526.05-2.87Q523.95-2.87 522.36-3.69L522.36-3.69L522.36-3.69Q520.78-4.51 519.70-5.92L519.70-5.92L519.70-5.92Q518.61-7.32 518.06-9.29L518.06-9.29L518.06-9.29Q517.50-11.25 517.50-13.54ZM544.75-33.11L544.75-33.11L544.75-33.11Q544.10-31.41 543.49-29.77L543.49-29.77L543.49-29.77Q542.87-28.13 542.14-26.48L542.14-26.48L542.14-26.48Q541.41-24.84 540.41-23.26L540.41-23.26L540.41-23.26Q539.41-21.68 538.01-20.04L538.01-20.04L537.54-20.51L537.54-20.51Q539.06-24.20 540.23-28.07L540.23-28.07L540.23-28.07Q541.41-31.93 542.58-36.74L542.58-36.74L542.58-36.74Q542.29-37.56 542.05-38.14L542.05-38.14L542.05-38.14Q541.82-38.73 541.64-39.23L541.64-39.23L541.64-39.23Q541.46-39.73 541.35-40.28L541.35-40.28L541.35-40.28Q541.23-40.84 541.23-41.54L541.23-41.54L541.23-41.54Q541.23-42.48 541.49-43.62L541.49-43.62L541.49-43.62Q541.76-44.77 542.26-45.76L542.26-45.76L542.26-45.76Q542.75-46.76 543.40-47.43L543.40-47.43L543.40-47.43Q544.04-48.11 544.75-48.11L544.75-48.11L544.75-48.11Q545.57-48.11 546.06-47.72L546.06-47.72L546.06-47.72Q546.56-47.34 546.86-46.76L546.86-46.76L546.86-46.76Q547.15-46.17 547.27-45.53L547.27-45.53L547.27-45.53Q547.38-44.88 547.38-44.30L547.38-44.30L547.38-44.30Q547.38-43.42 547.18-42.28L547.18-42.28L547.18-42.28Q546.97-41.13 546.71-40.05L546.71-40.05L546.71-40.05Q546.45-38.96 546.24-38.14L546.24-38.14L546.24-38.14Q546.04-37.32 546.04-37.09L546.04-37.09L546.04-37.09Q546.50-35.51 547.65-33.87L547.65-33.87L547.65-33.87Q548.79-32.23 550.25-30.53L550.25-30.53L550.25-30.53Q551.72-28.83 553.33-26.98L553.33-26.98L553.33-26.98Q554.94-25.14 556.26-23.09L556.26-23.09L556.26-23.09Q557.58-21.04 558.43-18.72L558.43-18.72L558.43-18.72Q559.28-16.41 559.28-13.83L559.28-13.83L559.28-13.83Q559.28-10.14 558.19-7.85L558.19-7.85L558.19-7.85Q557.11-5.57 555.29-4.34L555.29-4.34L555.29-4.34Q557.93-5.39 560.24-8.09L560.24-8.09L560.24-8.09Q562.56-10.78 564.52-14.27L564.52-14.27L564.52-14.27Q566.48-17.75 568.15-21.56L568.15-21.56L568.15-21.56Q569.82-25.37 571.11-28.65L571.11-28.65L573.40-28.07L573.40-28.07Q571.41-22.97 569.18-18.11L569.18-18.11L569.18-18.11Q566.95-13.24 564.14-9.43L564.14-9.43L564.14-9.43Q561.33-5.63 557.78-3.28L557.78-3.28L557.78-3.28Q554.24-0.94 549.67-0.94L549.67-0.94L549.67-0.94Q548.44-0.94 547.18-1.14L547.18-1.14L547.18-1.14Q545.92-1.35 544.72-1.79L544.72-1.79L544.72-1.79Q543.52-2.23 542.46-2.99L542.46-2.99L542.46-2.99Q541.41-3.75 540.64-4.80L540.64-4.80L542.58-6.09L542.58-6.09Q543.11-5.27 544.22-4.57L544.22-4.57L544.22-4.57Q545.33-3.87 547.15-3.87L547.15-3.87L547.15-3.87Q548.91-3.87 550.22-4.60L550.22-4.60L550.22-4.60Q551.54-5.33 552.45-6.59L552.45-6.59L552.45-6.59Q553.36-7.85 553.80-9.55L553.80-9.55L553.80-9.55Q554.24-11.25 554.24-13.18L554.24-13.18L554.24-13.18Q554.24-17.17 553.10-20.04L553.10-20.04L553.10-20.04Q551.95-22.91 550.40-25.17L550.40-25.17L550.40-25.17Q548.85-27.42 547.24-29.30L547.24-29.30L547.24-29.30Q545.63-31.17 544.75-33.11ZM577.85-6.09L577.85-6.09L577.85-6.09Q574.16-6.09 571.73-9.08L571.73-9.08L571.73-9.08Q569.30-12.07 569.30-18.11L569.30-18.11L569.30-18.11Q569.30-22.09 570.91-28.27L570.91-28.27L570.91-28.27Q572.52-34.45 576.50-42.25L576.50-42.25L578.67-41.66L578.67-41.66Q578.32-40.14 577.53-37.50L577.53-37.50L577.53-37.50Q576.74-34.86 575.95-31.61L575.95-31.61L575.95-31.61Q575.16-28.36 574.57-24.81L574.57-24.81L574.57-24.81Q573.98-21.27 573.98-17.99L573.98-17.99L573.98-17.99Q573.98-15.23 574.39-13.51L574.39-13.51L574.39-13.51Q574.80-11.78 575.48-10.81L575.48-10.81L575.48-10.81Q576.15-9.84 577.06-9.49L577.06-9.49L577.06-9.49Q577.97-9.14 579.02-9.14L579.02-9.14L579.02-9.14Q580.72-9.14 582.25-10.20L582.25-10.20L582.25-10.20Q583.77-11.25 585.15-12.98L585.15-12.98L585.15-12.98Q586.52-14.71 587.72-16.85L587.72-16.85L587.72-16.85Q588.93-18.98 589.89-21.15L589.89-21.15L589.89-21.15Q590.86-23.32 591.62-25.28L591.62-25.28L591.62-25.28Q592.38-27.25 592.85-28.65L592.85-28.65L595.14-28.07L595.14-28.07Q594.49-26.31 593.64-23.99L593.64-23.99L593.64-23.99Q592.79-21.68 591.71-19.22L591.71-19.22L591.71-19.22Q590.63-16.76 589.28-14.41L589.28-14.41L589.28-14.41Q587.93-12.07 586.23-10.22L586.23-10.22L586.23-10.22Q584.53-8.38 582.45-7.24L582.45-7.24L582.45-7.24Q580.37-6.09 577.85-6.09ZM587.34-60.70L587.34-60.70L587.34-60.70Q587.34-58.65 585.76-57.54L585.76-57.54L585.76-57.54Q584.18-56.43 581.78-56.43L581.78-56.43L581.78-56.43Q580.55-56.43 579.46-56.81L579.46-56.81L579.46-56.81Q578.38-57.19 577.59-57.80L577.59-57.80L577.59-57.80Q576.80-58.42 576.36-59.27L576.36-59.27L576.36-59.27Q575.92-60.12 575.92-61.05L575.92-61.05L575.92-61.05Q575.92-63.05 577.47-64.28L577.47-64.28L577.47-64.28Q579.02-65.51 581.07-65.51L581.07-65.51L581.07-65.51Q582.54-65.51 583.71-65.07L583.71-65.07L583.71-65.07Q584.88-64.63 585.70-63.93L585.70-63.93L585.70-63.93Q586.52-63.22 586.93-62.37L586.93-62.37L586.93-62.37Q587.34-61.52 587.34-60.70ZM584.18-60.70L584.18-60.70L584.18-60.70Q584.18-61.29 583.68-61.79L583.68-61.79L583.68-61.79Q583.18-62.29 582.19-62.29L582.19-62.29L582.19-62.29Q580.37-62.29 580.37-60.94L580.37-60.94L580.37-60.94Q580.37-60.29 580.93-59.85L580.93-59.85L580.93-59.85Q581.48-59.41 582.42-59.41L582.42-59.41L582.42-59.41Q583.30-59.41 583.74-59.79L583.74-59.79L583.74-59.79Q584.18-60.18 584.18-60.70ZM607.50-5.27L607.50-5.27L607.50-5.27Q610.78-5.27 613.80-7.68L613.80-7.68L613.80-7.68Q616.82-10.08 618.52-14.65L618.52-14.65L618.05-14.65L618.05-14.65Q614.41-14.65 611.34-15.88L611.34-15.88L611.34-15.88Q608.26-17.11 606.01-19.31L606.01-19.31L606.01-19.31Q603.75-21.50 602.46-24.58L602.46-24.58L602.46-24.58Q601.17-27.66 601.17-31.35L601.17-31.35L601.17-31.35Q601.17-33.40 601.73-35.51L601.73-35.51L601.73-35.51Q602.29-37.62 603.46-39.29L603.46-39.29L603.46-39.29Q604.63-40.96 606.50-42.01L606.50-42.01L606.50-42.01Q608.38-43.07 610.96-43.07L610.96-43.07L610.96-43.07Q613.07-43.07 615.12-42.22L615.12-42.22L615.12-42.22Q617.17-41.37 618.81-39.32L618.81-39.32L618.81-39.32Q620.45-37.27 621.47-33.78L621.47-33.78L621.47-33.78Q622.50-30.29 622.50-24.96L622.50-24.96L622.50-24.96Q622.50-22.97 622.32-21.01L622.32-21.01L622.32-21.01Q622.15-19.04 621.68-17.17L621.68-17.17L621.68-17.17Q623.96-17.58 625.75-18.63L625.75-18.63L625.75-18.63Q627.54-19.69 628.92-21.18L628.92-21.18L628.92-21.18Q630.29-22.68 631.35-24.58L631.35-24.58L631.35-24.58Q632.40-26.48 633.28-28.65L633.28-28.65L635.57-28.07L635.57-28.07Q634.34-24.73 632.72-22.38L632.72-22.38L632.72-22.38Q631.11-20.04 629.27-18.46L629.27-18.46L629.27-18.46Q627.42-16.88 625.40-16.03L625.40-16.03L625.40-16.03Q623.38-15.18 621.21-14.88L621.21-14.88L621.21-14.88Q620.39-12.01 619.04-9.49L619.04-9.49L619.04-9.49Q617.70-6.97 615.76-5.10L615.76-5.10L615.76-5.10Q613.83-3.22 611.28-2.14L611.28-2.14L611.28-2.14Q608.73-1.05 605.57-1.05L605.57-1.05L605.57-1.05Q602.93-1.05 600.26-2.14L600.26-2.14L600.26-2.14Q597.60-3.22 595.46-5.48L595.46-5.48L595.46-5.48Q593.32-7.73 592.00-11.16L592.00-11.16L592.00-11.16Q590.68-14.59 590.68-19.34L590.68-19.34L590.68-19.34Q590.68-22.44 591.42-25.43L591.42-25.43L591.42-25.43Q592.15-28.42 593.47-31.08L593.47-31.08L593.47-31.08Q594.79-33.75 596.60-36.06L596.60-36.06L596.60-36.06Q598.42-38.38 600.53-40.08L600.53-40.08L601.41-38.61L601.41-38.61Q600.06-37.38 598.83-35.57L598.83-35.57L598.83-35.57Q597.60-33.75 596.60-31.55L596.60-31.55L596.60-31.55Q595.61-29.36 595.02-26.92L595.02-26.92L595.02-26.92Q594.43-24.49 594.43-22.09L594.43-22.09L594.43-22.09Q594.43-17.34 595.63-14.12L595.63-14.12L595.63-14.12Q596.84-10.90 598.71-8.94L598.71-8.94L598.71-8.94Q600.59-6.97 602.93-6.12L602.93-6.12L602.93-6.12Q605.27-5.27 607.50-5.27ZM610.84-40.78L610.84-40.78L610.84-40.78Q609.26-40.78 607.91-40.11L607.91-40.11L607.91-40.11Q606.56-39.43 605.57-38.26L605.57-38.26L605.57-38.26Q604.57-37.09 603.98-35.45L603.98-35.45L603.98-35.45Q603.40-33.81 603.40-31.82L603.40-31.82L603.40-31.82Q603.40-28.36 604.57-25.61L604.57-25.61L604.57-25.61Q605.74-22.85 607.76-20.92L607.76-20.92L607.76-20.92Q609.79-18.98 612.48-17.96L612.48-17.96L612.48-17.96Q615.18-16.93 618.28-16.93L618.28-16.93L619.39-16.93L619.39-16.93Q619.86-18.75 620.04-20.74L620.04-20.74L620.04-20.74Q620.21-22.73 620.21-25.08L620.21-25.08L620.21-25.08Q620.10-29.59 619.31-32.61L619.31-32.61L619.31-32.61Q618.52-35.63 617.29-37.44L617.29-37.44L617.29-37.44Q616.05-39.26 614.38-40.02L614.38-40.02L614.38-40.02Q612.71-40.78 610.84-40.78ZM635.57-28.07L633.28-28.65L633.28-28.65Q634.16-30.94 635.19-33.02L635.19-33.02L635.19-33.02Q636.21-35.10 637.38-36.68L637.38-36.68L637.38-36.68Q638.55-38.26 639.93-39.23L639.93-39.23L639.93-39.23Q641.31-40.20 643.01-40.20L643.01-40.20L643.01-40.20Q643.83-40.20 644.88-39.84L644.88-39.84L644.88-39.84Q645.94-39.49 646.90-38.44L646.90-38.44L646.90-38.44Q647.87-37.38 648.52-35.39L648.52-35.39L648.52-35.39Q649.16-33.40 649.16-30.12L649.16-30.12L649.16-30.12Q649.16-28.42 648.98-26.37L648.98-26.37L648.98-26.37Q648.81-24.32 648.63-22.32L648.63-22.32L648.63-22.32Q650.45-26.19 652.24-28.86L652.24-28.86L652.24-28.86Q654.02-31.52 655.75-33.13L655.75-33.13L655.75-33.13Q657.48-34.75 659.18-35.48L659.18-35.48L659.18-35.48Q660.88-36.21 662.58-36.21L662.58-36.21L662.58-36.21Q663.34-36.21 664.37-35.86L664.37-35.86L664.37-35.86Q665.39-35.51 666.30-34.63L666.30-34.63L666.30-34.63Q667.21-33.75 667.82-32.23L667.82-32.23L667.82-32.23Q668.44-30.70 668.44-28.30L668.44-28.30L668.44-28.30Q668.44-26.37 668.14-24.43L668.14-24.43L668.14-24.43Q667.85-22.50 667.50-20.68L667.50-20.68L667.50-20.68Q667.15-18.87 666.86-17.26L666.86-17.26L666.86-17.26Q666.56-15.64 666.56-14.41L666.56-14.41L666.56-14.41Q666.56-11.48 667.62-9.93L667.62-9.93L667.62-9.93Q668.67-8.38 670.84-8.38L670.84-8.38L670.84-8.38Q672.60-8.38 674.18-9.70L674.18-9.70L674.18-9.70Q675.76-11.02 677.14-13.07L677.14-13.07L677.14-13.07Q678.52-15.12 679.66-17.58L679.66-17.58L679.66-17.58Q680.80-20.04 681.65-22.29L681.65-22.29L681.65-22.29Q682.50-24.55 683.09-26.28L683.09-26.28L683.09-26.28Q683.67-28.01 683.91-28.65L683.91-28.65L686.19-28.07L686.19-28.07Q685.37-26.02 684.46-23.53L684.46-23.53L684.46-23.53Q683.55-21.04 682.44-18.52L682.44-18.52L682.44-18.52Q681.33-16.00 680.04-13.62L680.04-13.62L680.04-13.62Q678.75-11.25 677.17-9.43L677.17-9.43L677.17-9.43Q675.59-7.62 673.74-6.50L673.74-6.50L673.74-6.50Q671.89-5.39 669.67-5.39L669.67-5.39L669.67-5.39Q667.79-5.39 666.42-6.12L666.42-6.12L666.42-6.12Q665.04-6.86 664.10-8.09L664.10-8.09L664.10-8.09Q663.16-9.32 662.70-11.02L662.70-11.02L662.70-11.02Q662.23-12.71 662.23-14.65L662.23-14.65L662.23-14.65Q662.23-16.82 662.61-19.10L662.61-19.10L662.61-19.10Q662.99-21.39 663.43-23.50L663.43-23.50L663.43-23.50Q663.87-25.61 664.25-27.39L664.25-27.39L664.25-27.39Q664.63-29.18 664.63-30.35L664.63-30.35L664.63-30.35Q664.63-32.17 663.93-33.08L663.93-33.08L663.93-33.08Q663.22-33.98 661.99-33.98L661.99-33.98L661.99-33.98Q660.29-33.98 658.68-32.75L658.68-32.75L658.68-32.75Q657.07-31.52 655.58-29.47L655.58-29.47L655.58-29.47Q654.08-27.42 652.73-24.79L652.73-24.79L652.73-24.79Q651.39-22.15 650.24-19.37L650.24-19.37L650.24-19.37Q649.10-16.58 648.13-13.83L648.13-13.83L648.13-13.83Q647.17-11.07 646.46-8.85L646.46-8.85L646.46-8.85Q645.76-6.62 645.26-5.07L645.26-5.07L645.26-5.07Q644.77-3.52 644.59-3.11L644.59-3.11L641.19-3.69L641.19-3.69Q641.89-7.15 642.48-10.99L642.48-10.99L642.48-10.99Q643.07-14.82 643.51-18.54L643.51-18.54L643.51-18.54Q643.95-22.27 644.21-25.66L644.21-25.66L644.21-25.66Q644.47-29.06 644.47-31.70L644.47-31.70L644.47-31.70Q644.47-35.27 644.00-36.53L644.00-36.53L644.00-36.53Q643.54-37.79 642.30-37.79L642.30-37.79L642.30-37.79Q641.25-37.79 640.31-37.00L640.31-37.00L640.31-37.00Q639.38-36.21 638.58-34.89L638.58-34.89L638.58-34.89Q637.79-33.57 637.03-31.82L637.03-31.82L637.03-31.82Q636.27-30.06 635.57-28.07L635.57-28.07Z" fill="url(#editing-shiny-gradient2)"></path></g></g><style>text {
  font-size: 64px;
  font-family: Arial Black;
  dominant-baseline: central;
  text-anchor: middle;
}</style></svg>