<svg width="438.582470703125px" height="99.89990234375px" xmlns="http://www.w3.org/2000/svg" viewBox="30.708764648437494 25.050048828125 438.582470703125 99.89990234375" style="background: rgba(0, 0, 0, 0);" preserveAspectRatio="xMidYMid"><defs><linearGradient id="editing-shiny-gradient" x1="0.04322727117869957" x2="0.9567727288213004" y1="0.2966316784620999" y2="0.7033683215379001" gradientUnits="objectBoundingBox"><stop offset="0.0" stop-color="#ffb200"></stop><stop offset="0.5" stop-color="#e10057"></stop><stop offset="1.0" stop-color="#5A1A80"></stop></linearGradient><linearGradient id="editing-shiny-gradient2" x1="0" x2="0" y1="0" y2="1"><stop offset="0.2" stop-color="#fff" stop-opacity="0.8"></stop><stop offset="0.8" stop-color="#fff" stop-opacity="0"></stop></linearGradient><filter id="editing-shiny2" x="-100%" y="-100%" width="300%" height="300%"><feMorphology operator="erode" radius="2"></feMorphology></filter><filter id="editing-shiny" x="-100%" y="-100%" width="300%" height="300%"><feFlood flood-color="#fff" result="flood"></feFlood><feConvolveMatrix in="SourceGraphic" result="conv" order="8,8" divisor="1" kernelMatrix="0 0 0 0 0 0 0 0 0 0 0 1 1 0 0 0 0 0 0 1 1 0 0 0 0 0 1 0 0 1 0 0 0 0 1 0 0 1 0 0 0 1 0 0 0 0 1 0 0 1 1 0 0 1 1 0 0 0 0 1 1 0 0 0 "></feConvolveMatrix><feOffset dx="0" dy="4" in="conv" result="offset"></feOffset><feComposite operator="in" in="flood" in2="offset" result="comp"></feComposite><feGaussianBlur in="offset" stdDeviation="3" result="shadow"></feGaussianBlur><feColorMatrix in="shadow" type="matrix" values="0.7 0 0 0 0  0 0.7 0 0 0  0 0 0.7 0 0  0 0 0 0.3 0" result="dark-shadow"></feColorMatrix><feOffset dx="0" dy="4" in="dark-shadow" result="offset-shadow"></feOffset><feOffset dx="0" dy="2" in="conv" result="offset-2"></feOffset><feComposite operator="out" in="offset" in2="offset-2" result="edge-diff"></feComposite><feGaussianBlur in="edge-diff" stdDeviation="1" result="edge-blur"></feGaussianBlur><feColorMatrix in="edge-blur" result="edge-shadow" type="matrix" values="0 0 0 0 0  0 0 0 0 0  0 0 0 0 0  0 0 0 0.5 0"></feColorMatrix><feComposite operator="in" in="edge-shadow" in2="offset" result="edge-shadow-in"></feComposite><feOffset dx="0" dy="1" in="edge-shadow-in" result="edge-shadow-final"></feOffset><feMerge result="out"><feMergeNode in="offset-shadow"></feMergeNode><feMergeNode in="comp"></feMergeNode><feMergeNode in="edge-shadow-final"></feMergeNode><feMergeNode in="SourceGraphic"></feMergeNode></feMerge></filter></defs><g filter="url(#editing-shiny)"><g transform="translate(94.49998903274536, 96.22000122070312)"><path d="M26.37-32.81L26.37-32.81L26.37-32.81Q26.88-32.81 27.19-32.50L27.19-32.50L27.19-32.50Q27.50-32.20 27.50-31.87L27.50-31.87L27.50-31.87Q27.50-31.54 27.07-31.02L27.07-31.02L27.07-31.02Q20.73-23.73 12.53-12.71L12.53-12.71L12.53-12.71Q4.32-1.69 2.82 2.26L2.82 2.26L2.82 2.26Q2.54 3.10 2.54 3.88L2.54 3.88L2.54 3.88Q2.54 4.65 2.91 4.82L2.91 4.82L2.91 4.82Q3.29 4.98 3.06 5.36L3.06 5.36L3.06 5.36Q2.73 5.83 2.07 5.83L2.07 5.83L2.07 5.83Q1.27 5.83 1.27 4.28L1.27 4.28L1.27 4.28Q1.27 2.73 2.30-0.09L2.30-0.09L2.30-0.09Q3.76-4.09 14.57-18.61L14.57-18.61L14.57-18.61Q25.24-32.81 26.37-32.81ZM65.56-20.12L65.56-20.12L65.56-20.12Q63.83-19.41 62.58-19.41L62.58-19.41L62.58-19.41Q61.34-19.41 61.34-19.93L61.34-19.93L61.34-19.93Q61.34-20.26 62.72-20.30L62.72-20.30L62.72-20.30Q64.11-20.35 64.72-20.63L64.72-20.63L64.72-20.63Q66.50-21.57 66.50-23.41L66.50-23.41L66.50-23.41Q66.50-24.35 65.99-25.38L65.99-25.38L65.99-25.38Q64.48-28.06 58.70-28.06L58.70-28.06L58.70-28.06Q55.37-28.06 52.03-27.05L52.03-27.05L52.03-27.05Q48.69-26.04 46.44-23.95L46.44-23.95L46.44-23.95Q44.18-21.86 44.18-20.07L44.18-20.07L44.18-20.07Q44.18-17.34 49.59-16.07L49.59-16.07L55.13-15.04L55.13-15.04Q58.47-14.43 60.11-13.35L60.11-13.35L60.11-13.35Q62.28-12.03 62.28-9.59L62.28-9.59L62.28-9.59Q62.28-8.60 61.95-7.47L61.95-7.47L61.95-7.47Q60.44-2.40 54.19 0.28L54.19 0.28L54.19 0.28Q48.97 2.58 41.88 2.58L41.88 2.58L41.88 2.58Q39.86 2.58 38.35 2.40L38.35 2.40L38.35 2.40Q39.86 3.24 42.30 3.85L42.30 3.85L42.30 3.85Q42.49 3.90 42.49 4.04L42.49 4.04L42.49 4.04Q42.49 4.46 41.50 4.46L41.50 4.46L41.50 4.46Q39.57 4.46 36.71 2.16L36.71 2.16L36.71 2.16Q32.81 1.55 30.88 0L30.88 0L30.88 0Q29.66-0.99 28.62-2.91L28.62-2.91L28.62-2.91Q27.59-4.84 27.59-6.39L27.59-6.39L27.59-6.39Q27.59-7.94 28.20-8.98L28.20-8.98L28.20-8.98Q29.61-11.47 31.77-11.47L31.77-11.47L31.77-11.47Q33.42-11.47 33.70-8.70L33.70-8.70L33.70-8.70Q34.36-3.34 34.59-2.58L34.59-2.58L34.59-2.58Q35.30-0.28 36.99 1.32L36.99 1.32L36.99 1.32Q38.96 1.74 41.27 1.74L41.27 1.74L41.27 1.74Q46.34 1.74 51.23-0.28L51.23-0.28L51.23-0.28Q56.12-2.30 58.28-6.02L58.28-6.02L58.28-6.02Q59.17-7.47 59.17-8.60L59.17-8.60L59.17-8.60Q59.17-10.81 55.27-12.03L55.27-12.03L47-13.91L47-13.91Q44.46-14.52 42.93-15.93L42.93-15.93L42.93-15.93Q41.41-17.34 41.41-19.18L41.41-19.18L41.41-19.18Q41.41-22.00 44.93-24.82L44.93-24.82L44.93-24.82Q47.61-26.98 51.49-28.18L51.49-28.18L51.49-28.18Q55.37-29.38 59.10-29.38L59.10-29.38L59.10-29.38Q62.84-29.38 65.28-28.29L65.28-28.29L65.28-28.29Q68.43-26.84 68.43-24.04L68.43-24.04L68.43-24.04Q68.43-21.24 65.56-20.12ZM35.30 0.85L35.30 0.85L35.30 0.85Q32.57-2.16 31.82-7.38L31.82-7.38L31.82-7.38Q31.40-10.34 31.02-10.34L31.02-10.34L31.02-10.34Q30.64-10.34 30.32-10.13L30.32-10.13L30.32-10.13Q29.99-9.92 29.66-9.21L29.66-9.21L29.66-9.21Q29.33-8.51 29.33-7.38L29.33-7.38L29.33-7.38Q29.33-3.76 31.87-1.18L31.87-1.18L31.87-1.18Q33.14 0.14 35.30 0.85ZM75.81-15.13L75.81-15.13L82.58-15.23L82.58-15.23Q82.72-15.13 82.72-15.09L82.72-15.09L82.72-15.09Q82.72-14.66 76.87-13.91L76.87-13.91L76.87-13.91Q71.02-13.16 70.55-13.02L70.55-13.02L70.55-13.02Q69.65-12.22 67.26-8.25L67.26-8.25L67.26-8.25Q64.86-4.28 64.86-2.44L64.86-2.44L64.86-2.44Q64.86-0.70 67.26-0.70L67.26-0.70L67.26-0.70Q68.38-0.70 70.22-1.41L70.22-1.41L70.22-1.41Q72.05-2.12 73.04-2.73L73.04-2.73L73.04-2.73Q75.67-4.37 78.68-7.57L78.68-7.57L78.68-7.57Q79.34-8.22 79.57-8.22L79.57-8.22L79.57-8.22Q79.71-8.22 79.71-7.94L79.71-7.94L79.71-7.94Q79.71-7.66 79.01-6.82L79.01-6.82L79.01-6.82Q76.56-3.81 73.51-1.97L73.51-1.97L73.51-1.97Q69.84 0.28 66.50 0.28L66.50 0.28L66.50 0.28Q65.05 0.28 64.13-0.35L64.13-0.35L64.13-0.35Q63.21-0.99 63.21-2.91L63.21-2.91L63.21-2.91Q63.21-4.84 64.91-8.20L64.91-8.20L64.91-8.20Q66.60-11.56 67.49-13.21L67.49-13.21L67.49-13.21Q66.83-13.07 66.36-13.07L66.36-13.07L66.36-13.07Q65.00-13.07 65.00-14.15L65.00-14.15L65.00-14.15Q65.00-14.95 66.13-15.28L66.13-15.28L66.13-15.28Q66.27-15.28 66.55-15.32L66.55-15.32L69.28-15.32L69.28-15.32Q70.12-16.40 71.20-17.81L71.20-17.81L71.20-17.81Q72.52-19.50 72.99-19.50L72.99-19.50L72.99-19.50Q73.46-19.50 74.17-19.13L74.17-19.13L74.17-19.13Q74.87-18.75 74.87-18.24L74.87-18.24L74.87-18.24Q74.87-17.72 72.61-15.18L72.61-15.18L72.61-15.18Q73.84-15.13 75.81-15.13ZM93.11-14.05L93.11-14.05L93.77-14.19L93.77-14.19Q94.28-14.19 94.75-13.77L94.75-13.77L94.75-13.77Q95.22-13.35 95.22-13.11L95.22-13.11L95.22-13.11Q95.22-12.88 92.31-8.58L92.31-8.58L92.31-8.58Q89.39-4.28 89.39-2.58L89.39-2.58L89.39-2.58Q89.39-2.44 89.44-2.30L89.44-2.30L89.44-2.30Q89.68-1.22 90.47-1.22L90.47-1.22L90.47-1.22Q92.92-1.22 99.41-9.31L99.41-9.31L99.41-9.31Q99.55-9.49 99.73-9.49L99.73-9.49L99.73-9.49Q99.92-9.49 99.92-9.14L99.92-9.14L99.92-9.14Q99.92-8.79 99.50-8.22L99.50-8.22L99.50-8.22Q93.48-0.19 90.33-0.19L90.33-0.19L90.33-0.19Q89.91-0.19 89.53-0.33L89.53-0.33L89.53-0.33Q87.47-1.13 87.47-3.43L87.47-3.43L87.47-3.43Q87.47-4.23 87.66-5.03L87.66-5.03L84.74-2.21L84.74-2.21Q81.97 0.23 80.72 0.23L80.72 0.23L80.72 0.23Q79.48 0.23 78.35-0.56L78.35-0.56L78.35-0.56Q77.08-1.50 77.08-3.06L77.08-3.06L77.08-3.06Q77.08-6.49 81.87-11.26L81.87-11.26L81.87-11.26Q86.67-16.03 90.66-16.03L90.66-16.03L90.66-16.03Q92.21-16.03 92.73-14.95L92.73-14.95L92.73-14.95Q92.87-14.57 92.97-14.31L92.97-14.31L92.97-14.31Q93.06-14.05 93.11-14.05ZM79.05-2.49L79.05-2.49L79.05-2.49Q79.05-0.80 80.23-0.80L80.23-0.80L80.23-0.80Q82.95-0.80 87.66-6.77L87.66-6.77L92.64-13.63L92.64-13.63Q92.26-14.29 91.42-14.29L91.42-14.29L91.42-14.29Q88.55-14.29 83.80-9.85L83.80-9.85L83.80-9.85Q79.05-5.41 79.05-2.49ZM107.58-11.70L107.58-11.70L107.58-11.70Q107.58-14.90 109.56-14.90L109.56-14.90L109.56-14.90Q109.75-14.90 109.98-14.85L109.98-14.85L109.98-14.85Q110.78-14.71 110.78-13.63L110.78-13.63L110.78-13.63Q110.78-12.55 110.40-10.90L110.40-10.90L110.40-10.90Q110.03-9.68 109.89-9.07L109.89-9.07L109.89-9.07Q110.03-8.27 110.66-7.03L110.66-7.03L110.66-7.03Q111.30-5.78 112.40-5.78L112.40-5.78L112.40-5.78Q113.51-5.78 114.87-7.29L114.87-7.29L114.87-7.29Q115.15-7.61 115.41-7.61L115.41-7.61L115.41-7.61Q115.67-7.61 115.69-7.31L115.69-7.31L115.69-7.31Q115.71-7.00 115.34-6.49L115.34-6.49L115.34-6.49Q113.88-4.75 112.28-4.75L112.28-4.75L112.28-4.75Q109.98-4.75 108.57-8.13L108.57-8.13L108.57-8.13Q107.11-4.79 104.43-2.37L104.43-2.37L104.43-2.37Q101.76 0.05 99.12 0.05L99.12 0.05L99.12 0.05Q96.63 0.05 96.63-3.71L96.63-3.71L96.63-3.71Q96.63-6.67 102.15-14.62L102.15-14.62L102.15-14.62Q107.68-22.56 110.59-22.56L110.59-22.56L110.59-22.56Q111.20-22.56 111.70-22.18L111.70-22.18L111.70-22.18Q112.19-21.81 112.19-21.29L112.19-21.29L112.19-21.29Q112.19-21.34 111.51-20.59L111.51-20.59L111.51-20.59Q110.83-19.83 107.79-16.54L107.79-16.54L107.79-16.54Q104.76-13.25 101.85-9.31L101.85-9.31L101.85-9.31Q98.94-5.36 98.94-3.20L98.94-3.20L98.94-3.20Q98.94-2.63 99.24-1.97L99.24-1.97L99.24-1.97Q99.55-1.32 100.25-1.32L100.25-1.32L100.25-1.32Q102.32-1.32 105.09-4.51L105.09-4.51L105.09-4.51Q107.40-7.33 107.91-9.26L107.91-9.26L107.91-9.26Q107.58-10.25 107.58-11.70ZM115.86-2.35L115.86-2.35L115.86-2.35Q115.86-0.94 117.41-0.94L117.41-0.94L117.41-0.94Q118.96-0.94 121.40-2.58L121.40-2.58L121.40-2.58Q123.84-4.23 126.15-7.05L126.15-7.05L126.15-7.05Q126.71-7.80 127.04-7.80L127.04-7.80L127.04-7.80Q127.37-7.80 127.37-7.52L127.37-7.52L127.37-7.52Q127.37-7.24 125.44-5.08L125.44-5.08L125.44-5.08Q120.74 0.09 117.59 0.09L117.59 0.09L117.59 0.09Q116.04 0.09 114.96-0.63L114.96-0.63L114.96-0.63Q113.88-1.36 113.88-2.89L113.88-2.89L113.88-2.89Q113.88-4.42 114.68-6.44L114.68-6.44L114.68-6.44Q116.04-9.63 119.05-14.48L119.05-14.48L119.05-14.48Q124.55-23.41 126.85-23.41L126.85-23.41L126.85-23.41Q127.32-23.41 127.82-23.05L127.82-23.05L127.82-23.05Q128.31-22.70 128.36-22.28L128.36-22.28L128.36-22.28Q127.28-20.82 124.20-16.68L124.20-16.68L124.20-16.68Q121.12-12.55 119.94-10.74L119.94-10.74L119.94-10.74Q118.77-8.93 118.18-8.04L118.18-8.04L118.18-8.04Q117.59-7.14 117.31-6.65L117.31-6.65L117.31-6.65Q117.03-6.16 116.65-5.36L116.65-5.36L116.65-5.36Q115.86-3.76 115.86-2.35ZM127.84 0.61L127.84 0.61L127.84 0.61Q127.32 0.61 126.90 0.47L126.90 0.47L126.90 0.47Q123.89-0.38 123.89-2.91L123.89-2.91L123.89-2.91Q123.89-6.20 128.03-10.53L128.03-10.53L128.03-10.53Q132.16-14.85 135.45-14.85L135.45-14.85L135.45-14.85Q136.54-14.85 137.22-14.26L137.22-14.26L137.22-14.26Q137.90-13.68 137.90-12.83L137.90-12.83L137.90-12.83Q137.90-10.20 133.93-7.80L133.93-7.80L133.93-7.80Q129.96-5.41 127.46-5.41L127.46-5.41L127.46-5.41Q127.09-5.41 126.81-5.50L126.81-5.50L126.81-5.50Q126.10-4.23 126.10-2.82L126.10-2.82L126.10-2.82Q126.10-0.38 128.43-0.38L128.43-0.38L128.43-0.38Q130.75-0.38 134.47-3.52L134.47-3.52L134.47-3.52Q137.33-5.83 139.36-8.41L139.36-8.41L139.36-8.41Q139.78-8.98 140.08-8.98L140.08-8.98L140.08-8.98Q140.39-8.98 140.39-8.70L140.39-8.70L140.39-8.70Q140.39-8.41 140.01-7.90L140.01-7.90L140.01-7.90Q137.48-4.56 133.90-1.97L133.90-1.97L133.90-1.97Q130.33 0.61 127.84 0.61ZM136.72-12.93L136.72-12.93L136.72-12.93Q136.72-13.49 135.52-13.49L135.52-13.49L135.52-13.49Q134.33-13.49 132.12-11.66L132.12-11.66L132.12-11.66Q129.16-9.21 127.51-6.53L127.51-6.53L127.51-6.53Q127.79-6.44 128.12-6.44L128.12-6.44L128.12-6.44Q129.91-6.44 132.89-8.34L132.89-8.34L132.89-8.34Q135.88-10.25 136.63-12.50L136.63-12.50L136.63-12.50Q136.72-12.74 136.72-12.93ZM142.46-12.22L142.46-12.22L147.02-12.17L147.02-12.17Q149.74-12.17 150.92-12.31L150.92-12.31L150.92-12.31Q150.96-12.27 150.96-12.17L150.96-12.17L150.96-12.17Q150.96-11.47 147.25-10.81L147.25-10.81L147.25-10.81Q145.23-10.53 143.47-10.22L143.47-10.22L143.47-10.22Q141.71-9.92 141.21-9.92L141.21-9.92L141.21-9.92Q140.72-9.92 139.57-10.13L139.57-10.13L139.57-10.13Q138.42-10.34 138.42-11.04L138.42-11.04L138.42-11.04Q138.42-11.52 138.81-11.84L138.81-11.84L138.81-11.84Q139.21-12.17 139.50-12.17L139.50-12.17L139.50-12.17Q139.78-12.17 140.06-12.22L140.06-12.22L141.28-12.22L141.28-12.22Q141.80-12.22 142.46-12.22ZM160.27-1.18L160.27-1.18L160.27-1.18Q156.13 2.02 154.21 2.02L154.21 2.02L154.21 2.02Q153.17 2.02 152.68 1.01L152.68 1.01L152.68 1.01Q152.19 0 152.19-1.18L152.19-1.18L152.19-1.18Q152.19-3.43 154.09-7.94L154.09-7.94L154.09-7.94Q155.99-12.46 157.73-12.46L157.73-12.46L157.73-12.46Q158.63-12.46 159.26-8.93L159.26-8.93L159.26-8.93Q159.89-5.41 160.55-3.81L160.55-3.81L160.55-3.81Q163.75-7.19 169.81-15.09L169.81-15.09L169.81-15.09Q177.43-25.10 179.92-26.04L179.92-26.04L179.92-26.04Q180.76-26.37 181.66-26.37L181.66-26.37L181.66-26.37Q182.55-26.37 183.14-25.99L183.14-25.99L183.14-25.99Q183.72-25.61 183.72-25.05L183.72-25.05L183.72-25.05Q183.72-24.25 182.36-24.11L182.36-24.11L182.36-24.11Q180.72-23.22 177.28-19.79L177.28-19.79L177.28-19.79Q173.85-16.45 171.79-13.54L171.79-13.54L171.79-13.54Q166.76-6.53 161.45-2.12L161.45-2.12L161.45-2.12Q164.08 1.79 169.72 1.79L169.72 1.79L169.72 1.79Q170.33 1.79 171.55 1.69L171.55 1.69L171.55 1.69Q184.62 0.47 190.07-9.63L190.07-9.63L190.07-9.63Q192.28-13.68 192.28-17.63L192.28-17.63L192.28-17.63Q192.28-21.57 189.41-24.72L189.41-24.72L189.41-24.72Q187.11-27.31 184.40-27.92L184.40-27.92L184.40-27.92Q181.70-28.53 178.88-28.53L178.88-28.53L178.88-28.53Q171.64-28.53 165.53-25.19L165.53-25.19L165.53-25.19Q159.10-21.67 159.10-17.30L159.10-17.30L159.10-17.30Q159.10-16.12 159.73-15.37L159.73-15.37L159.73-15.37Q160.36-14.62 160.60-14.52L160.60-14.52L160.32-14.52L160.32-14.52Q159.10-14.76 158.16-15.74L158.16-15.74L158.16-15.74Q157.12-16.97 157.12-18.33L157.12-18.33L157.12-18.33Q157.12-23.03 163.02-26.41L163.02-26.41L163.02-26.41Q168.92-29.80 176.86-29.80L176.86-29.80L176.86-29.80Q180.53-29.80 184.38-28.95L184.38-28.95L184.38-28.95Q188.24-28.11 191.38-24.91L191.38-24.91L191.38-24.91Q195.00-21.15 195.00-16.40L195.00-16.40L195.00-16.40Q195.00-12.88 192.94-9.12L192.94-9.12L192.94-9.12Q189.36-2.63 182.27 0.38L182.27 0.38L182.27 0.38Q176.58 2.77 170.00 2.77L170.00 2.77L170.00 2.77Q163.42 2.77 160.27-1.18ZM153.88-1.36L153.88-1.36L153.88-1.36Q153.88 0.09 154.44 1.18L154.44 1.18L154.44 1.18Q156.46 0.28 159.33-2.54L159.33-2.54L159.33-2.54Q157.97-4.79 157.61-6.09L157.61-6.09L157.61-6.09Q157.26-7.38 157.12-9.49L157.12-9.49L157.12-9.49Q153.88-4.84 153.88-1.36ZM160.60-14.52L160.60-14.52L160.60-14.52Q160.65-14.52 160.69-14.57L160.69-14.57L160.69-14.57Q160.69-14.48 160.67-14.48L160.67-14.48L160.67-14.48Q160.65-14.48 160.60-14.52ZM204.97-19.18L204.97-19.18Q205.67-19.18 206.31-18.73L206.31-18.73L206.31-18.73Q206.94-18.28 206.94-17.67L206.94-17.67L206.94-17.67Q206.94-17.06 206.35-16.61L206.35-16.61L206.35-16.61Q205.77-16.17 205.06-16.17L205.06-16.17L205.06-16.17Q204.36-16.17 203.77-16.68L203.77-16.68L203.77-16.68Q203.18-17.20 203.18-17.86L203.18-17.86L203.18-17.86Q203.18-19.18 204.97-19.18L204.97-19.18ZM196.46 0.52L196.46 0.52L196.46 0.52Q194.06 0.52 194.06-2.58L194.06-2.58L194.06-2.58Q194.06-5.12 196.84-9.61L196.84-9.61L196.84-9.61Q199.61-14.10 201.30-14.15L201.30-14.15L201.30-14.15Q201.77-14.15 202.36-13.77L202.36-13.77L202.36-13.77Q202.95-13.39 202.95-13.02L202.95-13.02L202.95-13.02Q202.71-12.69 202.38-12.29L202.38-12.29L202.38-12.29Q202.05-11.89 201.68-11.42L201.68-11.42L201.68-11.42Q201.30-10.95 200.64-10.08L200.64-10.08L200.64-10.08Q199.99-9.21 199.37-8.41L199.37-8.41L199.37-8.41Q195.85-3.85 195.85-2.14L195.85-2.14L195.85-2.14Q195.85-0.42 197.02-0.42L197.02-0.42L197.02-0.42Q198.01-0.42 199.70-1.50L199.70-1.50L199.70-1.50Q203.65-3.95 205.95-6.86L205.95-6.86L205.95-6.86Q206.80-7.94 207.11-7.94L207.11-7.94L207.11-7.94Q207.41-7.94 207.41-7.57L207.41-7.57L207.41-7.57Q207.41-7.19 206.33-6.06L206.33-6.06L206.33-6.06Q205.25-4.93 204.61-4.28L204.61-4.28L204.61-4.28Q203.98-3.62 203.75-3.41L203.75-3.41L203.75-3.41Q203.51-3.20 202.88-2.61L202.88-2.61L202.88-2.61Q202.24-2.02 201.91-1.79L201.91-1.79L201.91-1.79Q201.58-1.55 200.97-1.08L200.97-1.08L200.97-1.08Q200.36-0.61 199.89-0.40L199.89-0.40L199.89-0.40Q199.42-0.19 198.81 0.09L198.81 0.09L198.81 0.09Q197.82 0.52 196.46 0.52ZM224.57-22.98L224.57-22.98L224.57-22.98Q224.57-21.53 223.72-21.53L223.72-21.53L223.72-21.53Q223.49-21.53 223.25-21.90L223.25-21.90L223.25-21.90Q222.83-22.65 221.84-22.65L221.84-22.65L221.84-22.65Q219.68-22.65 217.80-19.55L217.80-19.55L217.80-19.55Q217.42-18.94 215.45-15.13L215.45-15.13L216.01-15.13L216.01-15.13Q221.14-15.13 222.83-15.28L222.83-15.28L222.83-15.28Q223.02-15.23 223.02-15.09L223.02-15.09L223.02-15.09Q223.02-14.71 219.68-14.05L219.68-14.05L219.68-14.05Q216.53-13.54 214.51-13.16L214.51-13.16L214.51-13.16Q213.05-10.15 210.98-6.02L210.98-6.02L210.98-6.02Q206.75 1.88 205.39 3.81L205.39 3.81L205.39 3.81Q201.30 9.63 197.40 9.63L197.40 9.63L197.40 9.63Q196.04 9.63 195.03 8.48L195.03 8.48L195.03 8.48Q194.02 7.33 193.97 5.92L193.97 5.92L193.97 5.92Q194.11 5.36 194.39 5.36L194.39 5.36L194.39 5.36Q194.53 5.36 194.58 5.69L194.58 5.69L194.58 5.69Q194.86 6.91 195.52 7.57L195.52 7.57L195.52 7.57Q196.18 8.22 196.88 8.22L196.88 8.22L196.88 8.22Q200.88 8.22 204.17 3.29L204.17 3.29L204.17 3.29Q206.05 0.47 209.29-6.86L209.29-6.86L211.83-12.97L211.83-12.97Q207.13-13.02 207.13-14.10L207.13-14.10L207.13-14.10Q207.13-14.57 207.58-14.90L207.58-14.90L207.58-14.90Q208.02-15.23 208.35-15.23L208.35-15.23L212.77-15.13L212.77-15.13Q217.38-25.38 221.23-25.38L221.23-25.38L221.23-25.38Q222.69-25.38 224.19-23.97L224.19-23.97L224.19-23.97Q224.57-23.59 224.57-22.98ZM235.94-22.98L235.94-22.98L235.94-22.98Q235.94-21.53 235.09-21.53L235.09-21.53L235.09-21.53Q234.86-21.53 234.62-21.90L234.62-21.90L234.62-21.90Q234.20-22.65 233.21-22.65L233.21-22.65L233.21-22.65Q231.05-22.65 229.17-19.55L229.17-19.55L229.17-19.55Q228.80-18.94 226.82-15.13L226.82-15.13L227.39-15.13L227.39-15.13Q232.51-15.13 234.20-15.28L234.20-15.28L234.20-15.28Q234.39-15.23 234.39-15.09L234.39-15.09L234.39-15.09Q234.39-14.71 231.05-14.05L231.05-14.05L231.05-14.05Q227.90-13.54 225.88-13.16L225.88-13.16L225.88-13.16Q224.43-10.15 222.36-6.02L222.36-6.02L222.36-6.02Q218.13 1.88 216.76 3.81L216.76 3.81L216.76 3.81Q212.68 9.63 208.77 9.63L208.77 9.63L208.77 9.63Q207.41 9.63 206.40 8.48L206.40 8.48L206.40 8.48Q205.39 7.33 205.34 5.92L205.34 5.92L205.34 5.92Q205.48 5.36 205.77 5.36L205.77 5.36L205.77 5.36Q205.91 5.36 205.95 5.69L205.95 5.69L205.95 5.69Q206.24 6.91 206.89 7.57L206.89 7.57L206.89 7.57Q207.55 8.22 208.26 8.22L208.26 8.22L208.26 8.22Q212.25 8.22 215.54 3.29L215.54 3.29L215.54 3.29Q217.42 0.47 220.67-6.86L220.67-6.86L223.20-12.97L223.20-12.97Q218.50-13.02 218.50-14.10L218.50-14.10L218.50-14.10Q218.50-14.57 218.95-14.90L218.95-14.90L218.95-14.90Q219.40-15.23 219.73-15.23L219.73-15.23L224.14-15.13L224.14-15.13Q228.75-25.38 232.60-25.38L232.60-25.38L232.60-25.38Q234.06-25.38 235.56-23.97L235.56-23.97L235.56-23.97Q235.94-23.59 235.94-22.98ZM241.30 0.28L241.30 0.28L241.30 0.28Q241.06 0.33 240.29 0.33L240.29 0.33L240.29 0.33Q239.51 0.33 238.74-0.28L238.74-0.28L238.74-0.28Q237.96-0.89 237.96-1.86L237.96-1.86L237.96-1.86Q237.96-2.82 238.31-4.00L238.31-4.00L238.31-4.00Q238.67-5.17 238.81-5.78L238.81-5.78L238.81-5.78Q233.40 0.52 230.35 0.52L230.35 0.52L230.35 0.52Q228.42 0.52 228.23-1.88L228.23-1.88L228.23-1.88Q228.23-2.07 228.23-2.21L228.23-2.21L228.23-2.21Q228.23-4.23 230.68-7.66L230.68-7.66L230.68-7.66Q229.31-6.44 227.90-4.84L227.90-4.84L227.90-4.84Q227.72-4.65 227.43-4.65L227.43-4.65L227.43-4.65Q227.25-4.65 227.25-4.89L227.25-4.89L227.25-4.89Q227.25-5.12 227.67-5.69L227.67-5.69L234.15-13.30L234.15-13.30Q235.38-14.71 236.65-14.71L236.65-14.71L236.65-14.71Q237.91-14.71 237.91-13.87L237.91-13.87L237.91-13.87Q237.91-13.54 237.63-13.25L237.63-13.25L237.63-13.25Q235.75-11.52 232.91-7.47L232.91-7.47L232.91-7.47Q230.07-3.43 230.07-1.50L230.07-1.50L230.07-1.50Q230.07-0.66 230.63-0.66L230.63-0.66L230.63-0.66Q232.60-0.66 236.36-4.56L236.36-4.56L236.36-4.56Q237.68-5.88 241.25-10.36L241.25-10.36L241.25-10.36Q244.82-14.85 245.95-14.85L245.95-14.85L245.95-14.85Q247.64-14.85 247.64-13.54L247.64-13.54L247.64-13.54Q247.64-13.07 245.67-10.81L245.67-10.81L245.67-10.81Q242.99-7.57 241.58-5.52L241.58-5.52L241.58-5.52Q240.17-3.48 240.17-2.21L240.17-2.21L240.17-2.21Q240.17-0.94 240.88-0.94L240.88-0.94L240.88-0.94Q241.20-0.94 241.63-1.13L241.63-1.13L241.63-1.13Q244.87-2.54 249.38-7.71L249.38-7.71L249.38-7.71Q249.66-8.04 249.95-8.04L249.95-8.04L249.95-8.04Q250.23-8.04 250.23-7.73L250.23-7.73L250.23-7.73Q250.23-7.43 249.90-7.05L249.90-7.05L249.90-7.05Q247.88-4.70 245.15-2.33L245.15-2.33L245.15-2.33Q242.43 0.05 241.30 0.28ZM258.27-1.69L256.76-0.70L256.76-0.70Q255.40 0.09 253.40 0.09L253.40 0.09L253.40 0.09Q251.40 0.09 250.35-1.22L250.35-1.22L250.35-1.22Q249.29-2.54 248.54-5.41L248.54-5.41L248.54-5.41Q247.69-4.56 247.36-4.56L247.36-4.56L247.36-4.56Q247.13-4.56 247.13-4.89L247.13-4.89L247.13-4.89Q247.13-5.22 247.36-5.45L247.36-5.45L247.36-5.45Q248.91-7.38 252.63-11.00L252.63-11.00L258.55-16.54L258.55-16.54Q261.09-18.94 261.56-18.94L261.56-18.94L261.56-18.94Q263.06-18.94 263.06-17.81L263.06-17.81L263.06-17.81Q263.06-17.25 262.61-16.71L262.61-16.71L262.61-16.71Q262.17-16.17 261.95-15.86L261.95-15.86L261.95-15.86Q261.74-15.56 261.51-15.28L261.51-15.28L261.51-15.28Q260.66-13.82 259.79-9.26L259.79-9.26L259.79-9.26Q258.92-4.70 258.45-2.91L258.45-2.91L258.45-2.91Q262.35-2.96 266.49-7.99L266.49-7.99L266.49-7.99Q266.96-8.46 267.20-8.46L267.20-8.46L267.20-8.46Q267.43-8.46 267.43-8.15L267.43-8.15L267.43-8.15Q267.43-7.85 267.01-7.33L267.01-7.33L267.01-7.33Q264.28-4.14 261.93-2.87L261.93-2.87L261.93-2.87Q260.52-2.16 258.27-1.69L258.27-1.69ZM250.42-5.92L250.42-5.92L250.42-5.92Q250.42-4.32 251.47-3.31L251.47-3.31L251.47-3.31Q252.53-2.30 253.85-2.30L253.85-2.30L253.85-2.30Q255.16-2.30 255.87-2.82L255.87-2.82L255.87-2.82Q256.81-3.34 257.72-7.14L257.72-7.14L257.72-7.14Q258.64-10.95 258.83-13.87L258.83-13.87L259.02-15.46L259.02-15.46Q256.43-13.54 253.49-10.48L253.49-10.48L253.49-10.48Q250.56-7.43 250.46-6.44L250.46-6.44L250.46-6.44Q250.42-6.16 250.42-5.92ZM275.19-19.18L275.19-19.18Q275.89-19.18 276.52-18.73L276.52-18.73L276.52-18.73Q277.16-18.28 277.16-17.67L277.16-17.67L277.16-17.67Q277.16-17.06 276.57-16.61L276.57-16.61L276.57-16.61Q275.98-16.17 275.28-16.17L275.28-16.17L275.28-16.17Q274.57-16.17 273.99-16.68L273.99-16.68L273.99-16.68Q273.40-17.20 273.40-17.86L273.40-17.86L273.40-17.86Q273.40-19.18 275.19-19.18L275.19-19.18ZM266.68 0.52L266.68 0.52L266.68 0.52Q264.28 0.52 264.28-2.58L264.28-2.58L264.28-2.58Q264.28-5.12 267.05-9.61L267.05-9.61L267.05-9.61Q269.83-14.10 271.52-14.15L271.52-14.15L271.52-14.15Q271.99-14.15 272.58-13.77L272.58-13.77L272.58-13.77Q273.16-13.39 273.16-13.02L273.16-13.02L273.16-13.02Q272.93-12.69 272.60-12.29L272.60-12.29L272.60-12.29Q272.27-11.89 271.90-11.42L271.90-11.42L271.90-11.42Q271.52-10.95 270.86-10.08L270.86-10.08L270.86-10.08Q270.20-9.21 269.59-8.41L269.59-8.41L269.59-8.41Q266.07-3.85 266.07-2.14L266.07-2.14L266.07-2.14Q266.07-0.42 267.24-0.42L267.24-0.42L267.24-0.42Q268.23-0.42 269.92-1.50L269.92-1.50L269.92-1.50Q273.87-3.95 276.17-6.86L276.17-6.86L276.17-6.86Q277.02-7.94 277.32-7.94L277.32-7.94L277.32-7.94Q277.63-7.94 277.63-7.57L277.63-7.57L277.63-7.57Q277.63-7.19 276.55-6.06L276.55-6.06L276.55-6.06Q275.47-4.93 274.83-4.28L274.83-4.28L274.83-4.28Q274.20-3.62 273.96-3.41L273.96-3.41L273.96-3.41Q273.73-3.20 273.09-2.61L273.09-2.61L273.09-2.61Q272.46-2.02 272.13-1.79L272.13-1.79L272.13-1.79Q271.80-1.55 271.19-1.08L271.19-1.08L271.19-1.08Q270.58-0.61 270.11-0.40L270.11-0.40L270.11-0.40Q269.64-0.19 269.03 0.09L269.03 0.09L269.03 0.09Q268.04 0.52 266.68 0.52ZM287.88-9.96L287.88-9.96L287.88-9.96Q287.88-8.32 284.73-4.46L284.73-4.46L284.73-4.46Q281.01 0.09 278.38 0.09L278.38 0.09L277.63 0.09L277.63 0.09Q276.41 0.09 275.70-1.18L275.70-1.18L275.70-1.18Q275.14-2.07 275.14-3.15L275.14-3.15L275.14-3.15Q275.14-5.97 279.25-11.07L279.25-11.07L279.25-11.07Q283.36-16.17 285.90-16.17L285.90-16.17L285.90-16.17Q288.30-16.17 288.30-13.63L288.30-13.63L288.30-13.63Q288.30-12.97 288.06-11.94L288.06-11.94L288.06-11.94Q288.11-11.80 288.96-11.80L288.96-11.80L288.96-11.80Q289.80-11.80 291.54-12.69L291.54-12.69L291.54-12.69Q291.49-11.89 287.83-10.39L287.83-10.39L287.83-10.39Q287.88-10.20 287.88-9.96ZM284.82-12.41L284.82-12.41L284.82-12.41Q283.22-12.41 280.28-8.65L280.28-8.65L280.28-8.65Q277.35-4.89 277.35-3.10L277.35-3.10L277.35-3.10Q277.35-1.32 278.48-1.32L278.48-1.32L278.48-1.32Q280.50-1.32 283.60-4.98L283.60-4.98L283.60-4.98Q286.70-8.65 286.70-10.25L286.70-10.25L286.70-10.25Q285.95-10.67 284.82-12.41ZM296.38-14.85L296.38-14.85L296.38-14.85Q297.65-14.85 297.65-13.87L297.65-13.87L297.65-13.87Q297.65-13.58 297.51-13.30L297.51-13.30L297.51-13.30Q293.28-7.43 292.43-4.42L292.43-4.42L292.43-4.42Q303.39-15.37 305.74-15.37L305.74-15.37L305.74-15.37Q305.97-15.42 306.16-15.42L306.16-15.42L306.16-15.42Q307.47-15.42 307.47-14.24L307.47-14.24L307.47-14.24Q307.47-14.01 307.38-13.77L307.38-13.77L307.38-13.77Q307.29-13.54 305.50-11.23L305.50-11.23L305.50-11.23Q303.43-8.79 302.00-6.53L302.00-6.53L302.00-6.53Q300.57-4.28 300.57-2.77L300.57-2.77L300.57-2.77Q300.57-1.27 301.22-1.27L301.22-1.27L301.22-1.27Q303.29-1.27 308.41-6.96L308.41-6.96L308.41-6.96Q308.51-7.05 308.74-7.38L308.74-7.38L308.74-7.38Q309.45-8.22 309.59-8.22L309.59-8.22L309.59-8.22Q309.73-8.22 309.73-7.75L309.73-7.75L309.73-7.75Q309.73-7.29 309.07-6.53L309.07-6.53L309.07-6.53Q303.24 0.09 300.80 0.09L300.80 0.09L300.80 0.09Q298.50 0.09 298.50-2.44L298.50-2.44L298.50-2.44Q298.50-4.98 300.38-8.27L300.38-8.27L303.39-13.16L303.39-13.16Q300.19-10.81 297.70-8.01L297.70-8.01L297.70-8.01Q295.21-5.22 293.16-2.58L293.16-2.58L293.16-2.58Q291.12 0.05 290.79 0.05L290.79 0.05L290.79 0.05Q290.08 0.05 289.68-0.54L289.68-0.54L289.68-0.54Q289.29-1.13 289.29-2.00L289.29-2.00L289.29-2.00Q289.29-2.87 289.90-4.32L289.90-4.32L289.90-4.32Q290.51-5.78 291.45-7.85L291.45-7.85L288.63-4.89L288.63-4.89Q287.59-3.85 287.33-3.85L287.33-3.85L287.33-3.85Q287.08-3.85 287.08-4.16L287.08-4.16L287.08-4.16Q287.08-4.46 287.45-4.84L287.45-4.84L287.45-4.84Q289.19-6.58 290.46-8.18L290.46-8.18L290.46-8.18Q291.68-9.78 295.49-14.29L295.49-14.29L295.49-14.29Q295.91-14.85 296.38-14.85Z" fill="url(#editing-shiny-gradient)"></path></g></g><g filter="url(#editing-shiny2)"><g transform="translate(94.49998903274536, 96.22000122070312)"><path d="M26.37-32.81L26.37-32.81L26.37-32.81Q26.88-32.81 27.19-32.50L27.19-32.50L27.19-32.50Q27.50-32.20 27.50-31.87L27.50-31.87L27.50-31.87Q27.50-31.54 27.07-31.02L27.07-31.02L27.07-31.02Q20.73-23.73 12.53-12.71L12.53-12.71L12.53-12.71Q4.32-1.69 2.82 2.26L2.82 2.26L2.82 2.26Q2.54 3.10 2.54 3.88L2.54 3.88L2.54 3.88Q2.54 4.65 2.91 4.82L2.91 4.82L2.91 4.82Q3.29 4.98 3.06 5.36L3.06 5.36L3.06 5.36Q2.73 5.83 2.07 5.83L2.07 5.83L2.07 5.83Q1.27 5.83 1.27 4.28L1.27 4.28L1.27 4.28Q1.27 2.73 2.30-0.09L2.30-0.09L2.30-0.09Q3.76-4.09 14.57-18.61L14.57-18.61L14.57-18.61Q25.24-32.81 26.37-32.81ZM65.56-20.12L65.56-20.12L65.56-20.12Q63.83-19.41 62.58-19.41L62.58-19.41L62.58-19.41Q61.34-19.41 61.34-19.93L61.34-19.93L61.34-19.93Q61.34-20.26 62.72-20.30L62.72-20.30L62.72-20.30Q64.11-20.35 64.72-20.63L64.72-20.63L64.72-20.63Q66.50-21.57 66.50-23.41L66.50-23.41L66.50-23.41Q66.50-24.35 65.99-25.38L65.99-25.38L65.99-25.38Q64.48-28.06 58.70-28.06L58.70-28.06L58.70-28.06Q55.37-28.06 52.03-27.05L52.03-27.05L52.03-27.05Q48.69-26.04 46.44-23.95L46.44-23.95L46.44-23.95Q44.18-21.86 44.18-20.07L44.18-20.07L44.18-20.07Q44.18-17.34 49.59-16.07L49.59-16.07L55.13-15.04L55.13-15.04Q58.47-14.43 60.11-13.35L60.11-13.35L60.11-13.35Q62.28-12.03 62.28-9.59L62.28-9.59L62.28-9.59Q62.28-8.60 61.95-7.47L61.95-7.47L61.95-7.47Q60.44-2.40 54.19 0.28L54.19 0.28L54.19 0.28Q48.97 2.58 41.88 2.58L41.88 2.58L41.88 2.58Q39.86 2.58 38.35 2.40L38.35 2.40L38.35 2.40Q39.86 3.24 42.30 3.85L42.30 3.85L42.30 3.85Q42.49 3.90 42.49 4.04L42.49 4.04L42.49 4.04Q42.49 4.46 41.50 4.46L41.50 4.46L41.50 4.46Q39.57 4.46 36.71 2.16L36.71 2.16L36.71 2.16Q32.81 1.55 30.88 0L30.88 0L30.88 0Q29.66-0.99 28.62-2.91L28.62-2.91L28.62-2.91Q27.59-4.84 27.59-6.39L27.59-6.39L27.59-6.39Q27.59-7.94 28.20-8.98L28.20-8.98L28.20-8.98Q29.61-11.47 31.77-11.47L31.77-11.47L31.77-11.47Q33.42-11.47 33.70-8.70L33.70-8.70L33.70-8.70Q34.36-3.34 34.59-2.58L34.59-2.58L34.59-2.58Q35.30-0.28 36.99 1.32L36.99 1.32L36.99 1.32Q38.96 1.74 41.27 1.74L41.27 1.74L41.27 1.74Q46.34 1.74 51.23-0.28L51.23-0.28L51.23-0.28Q56.12-2.30 58.28-6.02L58.28-6.02L58.28-6.02Q59.17-7.47 59.17-8.60L59.17-8.60L59.17-8.60Q59.17-10.81 55.27-12.03L55.27-12.03L47-13.91L47-13.91Q44.46-14.52 42.93-15.93L42.93-15.93L42.93-15.93Q41.41-17.34 41.41-19.18L41.41-19.18L41.41-19.18Q41.41-22.00 44.93-24.82L44.93-24.82L44.93-24.82Q47.61-26.98 51.49-28.18L51.49-28.18L51.49-28.18Q55.37-29.38 59.10-29.38L59.10-29.38L59.10-29.38Q62.84-29.38 65.28-28.29L65.28-28.29L65.28-28.29Q68.43-26.84 68.43-24.04L68.43-24.04L68.43-24.04Q68.43-21.24 65.56-20.12ZM35.30 0.85L35.30 0.85L35.30 0.85Q32.57-2.16 31.82-7.38L31.82-7.38L31.82-7.38Q31.40-10.34 31.02-10.34L31.02-10.34L31.02-10.34Q30.64-10.34 30.32-10.13L30.32-10.13L30.32-10.13Q29.99-9.92 29.66-9.21L29.66-9.21L29.66-9.21Q29.33-8.51 29.33-7.38L29.33-7.38L29.33-7.38Q29.33-3.76 31.87-1.18L31.87-1.18L31.87-1.18Q33.14 0.14 35.30 0.85ZM75.81-15.13L75.81-15.13L82.58-15.23L82.58-15.23Q82.72-15.13 82.72-15.09L82.72-15.09L82.72-15.09Q82.72-14.66 76.87-13.91L76.87-13.91L76.87-13.91Q71.02-13.16 70.55-13.02L70.55-13.02L70.55-13.02Q69.65-12.22 67.26-8.25L67.26-8.25L67.26-8.25Q64.86-4.28 64.86-2.44L64.86-2.44L64.86-2.44Q64.86-0.70 67.26-0.70L67.26-0.70L67.26-0.70Q68.38-0.70 70.22-1.41L70.22-1.41L70.22-1.41Q72.05-2.12 73.04-2.73L73.04-2.73L73.04-2.73Q75.67-4.37 78.68-7.57L78.68-7.57L78.68-7.57Q79.34-8.22 79.57-8.22L79.57-8.22L79.57-8.22Q79.71-8.22 79.71-7.94L79.71-7.94L79.71-7.94Q79.71-7.66 79.01-6.82L79.01-6.82L79.01-6.82Q76.56-3.81 73.51-1.97L73.51-1.97L73.51-1.97Q69.84 0.28 66.50 0.28L66.50 0.28L66.50 0.28Q65.05 0.28 64.13-0.35L64.13-0.35L64.13-0.35Q63.21-0.99 63.21-2.91L63.21-2.91L63.21-2.91Q63.21-4.84 64.91-8.20L64.91-8.20L64.91-8.20Q66.60-11.56 67.49-13.21L67.49-13.21L67.49-13.21Q66.83-13.07 66.36-13.07L66.36-13.07L66.36-13.07Q65.00-13.07 65.00-14.15L65.00-14.15L65.00-14.15Q65.00-14.95 66.13-15.28L66.13-15.28L66.13-15.28Q66.27-15.28 66.55-15.32L66.55-15.32L69.28-15.32L69.28-15.32Q70.12-16.40 71.20-17.81L71.20-17.81L71.20-17.81Q72.52-19.50 72.99-19.50L72.99-19.50L72.99-19.50Q73.46-19.50 74.17-19.13L74.17-19.13L74.17-19.13Q74.87-18.75 74.87-18.24L74.87-18.24L74.87-18.24Q74.87-17.72 72.61-15.18L72.61-15.18L72.61-15.18Q73.84-15.13 75.81-15.13ZM93.11-14.05L93.11-14.05L93.77-14.19L93.77-14.19Q94.28-14.19 94.75-13.77L94.75-13.77L94.75-13.77Q95.22-13.35 95.22-13.11L95.22-13.11L95.22-13.11Q95.22-12.88 92.31-8.58L92.31-8.58L92.31-8.58Q89.39-4.28 89.39-2.58L89.39-2.58L89.39-2.58Q89.39-2.44 89.44-2.30L89.44-2.30L89.44-2.30Q89.68-1.22 90.47-1.22L90.47-1.22L90.47-1.22Q92.92-1.22 99.41-9.31L99.41-9.31L99.41-9.31Q99.55-9.49 99.73-9.49L99.73-9.49L99.73-9.49Q99.92-9.49 99.92-9.14L99.92-9.14L99.92-9.14Q99.92-8.79 99.50-8.22L99.50-8.22L99.50-8.22Q93.48-0.19 90.33-0.19L90.33-0.19L90.33-0.19Q89.91-0.19 89.53-0.33L89.53-0.33L89.53-0.33Q87.47-1.13 87.47-3.43L87.47-3.43L87.47-3.43Q87.47-4.23 87.66-5.03L87.66-5.03L84.74-2.21L84.74-2.21Q81.97 0.23 80.72 0.23L80.72 0.23L80.72 0.23Q79.48 0.23 78.35-0.56L78.35-0.56L78.35-0.56Q77.08-1.50 77.08-3.06L77.08-3.06L77.08-3.06Q77.08-6.49 81.87-11.26L81.87-11.26L81.87-11.26Q86.67-16.03 90.66-16.03L90.66-16.03L90.66-16.03Q92.21-16.03 92.73-14.95L92.73-14.95L92.73-14.95Q92.87-14.57 92.97-14.31L92.97-14.31L92.97-14.31Q93.06-14.05 93.11-14.05ZM79.05-2.49L79.05-2.49L79.05-2.49Q79.05-0.80 80.23-0.80L80.23-0.80L80.23-0.80Q82.95-0.80 87.66-6.77L87.66-6.77L92.64-13.63L92.64-13.63Q92.26-14.29 91.42-14.29L91.42-14.29L91.42-14.29Q88.55-14.29 83.80-9.85L83.80-9.85L83.80-9.85Q79.05-5.41 79.05-2.49ZM107.58-11.70L107.58-11.70L107.58-11.70Q107.58-14.90 109.56-14.90L109.56-14.90L109.56-14.90Q109.75-14.90 109.98-14.85L109.98-14.85L109.98-14.85Q110.78-14.71 110.78-13.63L110.78-13.63L110.78-13.63Q110.78-12.55 110.40-10.90L110.40-10.90L110.40-10.90Q110.03-9.68 109.89-9.07L109.89-9.07L109.89-9.07Q110.03-8.27 110.66-7.03L110.66-7.03L110.66-7.03Q111.30-5.78 112.40-5.78L112.40-5.78L112.40-5.78Q113.51-5.78 114.87-7.29L114.87-7.29L114.87-7.29Q115.15-7.61 115.41-7.61L115.41-7.61L115.41-7.61Q115.67-7.61 115.69-7.31L115.69-7.31L115.69-7.31Q115.71-7.00 115.34-6.49L115.34-6.49L115.34-6.49Q113.88-4.75 112.28-4.75L112.28-4.75L112.28-4.75Q109.98-4.75 108.57-8.13L108.57-8.13L108.57-8.13Q107.11-4.79 104.43-2.37L104.43-2.37L104.43-2.37Q101.76 0.05 99.12 0.05L99.12 0.05L99.12 0.05Q96.63 0.05 96.63-3.71L96.63-3.71L96.63-3.71Q96.63-6.67 102.15-14.62L102.15-14.62L102.15-14.62Q107.68-22.56 110.59-22.56L110.59-22.56L110.59-22.56Q111.20-22.56 111.70-22.18L111.70-22.18L111.70-22.18Q112.19-21.81 112.19-21.29L112.19-21.29L112.19-21.29Q112.19-21.34 111.51-20.59L111.51-20.59L111.51-20.59Q110.83-19.83 107.79-16.54L107.79-16.54L107.79-16.54Q104.76-13.25 101.85-9.31L101.85-9.31L101.85-9.31Q98.94-5.36 98.94-3.20L98.94-3.20L98.94-3.20Q98.94-2.63 99.24-1.97L99.24-1.97L99.24-1.97Q99.55-1.32 100.25-1.32L100.25-1.32L100.25-1.32Q102.32-1.32 105.09-4.51L105.09-4.51L105.09-4.51Q107.40-7.33 107.91-9.26L107.91-9.26L107.91-9.26Q107.58-10.25 107.58-11.70ZM115.86-2.35L115.86-2.35L115.86-2.35Q115.86-0.94 117.41-0.94L117.41-0.94L117.41-0.94Q118.96-0.94 121.40-2.58L121.40-2.58L121.40-2.58Q123.84-4.23 126.15-7.05L126.15-7.05L126.15-7.05Q126.71-7.80 127.04-7.80L127.04-7.80L127.04-7.80Q127.37-7.80 127.37-7.52L127.37-7.52L127.37-7.52Q127.37-7.24 125.44-5.08L125.44-5.08L125.44-5.08Q120.74 0.09 117.59 0.09L117.59 0.09L117.59 0.09Q116.04 0.09 114.96-0.63L114.96-0.63L114.96-0.63Q113.88-1.36 113.88-2.89L113.88-2.89L113.88-2.89Q113.88-4.42 114.68-6.44L114.68-6.44L114.68-6.44Q116.04-9.63 119.05-14.48L119.05-14.48L119.05-14.48Q124.55-23.41 126.85-23.41L126.85-23.41L126.85-23.41Q127.32-23.41 127.82-23.05L127.82-23.05L127.82-23.05Q128.31-22.70 128.36-22.28L128.36-22.28L128.36-22.28Q127.28-20.82 124.20-16.68L124.20-16.68L124.20-16.68Q121.12-12.55 119.94-10.74L119.94-10.74L119.94-10.74Q118.77-8.93 118.18-8.04L118.18-8.04L118.18-8.04Q117.59-7.14 117.31-6.65L117.31-6.65L117.31-6.65Q117.03-6.16 116.65-5.36L116.65-5.36L116.65-5.36Q115.86-3.76 115.86-2.35ZM127.84 0.61L127.84 0.61L127.84 0.61Q127.32 0.61 126.90 0.47L126.90 0.47L126.90 0.47Q123.89-0.38 123.89-2.91L123.89-2.91L123.89-2.91Q123.89-6.20 128.03-10.53L128.03-10.53L128.03-10.53Q132.16-14.85 135.45-14.85L135.45-14.85L135.45-14.85Q136.54-14.85 137.22-14.26L137.22-14.26L137.22-14.26Q137.90-13.68 137.90-12.83L137.90-12.83L137.90-12.83Q137.90-10.20 133.93-7.80L133.93-7.80L133.93-7.80Q129.96-5.41 127.46-5.41L127.46-5.41L127.46-5.41Q127.09-5.41 126.81-5.50L126.81-5.50L126.81-5.50Q126.10-4.23 126.10-2.82L126.10-2.82L126.10-2.82Q126.10-0.38 128.43-0.38L128.43-0.38L128.43-0.38Q130.75-0.38 134.47-3.52L134.47-3.52L134.47-3.52Q137.33-5.83 139.36-8.41L139.36-8.41L139.36-8.41Q139.78-8.98 140.08-8.98L140.08-8.98L140.08-8.98Q140.39-8.98 140.39-8.70L140.39-8.70L140.39-8.70Q140.39-8.41 140.01-7.90L140.01-7.90L140.01-7.90Q137.48-4.56 133.90-1.97L133.90-1.97L133.90-1.97Q130.33 0.61 127.84 0.61ZM136.72-12.93L136.72-12.93L136.72-12.93Q136.72-13.49 135.52-13.49L135.52-13.49L135.52-13.49Q134.33-13.49 132.12-11.66L132.12-11.66L132.12-11.66Q129.16-9.21 127.51-6.53L127.51-6.53L127.51-6.53Q127.79-6.44 128.12-6.44L128.12-6.44L128.12-6.44Q129.91-6.44 132.89-8.34L132.89-8.34L132.89-8.34Q135.88-10.25 136.63-12.50L136.63-12.50L136.63-12.50Q136.72-12.74 136.72-12.93ZM142.46-12.22L142.46-12.22L147.02-12.17L147.02-12.17Q149.74-12.17 150.92-12.31L150.92-12.31L150.92-12.31Q150.96-12.27 150.96-12.17L150.96-12.17L150.96-12.17Q150.96-11.47 147.25-10.81L147.25-10.81L147.25-10.81Q145.23-10.53 143.47-10.22L143.47-10.22L143.47-10.22Q141.71-9.92 141.21-9.92L141.21-9.92L141.21-9.92Q140.72-9.92 139.57-10.13L139.57-10.13L139.57-10.13Q138.42-10.34 138.42-11.04L138.42-11.04L138.42-11.04Q138.42-11.52 138.81-11.84L138.81-11.84L138.81-11.84Q139.21-12.17 139.50-12.17L139.50-12.17L139.50-12.17Q139.78-12.17 140.06-12.22L140.06-12.22L141.28-12.22L141.28-12.22Q141.80-12.22 142.46-12.22ZM160.27-1.18L160.27-1.18L160.27-1.18Q156.13 2.02 154.21 2.02L154.21 2.02L154.21 2.02Q153.17 2.02 152.68 1.01L152.68 1.01L152.68 1.01Q152.19 0 152.19-1.18L152.19-1.18L152.19-1.18Q152.19-3.43 154.09-7.94L154.09-7.94L154.09-7.94Q155.99-12.46 157.73-12.46L157.73-12.46L157.73-12.46Q158.63-12.46 159.26-8.93L159.26-8.93L159.26-8.93Q159.89-5.41 160.55-3.81L160.55-3.81L160.55-3.81Q163.75-7.19 169.81-15.09L169.81-15.09L169.81-15.09Q177.43-25.10 179.92-26.04L179.92-26.04L179.92-26.04Q180.76-26.37 181.66-26.37L181.66-26.37L181.66-26.37Q182.55-26.37 183.14-25.99L183.14-25.99L183.14-25.99Q183.72-25.61 183.72-25.05L183.72-25.05L183.72-25.05Q183.72-24.25 182.36-24.11L182.36-24.11L182.36-24.11Q180.72-23.22 177.28-19.79L177.28-19.79L177.28-19.79Q173.85-16.45 171.79-13.54L171.79-13.54L171.79-13.54Q166.76-6.53 161.45-2.12L161.45-2.12L161.45-2.12Q164.08 1.79 169.72 1.79L169.72 1.79L169.72 1.79Q170.33 1.79 171.55 1.69L171.55 1.69L171.55 1.69Q184.62 0.47 190.07-9.63L190.07-9.63L190.07-9.63Q192.28-13.68 192.28-17.63L192.28-17.63L192.28-17.63Q192.28-21.57 189.41-24.72L189.41-24.72L189.41-24.72Q187.11-27.31 184.40-27.92L184.40-27.92L184.40-27.92Q181.70-28.53 178.88-28.53L178.88-28.53L178.88-28.53Q171.64-28.53 165.53-25.19L165.53-25.19L165.53-25.19Q159.10-21.67 159.10-17.30L159.10-17.30L159.10-17.30Q159.10-16.12 159.73-15.37L159.73-15.37L159.73-15.37Q160.36-14.62 160.60-14.52L160.60-14.52L160.32-14.52L160.32-14.52Q159.10-14.76 158.16-15.74L158.16-15.74L158.16-15.74Q157.12-16.97 157.12-18.33L157.12-18.33L157.12-18.33Q157.12-23.03 163.02-26.41L163.02-26.41L163.02-26.41Q168.92-29.80 176.86-29.80L176.86-29.80L176.86-29.80Q180.53-29.80 184.38-28.95L184.38-28.95L184.38-28.95Q188.24-28.11 191.38-24.91L191.38-24.91L191.38-24.91Q195.00-21.15 195.00-16.40L195.00-16.40L195.00-16.40Q195.00-12.88 192.94-9.12L192.94-9.12L192.94-9.12Q189.36-2.63 182.27 0.38L182.27 0.38L182.27 0.38Q176.58 2.77 170.00 2.77L170.00 2.77L170.00 2.77Q163.42 2.77 160.27-1.18ZM153.88-1.36L153.88-1.36L153.88-1.36Q153.88 0.09 154.44 1.18L154.44 1.18L154.44 1.18Q156.46 0.28 159.33-2.54L159.33-2.54L159.33-2.54Q157.97-4.79 157.61-6.09L157.61-6.09L157.61-6.09Q157.26-7.38 157.12-9.49L157.12-9.49L157.12-9.49Q153.88-4.84 153.88-1.36ZM160.60-14.52L160.60-14.52L160.60-14.52Q160.65-14.52 160.69-14.57L160.69-14.57L160.69-14.57Q160.69-14.48 160.67-14.48L160.67-14.48L160.67-14.48Q160.65-14.48 160.60-14.52ZM204.97-19.18L204.97-19.18Q205.67-19.18 206.31-18.73L206.31-18.73L206.31-18.73Q206.94-18.28 206.94-17.67L206.94-17.67L206.94-17.67Q206.94-17.06 206.35-16.61L206.35-16.61L206.35-16.61Q205.77-16.17 205.06-16.17L205.06-16.17L205.06-16.17Q204.36-16.17 203.77-16.68L203.77-16.68L203.77-16.68Q203.18-17.20 203.18-17.86L203.18-17.86L203.18-17.86Q203.18-19.18 204.97-19.18L204.97-19.18ZM196.46 0.52L196.46 0.52L196.46 0.52Q194.06 0.52 194.06-2.58L194.06-2.58L194.06-2.58Q194.06-5.12 196.84-9.61L196.84-9.61L196.84-9.61Q199.61-14.10 201.30-14.15L201.30-14.15L201.30-14.15Q201.77-14.15 202.36-13.77L202.36-13.77L202.36-13.77Q202.95-13.39 202.95-13.02L202.95-13.02L202.95-13.02Q202.71-12.69 202.38-12.29L202.38-12.29L202.38-12.29Q202.05-11.89 201.68-11.42L201.68-11.42L201.68-11.42Q201.30-10.95 200.64-10.08L200.64-10.08L200.64-10.08Q199.99-9.21 199.37-8.41L199.37-8.41L199.37-8.41Q195.85-3.85 195.85-2.14L195.85-2.14L195.85-2.14Q195.85-0.42 197.02-0.42L197.02-0.42L197.02-0.42Q198.01-0.42 199.70-1.50L199.70-1.50L199.70-1.50Q203.65-3.95 205.95-6.86L205.95-6.86L205.95-6.86Q206.80-7.94 207.11-7.94L207.11-7.94L207.11-7.94Q207.41-7.94 207.41-7.57L207.41-7.57L207.41-7.57Q207.41-7.19 206.33-6.06L206.33-6.06L206.33-6.06Q205.25-4.93 204.61-4.28L204.61-4.28L204.61-4.28Q203.98-3.62 203.75-3.41L203.75-3.41L203.75-3.41Q203.51-3.20 202.88-2.61L202.88-2.61L202.88-2.61Q202.24-2.02 201.91-1.79L201.91-1.79L201.91-1.79Q201.58-1.55 200.97-1.08L200.97-1.08L200.97-1.08Q200.36-0.61 199.89-0.40L199.89-0.40L199.89-0.40Q199.42-0.19 198.81 0.09L198.81 0.09L198.81 0.09Q197.82 0.52 196.46 0.52ZM224.57-22.98L224.57-22.98L224.57-22.98Q224.57-21.53 223.72-21.53L223.72-21.53L223.72-21.53Q223.49-21.53 223.25-21.90L223.25-21.90L223.25-21.90Q222.83-22.65 221.84-22.65L221.84-22.65L221.84-22.65Q219.68-22.65 217.80-19.55L217.80-19.55L217.80-19.55Q217.42-18.94 215.45-15.13L215.45-15.13L216.01-15.13L216.01-15.13Q221.14-15.13 222.83-15.28L222.83-15.28L222.83-15.28Q223.02-15.23 223.02-15.09L223.02-15.09L223.02-15.09Q223.02-14.71 219.68-14.05L219.68-14.05L219.68-14.05Q216.53-13.54 214.51-13.16L214.51-13.16L214.51-13.16Q213.05-10.15 210.98-6.02L210.98-6.02L210.98-6.02Q206.75 1.88 205.39 3.81L205.39 3.81L205.39 3.81Q201.30 9.63 197.40 9.63L197.40 9.63L197.40 9.63Q196.04 9.63 195.03 8.48L195.03 8.48L195.03 8.48Q194.02 7.33 193.97 5.92L193.97 5.92L193.97 5.92Q194.11 5.36 194.39 5.36L194.39 5.36L194.39 5.36Q194.53 5.36 194.58 5.69L194.58 5.69L194.58 5.69Q194.86 6.91 195.52 7.57L195.52 7.57L195.52 7.57Q196.18 8.22 196.88 8.22L196.88 8.22L196.88 8.22Q200.88 8.22 204.17 3.29L204.17 3.29L204.17 3.29Q206.05 0.47 209.29-6.86L209.29-6.86L211.83-12.97L211.83-12.97Q207.13-13.02 207.13-14.10L207.13-14.10L207.13-14.10Q207.13-14.57 207.58-14.90L207.58-14.90L207.58-14.90Q208.02-15.23 208.35-15.23L208.35-15.23L212.77-15.13L212.77-15.13Q217.38-25.38 221.23-25.38L221.23-25.38L221.23-25.38Q222.69-25.38 224.19-23.97L224.19-23.97L224.19-23.97Q224.57-23.59 224.57-22.98ZM235.94-22.98L235.94-22.98L235.94-22.98Q235.94-21.53 235.09-21.53L235.09-21.53L235.09-21.53Q234.86-21.53 234.62-21.90L234.62-21.90L234.62-21.90Q234.20-22.65 233.21-22.65L233.21-22.65L233.21-22.65Q231.05-22.65 229.17-19.55L229.17-19.55L229.17-19.55Q228.80-18.94 226.82-15.13L226.82-15.13L227.39-15.13L227.39-15.13Q232.51-15.13 234.20-15.28L234.20-15.28L234.20-15.28Q234.39-15.23 234.39-15.09L234.39-15.09L234.39-15.09Q234.39-14.71 231.05-14.05L231.05-14.05L231.05-14.05Q227.90-13.54 225.88-13.16L225.88-13.16L225.88-13.16Q224.43-10.15 222.36-6.02L222.36-6.02L222.36-6.02Q218.13 1.88 216.76 3.81L216.76 3.81L216.76 3.81Q212.68 9.63 208.77 9.63L208.77 9.63L208.77 9.63Q207.41 9.63 206.40 8.48L206.40 8.48L206.40 8.48Q205.39 7.33 205.34 5.92L205.34 5.92L205.34 5.92Q205.48 5.36 205.77 5.36L205.77 5.36L205.77 5.36Q205.91 5.36 205.95 5.69L205.95 5.69L205.95 5.69Q206.24 6.91 206.89 7.57L206.89 7.57L206.89 7.57Q207.55 8.22 208.26 8.22L208.26 8.22L208.26 8.22Q212.25 8.22 215.54 3.29L215.54 3.29L215.54 3.29Q217.42 0.47 220.67-6.86L220.67-6.86L223.20-12.97L223.20-12.97Q218.50-13.02 218.50-14.10L218.50-14.10L218.50-14.10Q218.50-14.57 218.95-14.90L218.95-14.90L218.95-14.90Q219.40-15.23 219.73-15.23L219.73-15.23L224.14-15.13L224.14-15.13Q228.75-25.38 232.60-25.38L232.60-25.38L232.60-25.38Q234.06-25.38 235.56-23.97L235.56-23.97L235.56-23.97Q235.94-23.59 235.94-22.98ZM241.30 0.28L241.30 0.28L241.30 0.28Q241.06 0.33 240.29 0.33L240.29 0.33L240.29 0.33Q239.51 0.33 238.74-0.28L238.74-0.28L238.74-0.28Q237.96-0.89 237.96-1.86L237.96-1.86L237.96-1.86Q237.96-2.82 238.31-4.00L238.31-4.00L238.31-4.00Q238.67-5.17 238.81-5.78L238.81-5.78L238.81-5.78Q233.40 0.52 230.35 0.52L230.35 0.52L230.35 0.52Q228.42 0.52 228.23-1.88L228.23-1.88L228.23-1.88Q228.23-2.07 228.23-2.21L228.23-2.21L228.23-2.21Q228.23-4.23 230.68-7.66L230.68-7.66L230.68-7.66Q229.31-6.44 227.90-4.84L227.90-4.84L227.90-4.84Q227.72-4.65 227.43-4.65L227.43-4.65L227.43-4.65Q227.25-4.65 227.25-4.89L227.25-4.89L227.25-4.89Q227.25-5.12 227.67-5.69L227.67-5.69L234.15-13.30L234.15-13.30Q235.38-14.71 236.65-14.71L236.65-14.71L236.65-14.71Q237.91-14.71 237.91-13.87L237.91-13.87L237.91-13.87Q237.91-13.54 237.63-13.25L237.63-13.25L237.63-13.25Q235.75-11.52 232.91-7.47L232.91-7.47L232.91-7.47Q230.07-3.43 230.07-1.50L230.07-1.50L230.07-1.50Q230.07-0.66 230.63-0.66L230.63-0.66L230.63-0.66Q232.60-0.66 236.36-4.56L236.36-4.56L236.36-4.56Q237.68-5.88 241.25-10.36L241.25-10.36L241.25-10.36Q244.82-14.85 245.95-14.85L245.95-14.85L245.95-14.85Q247.64-14.85 247.64-13.54L247.64-13.54L247.64-13.54Q247.64-13.07 245.67-10.81L245.67-10.81L245.67-10.81Q242.99-7.57 241.58-5.52L241.58-5.52L241.58-5.52Q240.17-3.48 240.17-2.21L240.17-2.21L240.17-2.21Q240.17-0.94 240.88-0.94L240.88-0.94L240.88-0.94Q241.20-0.94 241.63-1.13L241.63-1.13L241.63-1.13Q244.87-2.54 249.38-7.71L249.38-7.71L249.38-7.71Q249.66-8.04 249.95-8.04L249.95-8.04L249.95-8.04Q250.23-8.04 250.23-7.73L250.23-7.73L250.23-7.73Q250.23-7.43 249.90-7.05L249.90-7.05L249.90-7.05Q247.88-4.70 245.15-2.33L245.15-2.33L245.15-2.33Q242.43 0.05 241.30 0.28ZM258.27-1.69L256.76-0.70L256.76-0.70Q255.40 0.09 253.40 0.09L253.40 0.09L253.40 0.09Q251.40 0.09 250.35-1.22L250.35-1.22L250.35-1.22Q249.29-2.54 248.54-5.41L248.54-5.41L248.54-5.41Q247.69-4.56 247.36-4.56L247.36-4.56L247.36-4.56Q247.13-4.56 247.13-4.89L247.13-4.89L247.13-4.89Q247.13-5.22 247.36-5.45L247.36-5.45L247.36-5.45Q248.91-7.38 252.63-11.00L252.63-11.00L258.55-16.54L258.55-16.54Q261.09-18.94 261.56-18.94L261.56-18.94L261.56-18.94Q263.06-18.94 263.06-17.81L263.06-17.81L263.06-17.81Q263.06-17.25 262.61-16.71L262.61-16.71L262.61-16.71Q262.17-16.17 261.95-15.86L261.95-15.86L261.95-15.86Q261.74-15.56 261.51-15.28L261.51-15.28L261.51-15.28Q260.66-13.82 259.79-9.26L259.79-9.26L259.79-9.26Q258.92-4.70 258.45-2.91L258.45-2.91L258.45-2.91Q262.35-2.96 266.49-7.99L266.49-7.99L266.49-7.99Q266.96-8.46 267.20-8.46L267.20-8.46L267.20-8.46Q267.43-8.46 267.43-8.15L267.43-8.15L267.43-8.15Q267.43-7.85 267.01-7.33L267.01-7.33L267.01-7.33Q264.28-4.14 261.93-2.87L261.93-2.87L261.93-2.87Q260.52-2.16 258.27-1.69L258.27-1.69ZM250.42-5.92L250.42-5.92L250.42-5.92Q250.42-4.32 251.47-3.31L251.47-3.31L251.47-3.31Q252.53-2.30 253.85-2.30L253.85-2.30L253.85-2.30Q255.16-2.30 255.87-2.82L255.87-2.82L255.87-2.82Q256.81-3.34 257.72-7.14L257.72-7.14L257.72-7.14Q258.64-10.95 258.83-13.87L258.83-13.87L259.02-15.46L259.02-15.46Q256.43-13.54 253.49-10.48L253.49-10.48L253.49-10.48Q250.56-7.43 250.46-6.44L250.46-6.44L250.46-6.44Q250.42-6.16 250.42-5.92ZM275.19-19.18L275.19-19.18Q275.89-19.18 276.52-18.73L276.52-18.73L276.52-18.73Q277.16-18.28 277.16-17.67L277.16-17.67L277.16-17.67Q277.16-17.06 276.57-16.61L276.57-16.61L276.57-16.61Q275.98-16.17 275.28-16.17L275.28-16.17L275.28-16.17Q274.57-16.17 273.99-16.68L273.99-16.68L273.99-16.68Q273.40-17.20 273.40-17.86L273.40-17.86L273.40-17.86Q273.40-19.18 275.19-19.18L275.19-19.18ZM266.68 0.52L266.68 0.52L266.68 0.52Q264.28 0.52 264.28-2.58L264.28-2.58L264.28-2.58Q264.28-5.12 267.05-9.61L267.05-9.61L267.05-9.61Q269.83-14.10 271.52-14.15L271.52-14.15L271.52-14.15Q271.99-14.15 272.58-13.77L272.58-13.77L272.58-13.77Q273.16-13.39 273.16-13.02L273.16-13.02L273.16-13.02Q272.93-12.69 272.60-12.29L272.60-12.29L272.60-12.29Q272.27-11.89 271.90-11.42L271.90-11.42L271.90-11.42Q271.52-10.95 270.86-10.08L270.86-10.08L270.86-10.08Q270.20-9.21 269.59-8.41L269.59-8.41L269.59-8.41Q266.07-3.85 266.07-2.14L266.07-2.14L266.07-2.14Q266.07-0.42 267.24-0.42L267.24-0.42L267.24-0.42Q268.23-0.42 269.92-1.50L269.92-1.50L269.92-1.50Q273.87-3.95 276.17-6.86L276.17-6.86L276.17-6.86Q277.02-7.94 277.32-7.94L277.32-7.94L277.32-7.94Q277.63-7.94 277.63-7.57L277.63-7.57L277.63-7.57Q277.63-7.19 276.55-6.06L276.55-6.06L276.55-6.06Q275.47-4.93 274.83-4.28L274.83-4.28L274.83-4.28Q274.20-3.62 273.96-3.41L273.96-3.41L273.96-3.41Q273.73-3.20 273.09-2.61L273.09-2.61L273.09-2.61Q272.46-2.02 272.13-1.79L272.13-1.79L272.13-1.79Q271.80-1.55 271.19-1.08L271.19-1.08L271.19-1.08Q270.58-0.61 270.11-0.40L270.11-0.40L270.11-0.40Q269.64-0.19 269.03 0.09L269.03 0.09L269.03 0.09Q268.04 0.52 266.68 0.52ZM287.88-9.96L287.88-9.96L287.88-9.96Q287.88-8.32 284.73-4.46L284.73-4.46L284.73-4.46Q281.01 0.09 278.38 0.09L278.38 0.09L277.63 0.09L277.63 0.09Q276.41 0.09 275.70-1.18L275.70-1.18L275.70-1.18Q275.14-2.07 275.14-3.15L275.14-3.15L275.14-3.15Q275.14-5.97 279.25-11.07L279.25-11.07L279.25-11.07Q283.36-16.17 285.90-16.17L285.90-16.17L285.90-16.17Q288.30-16.17 288.30-13.63L288.30-13.63L288.30-13.63Q288.30-12.97 288.06-11.94L288.06-11.94L288.06-11.94Q288.11-11.80 288.96-11.80L288.96-11.80L288.96-11.80Q289.80-11.80 291.54-12.69L291.54-12.69L291.54-12.69Q291.49-11.89 287.83-10.39L287.83-10.39L287.83-10.39Q287.88-10.20 287.88-9.96ZM284.82-12.41L284.82-12.41L284.82-12.41Q283.22-12.41 280.28-8.65L280.28-8.65L280.28-8.65Q277.35-4.89 277.35-3.10L277.35-3.10L277.35-3.10Q277.35-1.32 278.48-1.32L278.48-1.32L278.48-1.32Q280.50-1.32 283.60-4.98L283.60-4.98L283.60-4.98Q286.70-8.65 286.70-10.25L286.70-10.25L286.70-10.25Q285.95-10.67 284.82-12.41ZM296.38-14.85L296.38-14.85L296.38-14.85Q297.65-14.85 297.65-13.87L297.65-13.87L297.65-13.87Q297.65-13.58 297.51-13.30L297.51-13.30L297.51-13.30Q293.28-7.43 292.43-4.42L292.43-4.42L292.43-4.42Q303.39-15.37 305.74-15.37L305.74-15.37L305.74-15.37Q305.97-15.42 306.16-15.42L306.16-15.42L306.16-15.42Q307.47-15.42 307.47-14.24L307.47-14.24L307.47-14.24Q307.47-14.01 307.38-13.77L307.38-13.77L307.38-13.77Q307.29-13.54 305.50-11.23L305.50-11.23L305.50-11.23Q303.43-8.79 302.00-6.53L302.00-6.53L302.00-6.53Q300.57-4.28 300.57-2.77L300.57-2.77L300.57-2.77Q300.57-1.27 301.22-1.27L301.22-1.27L301.22-1.27Q303.29-1.27 308.41-6.96L308.41-6.96L308.41-6.96Q308.51-7.05 308.74-7.38L308.74-7.38L308.74-7.38Q309.45-8.22 309.59-8.22L309.59-8.22L309.59-8.22Q309.73-8.22 309.73-7.75L309.73-7.75L309.73-7.75Q309.73-7.29 309.07-6.53L309.07-6.53L309.07-6.53Q303.24 0.09 300.80 0.09L300.80 0.09L300.80 0.09Q298.50 0.09 298.50-2.44L298.50-2.44L298.50-2.44Q298.50-4.98 300.38-8.27L300.38-8.27L303.39-13.16L303.39-13.16Q300.19-10.81 297.70-8.01L297.70-8.01L297.70-8.01Q295.21-5.22 293.16-2.58L293.16-2.58L293.16-2.58Q291.12 0.05 290.79 0.05L290.79 0.05L290.79 0.05Q290.08 0.05 289.68-0.54L289.68-0.54L289.68-0.54Q289.29-1.13 289.29-2.00L289.29-2.00L289.29-2.00Q289.29-2.87 289.90-4.32L289.90-4.32L289.90-4.32Q290.51-5.78 291.45-7.85L291.45-7.85L288.63-4.89L288.63-4.89Q287.59-3.85 287.33-3.85L287.33-3.85L287.33-3.85Q287.08-3.85 287.08-4.16L287.08-4.16L287.08-4.16Q287.08-4.46 287.45-4.84L287.45-4.84L287.45-4.84Q289.19-6.58 290.46-8.18L290.46-8.18L290.46-8.18Q291.68-9.78 295.49-14.29L295.49-14.29L295.49-14.29Q295.91-14.85 296.38-14.85Z" fill="url(#editing-shiny-gradient2)"></path></g></g><style>text {
  font-size: 64px;
  font-family: Arial Black;
  dominant-baseline: central;
  text-anchor: middle;
}</style></svg>