<svg width="1079.7374023437499px" height="222.2999755859375px" xmlns="http://www.w3.org/2000/svg" viewBox="-289.86870117187493 -36.149987792968744 1079.7374023437499 222.2999755859375" style="background: rgba(0, 0, 0, 0);" preserveAspectRatio="xMidYMid"><defs><linearGradient id="editing-shiny-gradient" x1="0.04322727117869957" x2="0.9567727288213004" y1="0.2966316784620999" y2="0.7033683215379001" gradientUnits="objectBoundingBox"><stop offset="0.0" stop-color="#ffb200"></stop><stop offset="0.5" stop-color="#e10057"></stop><stop offset="1.0" stop-color="#5A1A80"></stop></linearGradient><linearGradient id="editing-shiny-gradient2" x1="0" x2="0" y1="0" y2="1"><stop offset="0.2" stop-color="#fff" stop-opacity="0.8"></stop><stop offset="0.8" stop-color="#fff" stop-opacity="0"></stop></linearGradient><filter id="editing-shiny2" x="-100%" y="-100%" width="300%" height="300%"><feMorphology operator="erode" radius="2"></feMorphology></filter><filter id="editing-shiny" x="-100%" y="-100%" width="300%" height="300%"><feFlood flood-color="#fff" result="flood"></feFlood><feConvolveMatrix in="SourceGraphic" result="conv" order="8,8" divisor="1" kernelMatrix="0 0 0 0 0 0 0 0 0 0 0 1 1 0 0 0 0 0 0 1 1 0 0 0 0 0 1 0 0 1 0 0 0 0 1 0 0 1 0 0 0 1 0 0 0 0 1 0 0 1 1 0 0 1 1 0 0 0 0 1 1 0 0 0 "></feConvolveMatrix><feOffset dx="0" dy="4" in="conv" result="offset"></feOffset><feComposite operator="in" in="flood" in2="offset" result="comp"></feComposite><feGaussianBlur in="offset" stdDeviation="3" result="shadow"></feGaussianBlur><feColorMatrix in="shadow" type="matrix" values="0.7 0 0 0 0  0 0.7 0 0 0  0 0 0.7 0 0  0 0 0 0.3 0" result="dark-shadow"></feColorMatrix><feOffset dx="0" dy="4" in="dark-shadow" result="offset-shadow"></feOffset><feOffset dx="0" dy="2" in="conv" result="offset-2"></feOffset><feComposite operator="out" in="offset" in2="offset-2" result="edge-diff"></feComposite><feGaussianBlur in="edge-diff" stdDeviation="1" result="edge-blur"></feGaussianBlur><feColorMatrix in="edge-blur" result="edge-shadow" type="matrix" values="0 0 0 0 0  0 0 0 0 0  0 0 0 0 0  0 0 0 0.5 0"></feColorMatrix><feComposite operator="in" in="edge-shadow" in2="offset" result="edge-shadow-in"></feComposite><feOffset dx="0" dy="1" in="edge-shadow-in" result="edge-shadow-final"></feOffset><feMerge result="out"><feMergeNode in="offset-shadow"></feMergeNode><feMergeNode in="comp"></feMergeNode><feMergeNode in="edge-shadow-final"></feMergeNode><feMergeNode in="SourceGraphic"></feMergeNode></feMerge></filter></defs><g filter="url(#editing-shiny)"><g transform="translate(-143.71000003814697, 128.72999954223633)"><path d="M66.76-83.06L66.76-83.06L66.76-83.06Q68.07-83.06 68.84-82.29L68.84-82.29L68.84-82.29Q69.62-81.52 69.62-80.68L69.62-80.68L69.62-80.68Q69.62-79.85 68.54-78.54L68.54-78.54L68.54-78.54Q52.48-60.10 31.71-32.19L31.71-32.19L31.71-32.19Q10.95-4.28 7.14 5.71L7.14 5.71L7.14 5.71Q6.43 7.85 6.43 9.82L6.43 9.82L6.43 9.82Q6.43 11.78 7.38 12.20L7.38 12.20L7.38 12.20Q8.33 12.61 7.74 13.57L7.74 13.57L7.74 13.57Q6.90 14.76 5.24 14.76L5.24 14.76L5.24 14.76Q3.21 14.76 3.21 10.83L3.21 10.83L3.21 10.83Q3.21 6.90 5.83-0.24L5.83-0.24L5.83-0.24Q9.52-10.35 36.89-47.12L36.89-47.12L36.89-47.12Q63.90-83.06 66.76-83.06ZM166.00-50.93L166.00-50.93L166.00-50.93Q161.60-49.15 158.45-49.15L158.45-49.15L158.45-49.15Q155.30-49.15 155.30-50.46L155.30-50.46L155.30-50.46Q155.30-51.29 158.81-51.41L158.81-51.41L158.81-51.41Q162.32-51.53 163.86-52.24L163.86-52.24L163.86-52.24Q168.38-54.62 168.38-59.26L168.38-59.26L168.38-59.26Q168.38-61.64 167.08-64.26L167.08-64.26L167.08-64.26Q163.27-71.04 148.63-71.04L148.63-71.04L148.63-71.04Q140.18-71.04 131.73-68.48L131.73-68.48L131.73-68.48Q123.28-65.93 117.57-60.63L117.57-60.63L117.57-60.63Q111.86-55.34 111.86-50.81L111.86-50.81L111.86-50.81Q111.86-43.91 125.55-40.70L125.55-40.70L139.59-38.08L139.59-38.08Q148.04-36.53 152.20-33.80L152.20-33.80L152.20-33.80Q157.68-30.46 157.68-24.28L157.68-24.28L157.68-24.28Q157.68-21.78 156.84-18.92L156.84-18.92L156.84-18.92Q153.03-6.07 137.21 0.71L137.21 0.71L137.21 0.71Q124.00 6.55 106.03 6.55L106.03 6.55L106.03 6.55Q100.91 6.55 97.10 6.07L97.10 6.07L97.10 6.07Q100.91 8.21 107.10 9.76L107.10 9.76L107.10 9.76Q107.58 9.88 107.58 10.23L107.58 10.23L107.58 10.23Q107.58 11.31 105.08 11.31L105.08 11.31L105.08 11.31Q100.20 11.31 92.94 5.47L92.94 5.47L92.94 5.47Q83.06 3.93 78.18 0L78.18 0L78.18 0Q75.09-2.50 72.47-7.38L72.47-7.38L72.47-7.38Q69.85-12.26 69.85-16.18L69.85-16.18L69.85-16.18Q69.85-20.11 71.40-22.73L71.40-22.73L71.40-22.73Q74.97-29.04 80.44-29.04L80.44-29.04L80.44-29.04Q84.61-29.04 85.32-22.02L85.32-22.02L85.32-22.02Q86.99-8.45 87.58-6.55L87.58-6.55L87.58-6.55Q89.37-0.71 93.65 3.33L93.65 3.33L93.65 3.33Q98.65 4.40 104.48 4.40L104.48 4.40L104.48 4.40Q117.33 4.40 129.71-0.71L129.71-0.71L129.71-0.71Q142.09-5.83 147.56-15.23L147.56-15.23L147.56-15.23Q149.82-18.92 149.82-21.78L149.82-21.78L149.82-21.78Q149.82-27.37 139.94-30.46L139.94-30.46L119-35.22L119-35.22Q112.57-36.77 108.71-40.34L108.71-40.34L108.71-40.34Q104.84-43.91 104.84-48.55L104.84-48.55L104.84-48.55Q104.84-55.69 113.76-62.83L113.76-62.83L113.76-62.83Q120.55-68.31 130.36-71.34L130.36-71.34L130.36-71.34Q140.18-74.38 149.64-74.38L149.64-74.38L149.64-74.38Q159.10-74.38 165.29-71.64L165.29-71.64L165.29-71.64Q173.26-67.95 173.26-60.87L173.26-60.87L173.26-60.87Q173.26-53.79 166.00-50.93ZM89.37 2.14L89.37 2.14L89.37 2.14Q82.47-5.47 80.56-18.68L80.56-18.68L80.56-18.68Q79.49-26.18 78.54-26.18L78.54-26.18L78.54-26.18Q77.59-26.18 76.76-25.64L76.76-25.64L76.76-25.64Q75.92-25.11 75.09-23.32L75.09-23.32L75.09-23.32Q74.26-21.54 74.26-18.68L74.26-18.68L74.26-18.68Q74.26-9.52 80.68-2.98L80.68-2.98L80.68-2.98Q83.90 0.36 89.37 2.14ZM191.95-38.32L191.95-38.32L209.08-38.56L209.08-38.56Q209.44-38.32 209.44-38.20L209.44-38.20L209.44-38.20Q209.44-37.13 194.62-35.22L194.62-35.22L194.62-35.22Q179.81-33.32 178.62-32.96L178.62-32.96L178.62-32.96Q176.36-30.94 170.29-20.88L170.29-20.88L170.29-20.88Q164.22-10.83 164.22-6.19L164.22-6.19L164.22-6.19Q164.22-1.79 170.29-1.79L170.29-1.79L170.29-1.79Q173.15-1.79 177.79-3.57L177.79-3.57L177.79-3.57Q182.43-5.36 184.93-6.90L184.93-6.90L184.93-6.90Q191.59-11.07 199.21-19.16L199.21-19.16L199.21-19.16Q200.87-20.83 201.47-20.83L201.47-20.83L201.47-20.83Q201.82-20.83 201.82-20.11L201.82-20.11L201.82-20.11Q201.82-19.40 200.04-17.26L200.04-17.26L200.04-17.26Q193.85-9.64 186.12-5.00L186.12-5.00L186.12-5.00Q176.83 0.71 168.39 0.71L168.39 0.71L168.39 0.71Q164.70 0.71 162.38-0.89L162.38-0.89L162.38-0.89Q160.06-2.50 160.06-7.38L160.06-7.38L160.06-7.38Q160.06-12.26 164.34-20.77L164.34-20.77L164.34-20.77Q168.62-29.27 170.88-33.44L170.88-33.44L170.88-33.44Q169.22-33.08 168.03-33.08L168.03-33.08L168.03-33.08Q164.58-33.08 164.58-35.82L164.58-35.82L164.58-35.82Q164.58-37.84 167.43-38.68L167.43-38.68L167.43-38.68Q167.79-38.68 168.50-38.79L168.50-38.79L175.41-38.79L175.41-38.79Q177.55-41.53 180.28-45.10L180.28-45.10L180.28-45.10Q183.62-49.39 184.81-49.39L184.81-49.39L184.81-49.39Q186.00-49.39 187.78-48.43L187.78-48.43L187.78-48.43Q189.57-47.48 189.57-46.17L189.57-46.17L189.57-46.17Q189.57-44.86 183.86-38.44L183.86-38.44L183.86-38.44Q186.95-38.32 191.95-38.32ZM235.74-35.58L235.74-35.58L237.41-35.94L237.41-35.94Q238.71-35.94 239.90-34.87L239.90-34.87L239.90-34.87Q241.09-33.80 241.09-33.20L241.09-33.20L241.09-33.20Q241.09-32.61 233.72-21.72L233.72-21.72L233.72-21.72Q226.34-10.83 226.34-6.55L226.34-6.55L226.34-6.55Q226.34-6.19 226.46-5.83L226.46-5.83L226.46-5.83Q227.05-3.09 229.07-3.09L229.07-3.09L229.07-3.09Q235.26-3.09 251.69-23.56L251.69-23.56L251.69-23.56Q252.04-24.04 252.52-24.04L252.52-24.04L252.52-24.04Q252.99-24.04 252.99-23.15L252.99-23.15L252.99-23.15Q252.99-22.25 251.92-20.83L251.92-20.83L251.92-20.83Q236.69-0.48 228.72-0.48L228.72-0.48L228.72-0.48Q227.65-0.48 226.69-0.83L226.69-0.83L226.69-0.83Q221.46-2.86 221.46-8.69L221.46-8.69L221.46-8.69Q221.46-10.71 221.94-12.73L221.94-12.73L214.56-5.59L214.56-5.59Q207.54 0.60 204.38 0.60L204.38 0.60L204.38 0.60Q201.23 0.60 198.37-1.43L198.37-1.43L198.37-1.43Q195.16-3.81 195.16-7.74L195.16-7.74L195.16-7.74Q195.16-16.42 207.30-28.50L207.30-28.50L207.30-28.50Q219.44-40.58 229.55-40.58L229.55-40.58L229.55-40.58Q233.48-40.58 234.79-37.84L234.79-37.84L234.79-37.84Q235.14-36.89 235.38-36.24L235.38-36.24L235.38-36.24Q235.62-35.58 235.74-35.58ZM200.16-6.31L200.16-6.31L200.16-6.31Q200.16-2.02 203.13-2.02L203.13-2.02L203.13-2.02Q210.03-2.02 221.94-17.14L221.94-17.14L234.55-34.51L234.55-34.51Q233.60-36.18 231.45-36.18L231.45-36.18L231.45-36.18Q224.20-36.18 212.18-24.93L212.18-24.93L212.18-24.93Q200.16-13.69 200.16-6.31ZM272.39-29.63L272.39-29.63L272.39-29.63Q272.39-37.72 277.39-37.72L277.39-37.72L277.39-37.72Q277.87-37.72 278.46-37.60L278.46-37.60L278.46-37.60Q280.48-37.25 280.48-34.51L280.48-34.51L280.48-34.51Q280.48-31.77 279.53-27.61L279.53-27.61L279.53-27.61Q278.58-24.51 278.22-22.97L278.22-22.97L278.22-22.97Q278.58-20.94 280.19-17.79L280.19-17.79L280.19-17.79Q281.79-14.64 284.59-14.64L284.59-14.64L284.59-14.64Q287.38-14.64 290.84-18.45L290.84-18.45L290.84-18.45Q291.55-19.28 292.20-19.28L292.20-19.28L292.20-19.28Q292.86-19.28 292.92-18.50L292.92-18.50L292.92-18.50Q292.98-17.73 292.03-16.42L292.03-16.42L292.03-16.42Q288.34-12.02 284.29-12.02L284.29-12.02L284.29-12.02Q278.46-12.02 274.89-20.59L274.89-20.59L274.89-20.59Q271.20-12.14 264.42-6.01L264.42-6.01L264.42-6.01Q257.63 0.12 250.97 0.12L250.97 0.12L250.97 0.12Q244.66 0.12 244.66-9.40L244.66-9.40L244.66-9.40Q244.66-16.90 258.65-37.01L258.65-37.01L258.65-37.01Q272.63-57.12 280.01-57.12L280.01-57.12L280.01-57.12Q281.55-57.12 282.80-56.17L282.80-56.17L282.80-56.17Q284.05-55.22 284.05-53.91L284.05-53.91L284.05-53.91Q284.05-54.03 282.33-52.12L282.33-52.12L282.33-52.12Q280.60-50.22 272.93-41.89L272.93-41.89L272.93-41.89Q265.25-33.56 257.87-23.56L257.87-23.56L257.87-23.56Q250.50-13.57 250.50-8.09L250.50-8.09L250.50-8.09Q250.50-6.66 251.27-5.00L251.27-5.00L251.27-5.00Q252.04-3.33 253.83-3.33L253.83-3.33L253.83-3.33Q259.06-3.33 266.08-11.42L266.08-11.42L266.08-11.42Q271.92-18.56 273.22-23.44L273.22-23.44L273.22-23.44Q272.39-25.94 272.39-29.63ZM293.34-5.95L293.34-5.95L293.34-5.95Q293.34-2.38 297.26-2.38L297.26-2.38L297.26-2.38Q301.19-2.38 307.38-6.55L307.38-6.55L307.38-6.55Q313.56-10.71 319.40-17.85L319.40-17.85L319.40-17.85Q320.82-19.75 321.66-19.75L321.66-19.75L321.66-19.75Q322.49-19.75 322.49-19.04L322.49-19.04L322.49-19.04Q322.49-18.33 317.61-12.85L317.61-12.85L317.61-12.85Q305.71 0.24 297.74 0.24L297.74 0.24L297.74 0.24Q293.81 0.24 291.07-1.61L291.07-1.61L291.07-1.61Q288.34-3.45 288.34-7.32L288.34-7.32L288.34-7.32Q288.34-11.19 290.36-16.30L290.36-16.30L290.36-16.30Q293.81-24.40 301.43-36.65L301.43-36.65L301.43-36.65Q315.35-59.26 321.18-59.26L321.18-59.26L321.18-59.26Q322.37-59.26 323.62-58.37L323.62-58.37L323.62-58.37Q324.87-57.48 324.99-56.41L324.99-56.41L324.99-56.41Q322.25-52.72 314.46-42.25L314.46-42.25L314.46-42.25Q306.66-31.77 303.69-27.19L303.69-27.19L303.69-27.19Q300.71-22.61 299.23-20.35L299.23-20.35L299.23-20.35Q297.74-18.09 297.02-16.84L297.02-16.84L297.02-16.84Q296.31-15.59 295.36-13.57L295.36-13.57L295.36-13.57Q293.34-9.52 293.34-5.95ZM323.68 1.55L323.68 1.55L323.68 1.55Q322.37 1.55 321.30 1.19L321.30 1.19L321.30 1.19Q313.68-0.95 313.68-7.38L313.68-7.38L313.68-7.38Q313.68-15.71 324.16-26.66L324.16-26.66L324.16-26.66Q334.63-37.60 342.96-37.60L342.96-37.60L342.96-37.60Q345.69-37.60 347.42-36.12L347.42-36.12L347.42-36.12Q349.15-34.63 349.15-32.49L349.15-32.49L349.15-32.49Q349.15-25.82 339.09-19.75L339.09-19.75L339.09-19.75Q329.03-13.69 322.73-13.69L322.73-13.69L322.73-13.69Q321.78-13.69 321.06-13.92L321.06-13.92L321.06-13.92Q319.28-10.71 319.28-7.14L319.28-7.14L319.28-7.14Q319.28-0.95 325.17-0.95L325.17-0.95L325.17-0.95Q331.06-0.95 340.46-8.93L340.46-8.93L340.46-8.93Q347.72-14.76 352.83-21.30L352.83-21.30L352.83-21.30Q353.91-22.73 354.68-22.73L354.68-22.73L354.68-22.73Q355.45-22.73 355.45-22.02L355.45-22.02L355.45-22.02Q355.45-21.30 354.50-19.99L354.50-19.99L354.50-19.99Q348.07-11.54 339.03-5.00L339.03-5.00L339.03-5.00Q329.99 1.55 323.68 1.55ZM346.17-32.73L346.17-32.73L346.17-32.73Q346.17-34.15 343.14-34.15L343.14-34.15L343.14-34.15Q340.10-34.15 334.51-29.51L334.51-29.51L334.51-29.51Q327.01-23.32 322.85-16.54L322.85-16.54L322.85-16.54Q323.56-16.30 324.39-16.30L324.39-16.30L324.39-16.30Q328.92-16.30 336.47-21.12L336.47-21.12L336.47-21.12Q344.03-25.94 345.93-31.65L345.93-31.65L345.93-31.65Q346.17-32.25 346.17-32.73ZM360.69-30.94L360.69-30.94L372.23-30.82L372.23-30.82Q379.13-30.82 382.11-31.18L382.11-31.18L382.11-31.18Q382.23-31.06 382.23-30.82L382.23-30.82L382.23-30.82Q382.23-29.04 372.83-27.37L372.83-27.37L372.83-27.37Q367.71-26.66 363.25-25.88L363.25-25.88L363.25-25.88Q358.79-25.11 357.54-25.11L357.54-25.11L357.54-25.11Q356.29-25.11 353.37-25.64L353.37-25.64L353.37-25.64Q350.46-26.18 350.46-27.97L350.46-27.97L350.46-27.97Q350.46-29.16 351.47-29.99L351.47-29.99L351.47-29.99Q352.48-30.82 353.19-30.82L353.19-30.82L353.19-30.82Q353.91-30.82 354.62-30.94L354.62-30.94L357.71-30.94L357.71-30.94Q359.02-30.94 360.69-30.94ZM405.79-2.98L405.79-2.98L405.79-2.98Q395.32 5.12 390.44 5.12L390.44 5.12L390.44 5.12Q387.82 5.12 386.57 2.56L386.57 2.56L386.57 2.56Q385.32 0 385.32-2.98L385.32-2.98L385.32-2.98Q385.32-8.69 390.14-20.11L390.14-20.11L390.14-20.11Q394.96-31.54 399.36-31.54L399.36-31.54L399.36-31.54Q401.63-31.54 403.23-22.61L403.23-22.61L403.23-22.61Q404.84-13.69 406.50-9.64L406.50-9.64L406.50-9.64Q414.60-18.21 429.95-38.20L429.95-38.20L429.95-38.20Q449.23-63.55 455.53-65.93L455.53-65.93L455.53-65.93Q457.67-66.76 459.94-66.76L459.94-66.76L459.94-66.76Q462.20-66.76 463.68-65.81L463.68-65.81L463.68-65.81Q465.17-64.86 465.17-63.43L465.17-63.43L465.17-63.43Q465.17-61.40 461.72-61.05L461.72-61.05L461.72-61.05Q457.56-58.79 448.87-50.10L448.87-50.10L448.87-50.10Q440.18-41.65 434.95-34.27L434.95-34.27L434.95-34.27Q422.21-16.54 408.77-5.36L408.77-5.36L408.77-5.36Q415.43 4.52 429.71 4.52L429.71 4.52L429.71 4.52Q431.26 4.52 434.35 4.28L434.35 4.28L434.35 4.28Q467.43 1.19 481.24-24.40L481.24-24.40L481.24-24.40Q486.83-34.63 486.83-44.63L486.83-44.63L486.83-44.63Q486.83-54.62 479.57-62.59L479.57-62.59L479.57-62.59Q473.74-69.14 466.90-70.69L466.90-70.69L466.90-70.69Q460.05-72.23 452.91-72.23L452.91-72.23L452.91-72.23Q434.59-72.23 419.12-63.78L419.12-63.78L419.12-63.78Q402.82-54.86 402.82-43.79L402.82-43.79L402.82-43.79Q402.82-40.82 404.42-38.91L404.42-38.91L404.42-38.91Q406.03-37.01 406.62-36.77L406.62-36.77L405.91-36.77L405.91-36.77Q402.82-37.37 400.44-39.87L400.44-39.87L400.44-39.87Q397.82-42.96 397.82-46.41L397.82-46.41L397.82-46.41Q397.82-58.31 412.75-66.88L412.75-66.88L412.75-66.88Q427.69-75.45 447.80-75.45L447.80-75.45L447.80-75.45Q457.08-75.45 466.84-73.30L466.84-73.30L466.84-73.30Q476.60-71.16 484.57-63.07L484.57-63.07L484.57-63.07Q493.73-53.55 493.73-41.53L493.73-41.53L493.73-41.53Q493.73-32.61 488.50-23.09L488.50-23.09L488.50-23.09Q479.45-6.66 461.48 0.95L461.48 0.95L461.48 0.95Q447.08 7.02 430.42 7.02L430.42 7.02L430.42 7.02Q413.76 7.02 405.79-2.98ZM389.61-3.45L389.61-3.45L389.61-3.45Q389.61 0.24 391.03 2.98L391.03 2.98L391.03 2.98Q396.15 0.71 403.41-6.43L403.41-6.43L403.41-6.43Q399.96-12.14 399.07-15.41L399.07-15.41L399.07-15.41Q398.17-18.68 397.82-24.04L397.82-24.04L397.82-24.04Q389.61-12.26 389.61-3.45ZM406.62-36.77L406.62-36.77L406.62-36.77Q406.74-36.77 406.86-36.89L406.86-36.89L406.86-36.89Q406.86-36.65 406.80-36.65L406.80-36.65L406.80-36.65Q406.74-36.65 406.62-36.77ZM518.96-48.55L518.96-48.55Q520.74-48.55 522.35-47.42L522.35-47.42L522.35-47.42Q523.96-46.29 523.96-44.74L523.96-44.74L523.96-44.74Q523.96-43.20 522.47-42.07L522.47-42.07L522.47-42.07Q520.98-40.94 519.20-40.94L519.20-40.94L519.20-40.94Q517.41-40.94 515.92-42.25L515.92-42.25L515.92-42.25Q514.44-43.55 514.44-45.22L514.44-45.22L514.44-45.22Q514.44-48.55 518.96-48.55L518.96-48.55ZM497.42 1.31L497.42 1.31L497.42 1.31Q491.35 1.31 491.35-6.55L491.35-6.55L491.35-6.55Q491.35-12.97 498.37-24.34L498.37-24.34L498.37-24.34Q505.39-35.70 509.68-35.82L509.68-35.82L509.68-35.82Q510.87-35.82 512.35-34.87L512.35-34.87L512.35-34.87Q513.84-33.91 513.84-32.96L513.84-32.96L513.84-32.96Q513.25-32.13 512.41-31.12L512.41-31.12L512.41-31.12Q511.58-30.11 510.63-28.92L510.63-28.92L510.63-28.92Q509.68-27.73 508.01-25.53L508.01-25.53L508.01-25.53Q506.35-23.32 504.80-21.30L504.80-21.30L504.80-21.30Q495.87-9.76 495.87-5.41L495.87-5.41L495.87-5.41Q495.87-1.07 498.85-1.07L498.85-1.07L498.85-1.07Q501.35-1.07 505.63-3.81L505.63-3.81L505.63-3.81Q515.63-10.00 521.46-17.37L521.46-17.37L521.46-17.37Q523.60-20.11 524.37-20.11L524.37-20.11L524.37-20.11Q525.15-20.11 525.15-19.16L525.15-19.16L525.15-19.16Q525.15-18.21 522.41-15.35L522.41-15.35L522.41-15.35Q519.67-12.50 518.07-10.83L518.07-10.83L518.07-10.83Q516.46-9.16 515.87-8.63L515.87-8.63L515.87-8.63Q515.27-8.09 513.66-6.60L513.66-6.60L513.66-6.60Q512.06-5.12 511.22-4.52L511.22-4.52L511.22-4.52Q510.39-3.93 508.84-2.74L508.84-2.74L508.84-2.74Q507.30-1.55 506.11-1.01L506.11-1.01L506.11-1.01Q504.92-0.48 503.37 0.24L503.37 0.24L503.37 0.24Q500.87 1.31 497.42 1.31ZM568.58-58.19L568.58-58.19L568.58-58.19Q568.58-54.50 566.44-54.50L566.44-54.50L566.44-54.50Q565.85-54.50 565.25-55.45L565.25-55.45L565.25-55.45Q564.18-57.36 561.68-57.36L561.68-57.36L561.68-57.36Q556.21-57.36 551.45-49.50L551.45-49.50L551.45-49.50Q550.49-47.96 545.50-38.32L545.50-38.32L546.92-38.32L546.92-38.32Q559.89-38.32 564.18-38.68L564.18-38.68L564.18-38.68Q564.65-38.56 564.65-38.20L564.65-38.20L564.65-38.20Q564.65-37.25 556.21-35.58L556.21-35.58L556.21-35.58Q548.23-34.27 543.12-33.32L543.12-33.32L543.12-33.32Q539.43-25.70 534.19-15.23L534.19-15.23L534.19-15.23Q523.48 4.76 520.03 9.64L520.03 9.64L520.03 9.64Q509.68 24.40 499.80 24.40L499.80 24.40L499.80 24.40Q496.35 24.40 493.79 21.48L493.79 21.48L493.79 21.48Q491.23 18.56 491.11 14.99L491.11 14.99L491.11 14.99Q491.47 13.57 492.18 13.57L492.18 13.57L492.18 13.57Q492.54 13.57 492.66 14.40L492.66 14.40L492.66 14.40Q493.37 17.49 495.04 19.16L495.04 19.16L495.04 19.16Q496.71 20.83 498.49 20.83L498.49 20.83L498.49 20.83Q508.61 20.83 516.94 8.33L516.94 8.33L516.94 8.33Q521.70 1.19 529.91-17.37L529.91-17.37L536.33-32.84L536.33-32.84Q524.43-32.96 524.43-35.70L524.43-35.70L524.43-35.70Q524.43-36.89 525.56-37.72L525.56-37.72L525.56-37.72Q526.69-38.56 527.53-38.56L527.53-38.56L538.71-38.32L538.71-38.32Q550.38-64.26 560.13-64.26L560.13-64.26L560.13-64.26Q563.82-64.26 567.63-60.69L567.63-60.69L567.63-60.69Q568.58-59.74 568.58-58.19ZM597.38-58.19L597.38-58.19L597.38-58.19Q597.38-54.50 595.24-54.50L595.24-54.50L595.24-54.50Q594.64-54.50 594.05-55.45L594.05-55.45L594.05-55.45Q592.98-57.36 590.48-57.36L590.48-57.36L590.48-57.36Q585.00-57.36 580.24-49.50L580.24-49.50L580.24-49.50Q579.29-47.96 574.29-38.32L574.29-38.32L575.72-38.32L575.72-38.32Q588.69-38.32 592.98-38.68L592.98-38.68L592.98-38.68Q593.45-38.56 593.45-38.20L593.45-38.20L593.45-38.20Q593.45-37.25 585.00-35.58L585.00-35.58L585.00-35.58Q577.03-34.27 571.91-33.32L571.91-33.32L571.91-33.32Q568.23-25.70 562.99-15.23L562.99-15.23L562.99-15.23Q552.28 4.76 548.83 9.64L548.83 9.64L548.83 9.64Q538.48 24.40 528.60 24.40L528.60 24.40L528.60 24.40Q525.15 24.40 522.59 21.48L522.59 21.48L522.59 21.48Q520.03 18.56 519.91 14.99L519.91 14.99L519.91 14.99Q520.27 13.57 520.98 13.57L520.98 13.57L520.98 13.57Q521.34 13.57 521.46 14.40L521.46 14.40L521.46 14.40Q522.17 17.49 523.84 19.16L523.84 19.16L523.84 19.16Q525.50 20.83 527.29 20.83L527.29 20.83L527.29 20.83Q537.40 20.83 545.73 8.33L545.73 8.33L545.73 8.33Q550.49 1.19 558.70-17.37L558.70-17.37L565.13-32.84L565.13-32.84Q553.23-32.96 553.23-35.70L553.23-35.70L553.23-35.70Q553.23-36.89 554.36-37.72L554.36-37.72L554.36-37.72Q555.49-38.56 556.32-38.56L556.32-38.56L567.51-38.32L567.51-38.32Q579.17-64.26 588.93-64.26L588.93-64.26L588.93-64.26Q592.62-64.26 596.43-60.69L596.43-60.69L596.43-60.69Q597.38-59.74 597.38-58.19ZM610.95 0.71L610.95 0.71L610.95 0.71Q610.35 0.83 608.39 0.83L608.39 0.83L608.39 0.83Q606.42 0.83 604.46-0.71L604.46-0.71L604.46-0.71Q602.50-2.26 602.50-4.70L602.50-4.70L602.50-4.70Q602.50-7.14 603.39-10.12L603.39-10.12L603.39-10.12Q604.28-13.09 604.64-14.64L604.64-14.64L604.64-14.64Q590.95 1.31 583.22 1.31L583.22 1.31L583.22 1.31Q578.34 1.31 577.86-4.76L577.86-4.76L577.86-4.76Q577.86-5.24 577.86-5.59L577.86-5.59L577.86-5.59Q577.86-10.71 584.05-19.40L584.05-19.40L584.05-19.40Q580.60-16.30 577.03-12.26L577.03-12.26L577.03-12.26Q576.55-11.78 575.84-11.78L575.84-11.78L575.84-11.78Q575.37-11.78 575.37-12.38L575.37-12.38L575.37-12.38Q575.37-12.97 576.44-14.40L576.44-14.40L592.86-33.68L592.86-33.68Q595.95-37.25 599.16-37.25L599.16-37.25L599.16-37.25Q602.38-37.25 602.38-35.11L602.38-35.11L602.38-35.11Q602.38-34.27 601.66-33.56L601.66-33.56L601.66-33.56Q596.90-29.16 589.70-18.92L589.70-18.92L589.70-18.92Q582.50-8.69 582.50-3.81L582.50-3.81L582.50-3.81Q582.50-1.67 583.93-1.67L583.93-1.67L583.93-1.67Q588.93-1.67 598.45-11.54L598.45-11.54L598.45-11.54Q601.78-14.88 610.83-26.24L610.83-26.24L610.83-26.24Q619.87-37.60 622.73-37.60L622.73-37.60L622.73-37.60Q627.01-37.60 627.01-34.27L627.01-34.27L627.01-34.27Q627.01-33.08 622.01-27.37L622.01-27.37L622.01-27.37Q615.23-19.16 611.66-13.98L611.66-13.98L611.66-13.98Q608.09-8.81 608.09-5.59L608.09-5.59L608.09-5.59Q608.09-2.38 609.88-2.38L609.88-2.38L609.88-2.38Q610.71-2.38 611.78-2.86L611.78-2.86L611.78-2.86Q619.99-6.43 631.41-19.52L631.41-19.52L631.41-19.52Q632.13-20.35 632.84-20.35L632.84-20.35L632.84-20.35Q633.56-20.35 633.56-19.58L633.56-19.58L633.56-19.58Q633.56-18.80 632.72-17.85L632.72-17.85L632.72-17.85Q627.61-11.90 620.70-5.89L620.70-5.89L620.70-5.89Q613.80 0.12 610.95 0.71ZM653.90-4.28L650.10-1.79L650.10-1.79Q646.65 0.24 641.59 0.24L641.59 0.24L641.59 0.24Q636.53 0.24 633.85-3.09L633.85-3.09L633.85-3.09Q631.18-6.43 629.27-13.69L629.27-13.69L629.27-13.69Q627.13-11.54 626.30-11.54L626.30-11.54L626.30-11.54Q625.70-11.54 625.70-12.38L625.70-12.38L625.70-12.38Q625.70-13.21 626.30-13.80L626.30-13.80L626.30-13.80Q630.22-18.68 639.63-27.85L639.63-27.85L654.62-41.89L654.62-41.89Q661.05-47.96 662.24-47.96L662.24-47.96L662.24-47.96Q666.04-47.96 666.04-45.10L666.04-45.10L666.04-45.10Q666.04-43.67 664.91-42.30L664.91-42.30L664.91-42.30Q663.78-40.94 663.25-40.16L663.25-40.16L663.25-40.16Q662.71-39.39 662.12-38.68L662.12-38.68L662.12-38.68Q659.97-34.99 657.77-23.44L657.77-23.44L657.77-23.44Q655.57-11.90 654.38-7.38L654.38-7.38L654.38-7.38Q664.26-7.50 674.73-20.23L674.73-20.23L674.73-20.23Q675.92-21.42 676.51-21.42L676.51-21.42L676.51-21.42Q677.11-21.42 677.11-20.65L677.11-20.65L677.11-20.65Q677.11-19.87 676.04-18.56L676.04-18.56L676.04-18.56Q669.14-10.47 663.19-7.26L663.19-7.26L663.19-7.26Q659.62-5.47 653.90-4.28L653.90-4.28ZM634.03-14.99L634.03-14.99L634.03-14.99Q634.03-10.95 636.71-8.39L636.71-8.39L636.71-8.39Q639.39-5.83 642.72-5.83L642.72-5.83L642.72-5.83Q646.05-5.83 647.84-7.14L647.84-7.14L647.84-7.14Q650.22-8.45 652.54-18.09L652.54-18.09L652.54-18.09Q654.86-27.73 655.33-35.11L655.33-35.11L655.81-39.15L655.81-39.15Q649.26-34.27 641.83-26.54L641.83-26.54L641.83-26.54Q634.39-18.80 634.15-16.30L634.15-16.30L634.15-16.30Q634.03-15.59 634.03-14.99ZM696.75-48.55L696.75-48.55Q698.53-48.55 700.14-47.42L700.14-47.42L700.14-47.42Q701.74-46.29 701.74-44.74L701.74-44.74L701.74-44.74Q701.74-43.20 700.26-42.07L700.26-42.07L700.26-42.07Q698.77-40.94 696.98-40.94L696.98-40.94L696.98-40.94Q695.20-40.94 693.71-42.25L693.71-42.25L693.71-42.25Q692.22-43.55 692.22-45.22L692.22-45.22L692.22-45.22Q692.22-48.55 696.75-48.55L696.75-48.55ZM675.21 1.31L675.21 1.31L675.21 1.31Q669.14 1.31 669.14-6.55L669.14-6.55L669.14-6.55Q669.14-12.97 676.16-24.34L676.16-24.34L676.16-24.34Q683.18-35.70 687.46-35.82L687.46-35.82L687.46-35.82Q688.65-35.82 690.14-34.87L690.14-34.87L690.14-34.87Q691.63-33.91 691.63-32.96L691.63-32.96L691.63-32.96Q691.03-32.13 690.20-31.12L690.20-31.12L690.20-31.12Q689.37-30.11 688.42-28.92L688.42-28.92L688.42-28.92Q687.46-27.73 685.80-25.53L685.80-25.53L685.80-25.53Q684.13-23.32 682.58-21.30L682.58-21.30L682.58-21.30Q673.66-9.76 673.66-5.41L673.66-5.41L673.66-5.41Q673.66-1.07 676.63-1.07L676.63-1.07L676.63-1.07Q679.13-1.07 683.42-3.81L683.42-3.81L683.42-3.81Q693.41-10.00 699.24-17.37L699.24-17.37L699.24-17.37Q701.39-20.11 702.16-20.11L702.16-20.11L702.16-20.11Q702.93-20.11 702.93-19.16L702.93-19.16L702.93-19.16Q702.93-18.21 700.20-15.35L700.20-15.35L700.20-15.35Q697.46-12.50 695.85-10.83L695.85-10.83L695.85-10.83Q694.25-9.16 693.65-8.63L693.65-8.63L693.65-8.63Q693.06-8.09 691.45-6.60L691.45-6.60L691.45-6.60Q689.84-5.12 689.01-4.52L689.01-4.52L689.01-4.52Q688.18-3.93 686.63-2.74L686.63-2.74L686.63-2.74Q685.08-1.55 683.89-1.01L683.89-1.01L683.89-1.01Q682.70-0.48 681.16 0.24L681.16 0.24L681.16 0.24Q678.66 1.31 675.21 1.31ZM728.88-25.23L728.88-25.23L728.88-25.23Q728.88-21.06 720.90-11.31L720.90-11.31L720.90-11.31Q711.50 0.24 704.84 0.24L704.84 0.24L702.93 0.24L702.93 0.24Q699.84 0.24 698.05-2.98L698.05-2.98L698.05-2.98Q696.63-5.24 696.63-7.97L696.63-7.97L696.63-7.97Q696.63-15.11 707.04-28.02L707.04-28.02L707.04-28.02Q717.45-40.94 723.88-40.94L723.88-40.94L723.88-40.94Q729.95-40.94 729.95-34.51L729.95-34.51L729.95-34.51Q729.95-32.84 729.35-30.23L729.35-30.23L729.35-30.23Q729.47-29.87 731.61-29.87L731.61-29.87L731.61-29.87Q733.75-29.87 738.16-32.13L738.16-32.13L738.16-32.13Q738.04-30.11 728.76-26.30L728.76-26.30L728.76-26.30Q728.88-25.82 728.88-25.23ZM721.14-31.42L721.14-31.42L721.14-31.42Q717.09-31.42 709.66-21.90L709.66-21.90L709.66-21.90Q702.22-12.38 702.22-7.85L702.22-7.85L702.22-7.85Q702.22-3.33 705.08-3.33L705.08-3.33L705.08-3.33Q710.19-3.33 718.05-12.61L718.05-12.61L718.05-12.61Q725.90-21.90 725.90-25.94L725.90-25.94L725.90-25.94Q724.00-27.01 721.14-31.42ZM750.41-37.60L750.41-37.60L750.41-37.60Q753.63-37.60 753.63-35.11L753.63-35.11L753.63-35.11Q753.63-34.39 753.27-33.68L753.27-33.68L753.27-33.68Q742.56-18.80 740.42-11.19L740.42-11.19L740.42-11.19Q768.14-38.91 774.10-38.91L774.10-38.91L774.10-38.91Q774.69-39.03 775.17-39.03L775.17-39.03L775.17-39.03Q778.50-39.03 778.50-36.06L778.50-36.06L778.50-36.06Q778.50-35.46 778.26-34.87L778.26-34.87L778.26-34.87Q778.02-34.27 773.50-28.44L773.50-28.44L773.50-28.44Q768.26-22.25 764.63-16.54L764.63-16.54L764.63-16.54Q761.00-10.83 761.00-7.02L761.00-7.02L761.00-7.02Q761.00-3.21 762.67-3.21L762.67-3.21L762.67-3.21Q767.91-3.21 780.88-17.61L780.88-17.61L780.88-17.61Q781.12-17.85 781.71-18.68L781.71-18.68L781.71-18.68Q783.50-20.83 783.85-20.83L783.85-20.83L783.85-20.83Q784.21-20.83 784.21-19.64L784.21-19.64L784.21-19.64Q784.21-18.45 782.54-16.54L782.54-16.54L782.54-16.54Q767.79 0.24 761.60 0.24L761.60 0.24L761.60 0.24Q755.77 0.24 755.77-6.19L755.77-6.19L755.77-6.19Q755.77-12.61 760.53-20.94L760.53-20.94L768.14-33.32L768.14-33.32Q760.05-27.37 753.75-20.29L753.75-20.29L753.75-20.29Q747.44-13.21 742.26-6.55L742.26-6.55L742.26-6.55Q737.09 0.12 736.25 0.12L736.25 0.12L736.25 0.12Q734.47 0.12 733.46-1.37L733.46-1.37L733.46-1.37Q732.45-2.86 732.45-5.06L732.45-5.06L732.45-5.06Q732.45-7.26 733.99-10.95L733.99-10.95L733.99-10.95Q735.54-14.64 737.92-19.87L737.92-19.87L730.78-12.38L730.78-12.38Q728.16-9.76 727.51-9.76L727.51-9.76L727.51-9.76Q726.85-9.76 726.85-10.53L726.85-10.53L726.85-10.53Q726.85-11.31 727.80-12.26L727.80-12.26L727.80-12.26Q732.21-16.66 735.42-20.71L735.42-20.71L735.42-20.71Q738.51-24.75 748.15-36.18L748.15-36.18L748.15-36.18Q749.22-37.60 750.41-37.60Z" fill="url(#editing-shiny-gradient)"></path></g></g><g filter="url(#editing-shiny2)"><g transform="translate(-143.71000003814697, 128.72999954223633)"><path d="M66.76-83.06L66.76-83.06L66.76-83.06Q68.07-83.06 68.84-82.29L68.84-82.29L68.84-82.29Q69.62-81.52 69.62-80.68L69.62-80.68L69.62-80.68Q69.62-79.85 68.54-78.54L68.54-78.54L68.54-78.54Q52.48-60.10 31.71-32.19L31.71-32.19L31.71-32.19Q10.95-4.28 7.14 5.71L7.14 5.71L7.14 5.71Q6.43 7.85 6.43 9.82L6.43 9.82L6.43 9.82Q6.43 11.78 7.38 12.20L7.38 12.20L7.38 12.20Q8.33 12.61 7.74 13.57L7.74 13.57L7.74 13.57Q6.90 14.76 5.24 14.76L5.24 14.76L5.24 14.76Q3.21 14.76 3.21 10.83L3.21 10.83L3.21 10.83Q3.21 6.90 5.83-0.24L5.83-0.24L5.83-0.24Q9.52-10.35 36.89-47.12L36.89-47.12L36.89-47.12Q63.90-83.06 66.76-83.06ZM166.00-50.93L166.00-50.93L166.00-50.93Q161.60-49.15 158.45-49.15L158.45-49.15L158.45-49.15Q155.30-49.15 155.30-50.46L155.30-50.46L155.30-50.46Q155.30-51.29 158.81-51.41L158.81-51.41L158.81-51.41Q162.32-51.53 163.86-52.24L163.86-52.24L163.86-52.24Q168.38-54.62 168.38-59.26L168.38-59.26L168.38-59.26Q168.38-61.64 167.08-64.26L167.08-64.26L167.08-64.26Q163.27-71.04 148.63-71.04L148.63-71.04L148.63-71.04Q140.18-71.04 131.73-68.48L131.73-68.48L131.73-68.48Q123.28-65.93 117.57-60.63L117.57-60.63L117.57-60.63Q111.86-55.34 111.86-50.81L111.86-50.81L111.86-50.81Q111.86-43.91 125.55-40.70L125.55-40.70L139.59-38.08L139.59-38.08Q148.04-36.53 152.20-33.80L152.20-33.80L152.20-33.80Q157.68-30.46 157.68-24.28L157.68-24.28L157.68-24.28Q157.68-21.78 156.84-18.92L156.84-18.92L156.84-18.92Q153.03-6.07 137.21 0.71L137.21 0.71L137.21 0.71Q124.00 6.55 106.03 6.55L106.03 6.55L106.03 6.55Q100.91 6.55 97.10 6.07L97.10 6.07L97.10 6.07Q100.91 8.21 107.10 9.76L107.10 9.76L107.10 9.76Q107.58 9.88 107.58 10.23L107.58 10.23L107.58 10.23Q107.58 11.31 105.08 11.31L105.08 11.31L105.08 11.31Q100.20 11.31 92.94 5.47L92.94 5.47L92.94 5.47Q83.06 3.93 78.18 0L78.18 0L78.18 0Q75.09-2.50 72.47-7.38L72.47-7.38L72.47-7.38Q69.85-12.26 69.85-16.18L69.85-16.18L69.85-16.18Q69.85-20.11 71.40-22.73L71.40-22.73L71.40-22.73Q74.97-29.04 80.44-29.04L80.44-29.04L80.44-29.04Q84.61-29.04 85.32-22.02L85.32-22.02L85.32-22.02Q86.99-8.45 87.58-6.55L87.58-6.55L87.58-6.55Q89.37-0.71 93.65 3.33L93.65 3.33L93.65 3.33Q98.65 4.40 104.48 4.40L104.48 4.40L104.48 4.40Q117.33 4.40 129.71-0.71L129.71-0.71L129.71-0.71Q142.09-5.83 147.56-15.23L147.56-15.23L147.56-15.23Q149.82-18.92 149.82-21.78L149.82-21.78L149.82-21.78Q149.82-27.37 139.94-30.46L139.94-30.46L119-35.22L119-35.22Q112.57-36.77 108.71-40.34L108.71-40.34L108.71-40.34Q104.84-43.91 104.84-48.55L104.84-48.55L104.84-48.55Q104.84-55.69 113.76-62.83L113.76-62.83L113.76-62.83Q120.55-68.31 130.36-71.34L130.36-71.34L130.36-71.34Q140.18-74.38 149.64-74.38L149.64-74.38L149.64-74.38Q159.10-74.38 165.29-71.64L165.29-71.64L165.29-71.64Q173.26-67.95 173.26-60.87L173.26-60.87L173.26-60.87Q173.26-53.79 166.00-50.93ZM89.37 2.14L89.37 2.14L89.37 2.14Q82.47-5.47 80.56-18.68L80.56-18.68L80.56-18.68Q79.49-26.18 78.54-26.18L78.54-26.18L78.54-26.18Q77.59-26.18 76.76-25.64L76.76-25.64L76.76-25.64Q75.92-25.11 75.09-23.32L75.09-23.32L75.09-23.32Q74.26-21.54 74.26-18.68L74.26-18.68L74.26-18.68Q74.26-9.52 80.68-2.98L80.68-2.98L80.68-2.98Q83.90 0.36 89.37 2.14ZM191.95-38.32L191.95-38.32L209.08-38.56L209.08-38.56Q209.44-38.32 209.44-38.20L209.44-38.20L209.44-38.20Q209.44-37.13 194.62-35.22L194.62-35.22L194.62-35.22Q179.81-33.32 178.62-32.96L178.62-32.96L178.62-32.96Q176.36-30.94 170.29-20.88L170.29-20.88L170.29-20.88Q164.22-10.83 164.22-6.19L164.22-6.19L164.22-6.19Q164.22-1.79 170.29-1.79L170.29-1.79L170.29-1.79Q173.15-1.79 177.79-3.57L177.79-3.57L177.79-3.57Q182.43-5.36 184.93-6.90L184.93-6.90L184.93-6.90Q191.59-11.07 199.21-19.16L199.21-19.16L199.21-19.16Q200.87-20.83 201.47-20.83L201.47-20.83L201.47-20.83Q201.82-20.83 201.82-20.11L201.82-20.11L201.82-20.11Q201.82-19.40 200.04-17.26L200.04-17.26L200.04-17.26Q193.85-9.64 186.12-5.00L186.12-5.00L186.12-5.00Q176.83 0.71 168.39 0.71L168.39 0.71L168.39 0.71Q164.70 0.71 162.38-0.89L162.38-0.89L162.38-0.89Q160.06-2.50 160.06-7.38L160.06-7.38L160.06-7.38Q160.06-12.26 164.34-20.77L164.34-20.77L164.34-20.77Q168.62-29.27 170.88-33.44L170.88-33.44L170.88-33.44Q169.22-33.08 168.03-33.08L168.03-33.08L168.03-33.08Q164.58-33.08 164.58-35.82L164.58-35.82L164.58-35.82Q164.58-37.84 167.43-38.68L167.43-38.68L167.43-38.68Q167.79-38.68 168.50-38.79L168.50-38.79L175.41-38.79L175.41-38.79Q177.55-41.53 180.28-45.10L180.28-45.10L180.28-45.10Q183.62-49.39 184.81-49.39L184.81-49.39L184.81-49.39Q186.00-49.39 187.78-48.43L187.78-48.43L187.78-48.43Q189.57-47.48 189.57-46.17L189.57-46.17L189.57-46.17Q189.57-44.86 183.86-38.44L183.86-38.44L183.86-38.44Q186.95-38.32 191.95-38.32ZM235.74-35.58L235.74-35.58L237.41-35.94L237.41-35.94Q238.71-35.94 239.90-34.87L239.90-34.87L239.90-34.87Q241.09-33.80 241.09-33.20L241.09-33.20L241.09-33.20Q241.09-32.61 233.72-21.72L233.72-21.72L233.72-21.72Q226.34-10.83 226.34-6.55L226.34-6.55L226.34-6.55Q226.34-6.19 226.46-5.83L226.46-5.83L226.46-5.83Q227.05-3.09 229.07-3.09L229.07-3.09L229.07-3.09Q235.26-3.09 251.69-23.56L251.69-23.56L251.69-23.56Q252.04-24.04 252.52-24.04L252.52-24.04L252.52-24.04Q252.99-24.04 252.99-23.15L252.99-23.15L252.99-23.15Q252.99-22.25 251.92-20.83L251.92-20.83L251.92-20.83Q236.69-0.48 228.72-0.48L228.72-0.48L228.72-0.48Q227.65-0.48 226.69-0.83L226.69-0.83L226.69-0.83Q221.46-2.86 221.46-8.69L221.46-8.69L221.46-8.69Q221.46-10.71 221.94-12.73L221.94-12.73L214.56-5.59L214.56-5.59Q207.54 0.60 204.38 0.60L204.38 0.60L204.38 0.60Q201.23 0.60 198.37-1.43L198.37-1.43L198.37-1.43Q195.16-3.81 195.16-7.74L195.16-7.74L195.16-7.74Q195.16-16.42 207.30-28.50L207.30-28.50L207.30-28.50Q219.44-40.58 229.55-40.58L229.55-40.58L229.55-40.58Q233.48-40.58 234.79-37.84L234.79-37.84L234.79-37.84Q235.14-36.89 235.38-36.24L235.38-36.24L235.38-36.24Q235.62-35.58 235.74-35.58ZM200.16-6.31L200.16-6.31L200.16-6.31Q200.16-2.02 203.13-2.02L203.13-2.02L203.13-2.02Q210.03-2.02 221.94-17.14L221.94-17.14L234.55-34.51L234.55-34.51Q233.60-36.18 231.45-36.18L231.45-36.18L231.45-36.18Q224.20-36.18 212.18-24.93L212.18-24.93L212.18-24.93Q200.16-13.69 200.16-6.31ZM272.39-29.63L272.39-29.63L272.39-29.63Q272.39-37.72 277.39-37.72L277.39-37.72L277.39-37.72Q277.87-37.72 278.46-37.60L278.46-37.60L278.46-37.60Q280.48-37.25 280.48-34.51L280.48-34.51L280.48-34.51Q280.48-31.77 279.53-27.61L279.53-27.61L279.53-27.61Q278.58-24.51 278.22-22.97L278.22-22.97L278.22-22.97Q278.58-20.94 280.19-17.79L280.19-17.79L280.19-17.79Q281.79-14.64 284.59-14.64L284.59-14.64L284.59-14.64Q287.38-14.64 290.84-18.45L290.84-18.45L290.84-18.45Q291.55-19.28 292.20-19.28L292.20-19.28L292.20-19.28Q292.86-19.28 292.92-18.50L292.92-18.50L292.92-18.50Q292.98-17.73 292.03-16.42L292.03-16.42L292.03-16.42Q288.34-12.02 284.29-12.02L284.29-12.02L284.29-12.02Q278.46-12.02 274.89-20.59L274.89-20.59L274.89-20.59Q271.20-12.14 264.42-6.01L264.42-6.01L264.42-6.01Q257.63 0.12 250.97 0.12L250.97 0.12L250.97 0.12Q244.66 0.12 244.66-9.40L244.66-9.40L244.66-9.40Q244.66-16.90 258.65-37.01L258.65-37.01L258.65-37.01Q272.63-57.12 280.01-57.12L280.01-57.12L280.01-57.12Q281.55-57.12 282.80-56.17L282.80-56.17L282.80-56.17Q284.05-55.22 284.05-53.91L284.05-53.91L284.05-53.91Q284.05-54.03 282.33-52.12L282.33-52.12L282.33-52.12Q280.60-50.22 272.93-41.89L272.93-41.89L272.93-41.89Q265.25-33.56 257.87-23.56L257.87-23.56L257.87-23.56Q250.50-13.57 250.50-8.09L250.50-8.09L250.50-8.09Q250.50-6.66 251.27-5.00L251.27-5.00L251.27-5.00Q252.04-3.33 253.83-3.33L253.83-3.33L253.83-3.33Q259.06-3.33 266.08-11.42L266.08-11.42L266.08-11.42Q271.92-18.56 273.22-23.44L273.22-23.44L273.22-23.44Q272.39-25.94 272.39-29.63ZM293.34-5.95L293.34-5.95L293.34-5.95Q293.34-2.38 297.26-2.38L297.26-2.38L297.26-2.38Q301.19-2.38 307.38-6.55L307.38-6.55L307.38-6.55Q313.56-10.71 319.40-17.85L319.40-17.85L319.40-17.85Q320.82-19.75 321.66-19.75L321.66-19.75L321.66-19.75Q322.49-19.75 322.49-19.04L322.49-19.04L322.49-19.04Q322.49-18.33 317.61-12.85L317.61-12.85L317.61-12.85Q305.71 0.24 297.74 0.24L297.74 0.24L297.74 0.24Q293.81 0.24 291.07-1.61L291.07-1.61L291.07-1.61Q288.34-3.45 288.34-7.32L288.34-7.32L288.34-7.32Q288.34-11.19 290.36-16.30L290.36-16.30L290.36-16.30Q293.81-24.40 301.43-36.65L301.43-36.65L301.43-36.65Q315.35-59.26 321.18-59.26L321.18-59.26L321.18-59.26Q322.37-59.26 323.62-58.37L323.62-58.37L323.62-58.37Q324.87-57.48 324.99-56.41L324.99-56.41L324.99-56.41Q322.25-52.72 314.46-42.25L314.46-42.25L314.46-42.25Q306.66-31.77 303.69-27.19L303.69-27.19L303.69-27.19Q300.71-22.61 299.23-20.35L299.23-20.35L299.23-20.35Q297.74-18.09 297.02-16.84L297.02-16.84L297.02-16.84Q296.31-15.59 295.36-13.57L295.36-13.57L295.36-13.57Q293.34-9.52 293.34-5.95ZM323.68 1.55L323.68 1.55L323.68 1.55Q322.37 1.55 321.30 1.19L321.30 1.19L321.30 1.19Q313.68-0.95 313.68-7.38L313.68-7.38L313.68-7.38Q313.68-15.71 324.16-26.66L324.16-26.66L324.16-26.66Q334.63-37.60 342.96-37.60L342.96-37.60L342.96-37.60Q345.69-37.60 347.42-36.12L347.42-36.12L347.42-36.12Q349.15-34.63 349.15-32.49L349.15-32.49L349.15-32.49Q349.15-25.82 339.09-19.75L339.09-19.75L339.09-19.75Q329.03-13.69 322.73-13.69L322.73-13.69L322.73-13.69Q321.78-13.69 321.06-13.92L321.06-13.92L321.06-13.92Q319.28-10.71 319.28-7.14L319.28-7.14L319.28-7.14Q319.28-0.95 325.17-0.95L325.17-0.95L325.17-0.95Q331.06-0.95 340.46-8.93L340.46-8.93L340.46-8.93Q347.72-14.76 352.83-21.30L352.83-21.30L352.83-21.30Q353.91-22.73 354.68-22.73L354.68-22.73L354.68-22.73Q355.45-22.73 355.45-22.02L355.45-22.02L355.45-22.02Q355.45-21.30 354.50-19.99L354.50-19.99L354.50-19.99Q348.07-11.54 339.03-5.00L339.03-5.00L339.03-5.00Q329.99 1.55 323.68 1.55ZM346.17-32.73L346.17-32.73L346.17-32.73Q346.17-34.15 343.14-34.15L343.14-34.15L343.14-34.15Q340.10-34.15 334.51-29.51L334.51-29.51L334.51-29.51Q327.01-23.32 322.85-16.54L322.85-16.54L322.85-16.54Q323.56-16.30 324.39-16.30L324.39-16.30L324.39-16.30Q328.92-16.30 336.47-21.12L336.47-21.12L336.47-21.12Q344.03-25.94 345.93-31.65L345.93-31.65L345.93-31.65Q346.17-32.25 346.17-32.73ZM360.69-30.94L360.69-30.94L372.23-30.82L372.23-30.82Q379.13-30.82 382.11-31.18L382.11-31.18L382.11-31.18Q382.23-31.06 382.23-30.82L382.23-30.82L382.23-30.82Q382.23-29.04 372.83-27.37L372.83-27.37L372.83-27.37Q367.71-26.66 363.25-25.88L363.25-25.88L363.25-25.88Q358.79-25.11 357.54-25.11L357.54-25.11L357.54-25.11Q356.29-25.11 353.37-25.64L353.37-25.64L353.37-25.64Q350.46-26.18 350.46-27.97L350.46-27.97L350.46-27.97Q350.46-29.16 351.47-29.99L351.47-29.99L351.47-29.99Q352.48-30.82 353.19-30.82L353.19-30.82L353.19-30.82Q353.91-30.82 354.62-30.94L354.62-30.94L357.71-30.94L357.71-30.94Q359.02-30.94 360.69-30.94ZM405.79-2.98L405.79-2.98L405.79-2.98Q395.32 5.12 390.44 5.12L390.44 5.12L390.44 5.12Q387.82 5.12 386.57 2.56L386.57 2.56L386.57 2.56Q385.32 0 385.32-2.98L385.32-2.98L385.32-2.98Q385.32-8.69 390.14-20.11L390.14-20.11L390.14-20.11Q394.96-31.54 399.36-31.54L399.36-31.54L399.36-31.54Q401.63-31.54 403.23-22.61L403.23-22.61L403.23-22.61Q404.84-13.69 406.50-9.64L406.50-9.64L406.50-9.64Q414.60-18.21 429.95-38.20L429.95-38.20L429.95-38.20Q449.23-63.55 455.53-65.93L455.53-65.93L455.53-65.93Q457.67-66.76 459.94-66.76L459.94-66.76L459.94-66.76Q462.20-66.76 463.68-65.81L463.68-65.81L463.68-65.81Q465.17-64.86 465.17-63.43L465.17-63.43L465.17-63.43Q465.17-61.40 461.72-61.05L461.72-61.05L461.72-61.05Q457.56-58.79 448.87-50.10L448.87-50.10L448.87-50.10Q440.18-41.65 434.95-34.27L434.95-34.27L434.95-34.27Q422.21-16.54 408.77-5.36L408.77-5.36L408.77-5.36Q415.43 4.52 429.71 4.52L429.71 4.52L429.71 4.52Q431.26 4.52 434.35 4.28L434.35 4.28L434.35 4.28Q467.43 1.19 481.24-24.40L481.24-24.40L481.24-24.40Q486.83-34.63 486.83-44.63L486.83-44.63L486.83-44.63Q486.83-54.62 479.57-62.59L479.57-62.59L479.57-62.59Q473.74-69.14 466.90-70.69L466.90-70.69L466.90-70.69Q460.05-72.23 452.91-72.23L452.91-72.23L452.91-72.23Q434.59-72.23 419.12-63.78L419.12-63.78L419.12-63.78Q402.82-54.86 402.82-43.79L402.82-43.79L402.82-43.79Q402.82-40.82 404.42-38.91L404.42-38.91L404.42-38.91Q406.03-37.01 406.62-36.77L406.62-36.77L405.91-36.77L405.91-36.77Q402.82-37.37 400.44-39.87L400.44-39.87L400.44-39.87Q397.82-42.96 397.82-46.41L397.82-46.41L397.82-46.41Q397.82-58.31 412.75-66.88L412.75-66.88L412.75-66.88Q427.69-75.45 447.80-75.45L447.80-75.45L447.80-75.45Q457.08-75.45 466.84-73.30L466.84-73.30L466.84-73.30Q476.60-71.16 484.57-63.07L484.57-63.07L484.57-63.07Q493.73-53.55 493.73-41.53L493.73-41.53L493.73-41.53Q493.73-32.61 488.50-23.09L488.50-23.09L488.50-23.09Q479.45-6.66 461.48 0.95L461.48 0.95L461.48 0.95Q447.08 7.02 430.42 7.02L430.42 7.02L430.42 7.02Q413.76 7.02 405.79-2.98ZM389.61-3.45L389.61-3.45L389.61-3.45Q389.61 0.24 391.03 2.98L391.03 2.98L391.03 2.98Q396.15 0.71 403.41-6.43L403.41-6.43L403.41-6.43Q399.96-12.14 399.07-15.41L399.07-15.41L399.07-15.41Q398.17-18.68 397.82-24.04L397.82-24.04L397.82-24.04Q389.61-12.26 389.61-3.45ZM406.62-36.77L406.62-36.77L406.62-36.77Q406.74-36.77 406.86-36.89L406.86-36.89L406.86-36.89Q406.86-36.65 406.80-36.65L406.80-36.65L406.80-36.65Q406.74-36.65 406.62-36.77ZM518.96-48.55L518.96-48.55Q520.74-48.55 522.35-47.42L522.35-47.42L522.35-47.42Q523.96-46.29 523.96-44.74L523.96-44.74L523.96-44.74Q523.96-43.20 522.47-42.07L522.47-42.07L522.47-42.07Q520.98-40.94 519.20-40.94L519.20-40.94L519.20-40.94Q517.41-40.94 515.92-42.25L515.92-42.25L515.92-42.25Q514.44-43.55 514.44-45.22L514.44-45.22L514.44-45.22Q514.44-48.55 518.96-48.55L518.96-48.55ZM497.42 1.31L497.42 1.31L497.42 1.31Q491.35 1.31 491.35-6.55L491.35-6.55L491.35-6.55Q491.35-12.97 498.37-24.34L498.37-24.34L498.37-24.34Q505.39-35.70 509.68-35.82L509.68-35.82L509.68-35.82Q510.87-35.82 512.35-34.87L512.35-34.87L512.35-34.87Q513.84-33.91 513.84-32.96L513.84-32.96L513.84-32.96Q513.25-32.13 512.41-31.12L512.41-31.12L512.41-31.12Q511.58-30.11 510.63-28.92L510.63-28.92L510.63-28.92Q509.68-27.73 508.01-25.53L508.01-25.53L508.01-25.53Q506.35-23.32 504.80-21.30L504.80-21.30L504.80-21.30Q495.87-9.76 495.87-5.41L495.87-5.41L495.87-5.41Q495.87-1.07 498.85-1.07L498.85-1.07L498.85-1.07Q501.35-1.07 505.63-3.81L505.63-3.81L505.63-3.81Q515.63-10.00 521.46-17.37L521.46-17.37L521.46-17.37Q523.60-20.11 524.37-20.11L524.37-20.11L524.37-20.11Q525.15-20.11 525.15-19.16L525.15-19.16L525.15-19.16Q525.15-18.21 522.41-15.35L522.41-15.35L522.41-15.35Q519.67-12.50 518.07-10.83L518.07-10.83L518.07-10.83Q516.46-9.16 515.87-8.63L515.87-8.63L515.87-8.63Q515.27-8.09 513.66-6.60L513.66-6.60L513.66-6.60Q512.06-5.12 511.22-4.52L511.22-4.52L511.22-4.52Q510.39-3.93 508.84-2.74L508.84-2.74L508.84-2.74Q507.30-1.55 506.11-1.01L506.11-1.01L506.11-1.01Q504.92-0.48 503.37 0.24L503.37 0.24L503.37 0.24Q500.87 1.31 497.42 1.31ZM568.58-58.19L568.58-58.19L568.58-58.19Q568.58-54.50 566.44-54.50L566.44-54.50L566.44-54.50Q565.85-54.50 565.25-55.45L565.25-55.45L565.25-55.45Q564.18-57.36 561.68-57.36L561.68-57.36L561.68-57.36Q556.21-57.36 551.45-49.50L551.45-49.50L551.45-49.50Q550.49-47.96 545.50-38.32L545.50-38.32L546.92-38.32L546.92-38.32Q559.89-38.32 564.18-38.68L564.18-38.68L564.18-38.68Q564.65-38.56 564.65-38.20L564.65-38.20L564.65-38.20Q564.65-37.25 556.21-35.58L556.21-35.58L556.21-35.58Q548.23-34.27 543.12-33.32L543.12-33.32L543.12-33.32Q539.43-25.70 534.19-15.23L534.19-15.23L534.19-15.23Q523.48 4.76 520.03 9.64L520.03 9.64L520.03 9.64Q509.68 24.40 499.80 24.40L499.80 24.40L499.80 24.40Q496.35 24.40 493.79 21.48L493.79 21.48L493.79 21.48Q491.23 18.56 491.11 14.99L491.11 14.99L491.11 14.99Q491.47 13.57 492.18 13.57L492.18 13.57L492.18 13.57Q492.54 13.57 492.66 14.40L492.66 14.40L492.66 14.40Q493.37 17.49 495.04 19.16L495.04 19.16L495.04 19.16Q496.71 20.83 498.49 20.83L498.49 20.83L498.49 20.83Q508.61 20.83 516.94 8.33L516.94 8.33L516.94 8.33Q521.70 1.19 529.91-17.37L529.91-17.37L536.33-32.84L536.33-32.84Q524.43-32.96 524.43-35.70L524.43-35.70L524.43-35.70Q524.43-36.89 525.56-37.72L525.56-37.72L525.56-37.72Q526.69-38.56 527.53-38.56L527.53-38.56L538.71-38.32L538.71-38.32Q550.38-64.26 560.13-64.26L560.13-64.26L560.13-64.26Q563.82-64.26 567.63-60.69L567.63-60.69L567.63-60.69Q568.58-59.74 568.58-58.19ZM597.38-58.19L597.38-58.19L597.38-58.19Q597.38-54.50 595.24-54.50L595.24-54.50L595.24-54.50Q594.64-54.50 594.05-55.45L594.05-55.45L594.05-55.45Q592.98-57.36 590.48-57.36L590.48-57.36L590.48-57.36Q585.00-57.36 580.24-49.50L580.24-49.50L580.24-49.50Q579.29-47.96 574.29-38.32L574.29-38.32L575.72-38.32L575.72-38.32Q588.69-38.32 592.98-38.68L592.98-38.68L592.98-38.68Q593.45-38.56 593.45-38.20L593.45-38.20L593.45-38.20Q593.45-37.25 585.00-35.58L585.00-35.58L585.00-35.58Q577.03-34.27 571.91-33.32L571.91-33.32L571.91-33.32Q568.23-25.70 562.99-15.23L562.99-15.23L562.99-15.23Q552.28 4.76 548.83 9.64L548.83 9.64L548.83 9.64Q538.48 24.40 528.60 24.40L528.60 24.40L528.60 24.40Q525.15 24.40 522.59 21.48L522.59 21.48L522.59 21.48Q520.03 18.56 519.91 14.99L519.91 14.99L519.91 14.99Q520.27 13.57 520.98 13.57L520.98 13.57L520.98 13.57Q521.34 13.57 521.46 14.40L521.46 14.40L521.46 14.40Q522.17 17.49 523.84 19.16L523.84 19.16L523.84 19.16Q525.50 20.83 527.29 20.83L527.29 20.83L527.29 20.83Q537.40 20.83 545.73 8.33L545.73 8.33L545.73 8.33Q550.49 1.19 558.70-17.37L558.70-17.37L565.13-32.84L565.13-32.84Q553.23-32.96 553.23-35.70L553.23-35.70L553.23-35.70Q553.23-36.89 554.36-37.72L554.36-37.72L554.36-37.72Q555.49-38.56 556.32-38.56L556.32-38.56L567.51-38.32L567.51-38.32Q579.17-64.26 588.93-64.26L588.93-64.26L588.93-64.26Q592.62-64.26 596.43-60.69L596.43-60.69L596.43-60.69Q597.38-59.74 597.38-58.19ZM610.95 0.71L610.95 0.71L610.95 0.71Q610.35 0.83 608.39 0.83L608.39 0.83L608.39 0.83Q606.42 0.83 604.46-0.71L604.46-0.71L604.46-0.71Q602.50-2.26 602.50-4.70L602.50-4.70L602.50-4.70Q602.50-7.14 603.39-10.12L603.39-10.12L603.39-10.12Q604.28-13.09 604.64-14.64L604.64-14.64L604.64-14.64Q590.95 1.31 583.22 1.31L583.22 1.31L583.22 1.31Q578.34 1.31 577.86-4.76L577.86-4.76L577.86-4.76Q577.86-5.24 577.86-5.59L577.86-5.59L577.86-5.59Q577.86-10.71 584.05-19.40L584.05-19.40L584.05-19.40Q580.60-16.30 577.03-12.26L577.03-12.26L577.03-12.26Q576.55-11.78 575.84-11.78L575.84-11.78L575.84-11.78Q575.37-11.78 575.37-12.38L575.37-12.38L575.37-12.38Q575.37-12.97 576.44-14.40L576.44-14.40L592.86-33.68L592.86-33.68Q595.95-37.25 599.16-37.25L599.16-37.25L599.16-37.25Q602.38-37.25 602.38-35.11L602.38-35.11L602.38-35.11Q602.38-34.27 601.66-33.56L601.66-33.56L601.66-33.56Q596.90-29.16 589.70-18.92L589.70-18.92L589.70-18.92Q582.50-8.69 582.50-3.81L582.50-3.81L582.50-3.81Q582.50-1.67 583.93-1.67L583.93-1.67L583.93-1.67Q588.93-1.67 598.45-11.54L598.45-11.54L598.45-11.54Q601.78-14.88 610.83-26.24L610.83-26.24L610.83-26.24Q619.87-37.60 622.73-37.60L622.73-37.60L622.73-37.60Q627.01-37.60 627.01-34.27L627.01-34.27L627.01-34.27Q627.01-33.08 622.01-27.37L622.01-27.37L622.01-27.37Q615.23-19.16 611.66-13.98L611.66-13.98L611.66-13.98Q608.09-8.81 608.09-5.59L608.09-5.59L608.09-5.59Q608.09-2.38 609.88-2.38L609.88-2.38L609.88-2.38Q610.71-2.38 611.78-2.86L611.78-2.86L611.78-2.86Q619.99-6.43 631.41-19.52L631.41-19.52L631.41-19.52Q632.13-20.35 632.84-20.35L632.84-20.35L632.84-20.35Q633.56-20.35 633.56-19.58L633.56-19.58L633.56-19.58Q633.56-18.80 632.72-17.85L632.72-17.85L632.72-17.85Q627.61-11.90 620.70-5.89L620.70-5.89L620.70-5.89Q613.80 0.12 610.95 0.71ZM653.90-4.28L650.10-1.79L650.10-1.79Q646.65 0.24 641.59 0.24L641.59 0.24L641.59 0.24Q636.53 0.24 633.85-3.09L633.85-3.09L633.85-3.09Q631.18-6.43 629.27-13.69L629.27-13.69L629.27-13.69Q627.13-11.54 626.30-11.54L626.30-11.54L626.30-11.54Q625.70-11.54 625.70-12.38L625.70-12.38L625.70-12.38Q625.70-13.21 626.30-13.80L626.30-13.80L626.30-13.80Q630.22-18.68 639.63-27.85L639.63-27.85L654.62-41.89L654.62-41.89Q661.05-47.96 662.24-47.96L662.24-47.96L662.24-47.96Q666.04-47.96 666.04-45.10L666.04-45.10L666.04-45.10Q666.04-43.67 664.91-42.30L664.91-42.30L664.91-42.30Q663.78-40.94 663.25-40.16L663.25-40.16L663.25-40.16Q662.71-39.39 662.12-38.68L662.12-38.68L662.12-38.68Q659.97-34.99 657.77-23.44L657.77-23.44L657.77-23.44Q655.57-11.90 654.38-7.38L654.38-7.38L654.38-7.38Q664.26-7.50 674.73-20.23L674.73-20.23L674.73-20.23Q675.92-21.42 676.51-21.42L676.51-21.42L676.51-21.42Q677.11-21.42 677.11-20.65L677.11-20.65L677.11-20.65Q677.11-19.87 676.04-18.56L676.04-18.56L676.04-18.56Q669.14-10.47 663.19-7.26L663.19-7.26L663.19-7.26Q659.62-5.47 653.90-4.28L653.90-4.28ZM634.03-14.99L634.03-14.99L634.03-14.99Q634.03-10.95 636.71-8.39L636.71-8.39L636.71-8.39Q639.39-5.83 642.72-5.83L642.72-5.83L642.72-5.83Q646.05-5.83 647.84-7.14L647.84-7.14L647.84-7.14Q650.22-8.45 652.54-18.09L652.54-18.09L652.54-18.09Q654.86-27.73 655.33-35.11L655.33-35.11L655.81-39.15L655.81-39.15Q649.26-34.27 641.83-26.54L641.83-26.54L641.83-26.54Q634.39-18.80 634.15-16.30L634.15-16.30L634.15-16.30Q634.03-15.59 634.03-14.99ZM696.75-48.55L696.75-48.55Q698.53-48.55 700.14-47.42L700.14-47.42L700.14-47.42Q701.74-46.29 701.74-44.74L701.74-44.74L701.74-44.74Q701.74-43.20 700.26-42.07L700.26-42.07L700.26-42.07Q698.77-40.94 696.98-40.94L696.98-40.94L696.98-40.94Q695.20-40.94 693.71-42.25L693.71-42.25L693.71-42.25Q692.22-43.55 692.22-45.22L692.22-45.22L692.22-45.22Q692.22-48.55 696.75-48.55L696.75-48.55ZM675.21 1.31L675.21 1.31L675.21 1.31Q669.14 1.31 669.14-6.55L669.14-6.55L669.14-6.55Q669.14-12.97 676.16-24.34L676.16-24.34L676.16-24.34Q683.18-35.70 687.46-35.82L687.46-35.82L687.46-35.82Q688.65-35.82 690.14-34.87L690.14-34.87L690.14-34.87Q691.63-33.91 691.63-32.96L691.63-32.96L691.63-32.96Q691.03-32.13 690.20-31.12L690.20-31.12L690.20-31.12Q689.37-30.11 688.42-28.92L688.42-28.92L688.42-28.92Q687.46-27.73 685.80-25.53L685.80-25.53L685.80-25.53Q684.13-23.32 682.58-21.30L682.58-21.30L682.58-21.30Q673.66-9.76 673.66-5.41L673.66-5.41L673.66-5.41Q673.66-1.07 676.63-1.07L676.63-1.07L676.63-1.07Q679.13-1.07 683.42-3.81L683.42-3.81L683.42-3.81Q693.41-10.00 699.24-17.37L699.24-17.37L699.24-17.37Q701.39-20.11 702.16-20.11L702.16-20.11L702.16-20.11Q702.93-20.11 702.93-19.16L702.93-19.16L702.93-19.16Q702.93-18.21 700.20-15.35L700.20-15.35L700.20-15.35Q697.46-12.50 695.85-10.83L695.85-10.83L695.85-10.83Q694.25-9.16 693.65-8.63L693.65-8.63L693.65-8.63Q693.06-8.09 691.45-6.60L691.45-6.60L691.45-6.60Q689.84-5.12 689.01-4.52L689.01-4.52L689.01-4.52Q688.18-3.93 686.63-2.74L686.63-2.74L686.63-2.74Q685.08-1.55 683.89-1.01L683.89-1.01L683.89-1.01Q682.70-0.48 681.16 0.24L681.16 0.24L681.16 0.24Q678.66 1.31 675.21 1.31ZM728.88-25.23L728.88-25.23L728.88-25.23Q728.88-21.06 720.90-11.31L720.90-11.31L720.90-11.31Q711.50 0.24 704.84 0.24L704.84 0.24L702.93 0.24L702.93 0.24Q699.84 0.24 698.05-2.98L698.05-2.98L698.05-2.98Q696.63-5.24 696.63-7.97L696.63-7.97L696.63-7.97Q696.63-15.11 707.04-28.02L707.04-28.02L707.04-28.02Q717.45-40.94 723.88-40.94L723.88-40.94L723.88-40.94Q729.95-40.94 729.95-34.51L729.95-34.51L729.95-34.51Q729.95-32.84 729.35-30.23L729.35-30.23L729.35-30.23Q729.47-29.87 731.61-29.87L731.61-29.87L731.61-29.87Q733.75-29.87 738.16-32.13L738.16-32.13L738.16-32.13Q738.04-30.11 728.76-26.30L728.76-26.30L728.76-26.30Q728.88-25.82 728.88-25.23ZM721.14-31.42L721.14-31.42L721.14-31.42Q717.09-31.42 709.66-21.90L709.66-21.90L709.66-21.90Q702.22-12.38 702.22-7.85L702.22-7.85L702.22-7.85Q702.22-3.33 705.08-3.33L705.08-3.33L705.08-3.33Q710.19-3.33 718.05-12.61L718.05-12.61L718.05-12.61Q725.90-21.90 725.90-25.94L725.90-25.94L725.90-25.94Q724.00-27.01 721.14-31.42ZM750.41-37.60L750.41-37.60L750.41-37.60Q753.63-37.60 753.63-35.11L753.63-35.11L753.63-35.11Q753.63-34.39 753.27-33.68L753.27-33.68L753.27-33.68Q742.56-18.80 740.42-11.19L740.42-11.19L740.42-11.19Q768.14-38.91 774.10-38.91L774.10-38.91L774.10-38.91Q774.69-39.03 775.17-39.03L775.17-39.03L775.17-39.03Q778.50-39.03 778.50-36.06L778.50-36.06L778.50-36.06Q778.50-35.46 778.26-34.87L778.26-34.87L778.26-34.87Q778.02-34.27 773.50-28.44L773.50-28.44L773.50-28.44Q768.26-22.25 764.63-16.54L764.63-16.54L764.63-16.54Q761.00-10.83 761.00-7.02L761.00-7.02L761.00-7.02Q761.00-3.21 762.67-3.21L762.67-3.21L762.67-3.21Q767.91-3.21 780.88-17.61L780.88-17.61L780.88-17.61Q781.12-17.85 781.71-18.68L781.71-18.68L781.71-18.68Q783.50-20.83 783.85-20.83L783.85-20.83L783.85-20.83Q784.21-20.83 784.21-19.64L784.21-19.64L784.21-19.64Q784.21-18.45 782.54-16.54L782.54-16.54L782.54-16.54Q767.79 0.24 761.60 0.24L761.60 0.24L761.60 0.24Q755.77 0.24 755.77-6.19L755.77-6.19L755.77-6.19Q755.77-12.61 760.53-20.94L760.53-20.94L768.14-33.32L768.14-33.32Q760.05-27.37 753.75-20.29L753.75-20.29L753.75-20.29Q747.44-13.21 742.26-6.55L742.26-6.55L742.26-6.55Q737.09 0.12 736.25 0.12L736.25 0.12L736.25 0.12Q734.47 0.12 733.46-1.37L733.46-1.37L733.46-1.37Q732.45-2.86 732.45-5.06L732.45-5.06L732.45-5.06Q732.45-7.26 733.99-10.95L733.99-10.95L733.99-10.95Q735.54-14.64 737.92-19.87L737.92-19.87L730.78-12.38L730.78-12.38Q728.16-9.76 727.51-9.76L727.51-9.76L727.51-9.76Q726.85-9.76 726.85-10.53L726.85-10.53L726.85-10.53Q726.85-11.31 727.80-12.26L727.80-12.26L727.80-12.26Q732.21-16.66 735.42-20.71L735.42-20.71L735.42-20.71Q738.51-24.75 748.15-36.18L748.15-36.18L748.15-36.18Q749.22-37.60 750.41-37.60Z" fill="url(#editing-shiny-gradient2)"></path></g></g><style>text {
  font-size: 64px;
  font-family: Arial Black;
  dominant-baseline: central;
  text-anchor: middle;
}</style></svg>