<?xml version="1.0" standalone="no"?>
<!DOCTYPE svg PUBLIC "-//W3C//DTD SVG 20010904//EN"
 "http://www.w3.org/TR/2001/REC-SVG-20010904/DTD/svg10.dtd">
<svg version="1.0" xmlns="http://www.w3.org/2000/svg"
 width="300.000000pt" height="130.000000pt" viewBox="0 0 300.000000 130.000000"
 preserveAspectRatio="xMidYMid meet">
<metadata>
Created by potrace 1.10, written by Peter Selinger 2001-2011
</metadata>
<g transform="translate(0.000000,130.000000) scale(0.050000,-0.050000)"
fill="#000000" stroke="none">
<path d="M555 2205 l-555 -6 0 -149 0 -150 201 0 200 0 -8 -655 c-4 -360 -14
-689 -22 -730 l-15 -75 1292 0 1292 0 0 -120 c0 -145 -29 -146 276 9 374 190
372 156 24 333 l-300 152 0 -127 0 -127 -650 0 -650 0 0 423 0 423 160 -14
160 -13 0 161 0 160 -470 0 -470 0 0 -160 0 -161 160 13 161 14 -6 -418 -5
-418 -305 -6 -305 -5 0 325 c0 180 -6 481 -13 671 l-13 345 273 0 273 0 0 160
0 160 -65 -5 c-36 -2 -315 -7 -620 -10z"/>
<path d="M3675 2086 l-55 -58 1 -609 0 -609 55 -40 c37 -27 95 -42 189 -47
l135 -8 0 -67 c0 -105 20 -108 660 -108 639 0 660 3 660 108 l0 67 132 10
c109 9 143 20 185 63 l53 53 0 564 c0 311 -7 590 -16 621 -27 98 -57 101
-1034 109 l-910 8 -55 -57z m1825 -646 l0 -520 -850 0 -850 0 0 520 0 520 850
0 850 0 0 -520z"/>
<path d="M4723 1450 l-158 -210 -71 78 c-39 43 -86 102 -105 130 -40 61 -99
67 -128 13 -12 -21 -75 -106 -141 -189 -66 -83 -120 -156 -120 -162 0 -5 293
-10 650 -10 358 0 650 6 650 14 0 14 -401 546 -412 546 -4 0 -78 -95 -165
-210z"/>
</g>
</svg>
