<?xml version="1.0" standalone="no"?>
<!DOCTYPE svg PUBLIC "-//W3C//DTD SVG 20010904//EN"
 "http://www.w3.org/TR/2001/REC-SVG-20010904/DTD/svg10.dtd">
<svg version="1.0" xmlns="http://www.w3.org/2000/svg"
 width="512.000000pt" height="512.000000pt" viewBox="0 0 512.000000 512.000000"
 preserveAspectRatio="xMidYMid meet">
<metadata>
Created by potrace 1.10, written by Peter Selinger 2001-2011
</metadata>
<g transform="translate(0.000000,512.000000) scale(0.100000,-0.100000)"
fill="#000000" stroke="none">
<path d="M2835 3211 c-47 -22 -89 -64 -104 -104 -7 -19 -11 -221 -11 -602 0
-381 4 -583 11 -602 15 -40 57 -82 104 -104 37 -17 76 -19 603 -19 614 0 603
-1 665 58 59 56 57 30 57 667 0 637 2 611 -57 667 -62 59 -51 58 -665 58 -527
0 -566 -2 -603 -19z m1133 -708 l2 -533 -530 0 -530 0 0 535 0 535 528 -2 527
-3 3 -532z"/>
<path d="M3379 2911 c-20 -20 -29 -39 -29 -61 0 -27 -3 -31 -17 -25 -10 4 -35
9 -55 12 -32 5 -41 1 -68 -25 -23 -23 -30 -39 -30 -69 0 -42 23 -83 46 -83 8
0 14 -4 14 -10 0 -5 -4 -10 -10 -10 -25 0 -50 -41 -50 -81 0 -32 6 -47 30 -71
31 -30 53 -33 119 -17 9 3 17 -8 22 -31 23 -105 168 -105 185 0 6 37 7 38 35
28 47 -16 97 -2 119 35 29 47 25 83 -11 120 -18 18 -27 33 -20 35 54 18 66 99
22 153 -20 24 -74 32 -118 16 -19 -7 -23 -5 -23 12 0 34 -22 72 -51 87 -43 22
-77 17 -110 -15z m134 -202 c45 -48 31 -115 -30 -144 -63 -30 -133 12 -133 80
0 48 15 74 53 91 42 18 76 10 110 -27z"/>
<path d="M3063 2439 c-46 -47 34 -205 148 -291 152 -114 358 -100 504 34 82
75 146 216 114 254 -29 35 -161 -8 -245 -80 -56 -47 -94 -107 -120 -184 l-22
-65 -12 44 c-30 112 -108 208 -211 260 -69 35 -138 47 -156 28z"/>
<path d="M42 3018 l3 -173 288 -3 287 -2 0 -745 0 -745 170 0 170 0 0 745 0
745 290 0 290 0 0 175 0 175 -750 0 -750 0 2 -172z"/>
<path d="M2370 2734 c-42 -18 -86 -59 -107 -98 -25 -48 -27 -32 82 -918 20
-166 40 -288 49 -306 21 -41 69 -79 118 -94 35 -10 78 -8 302 20 144 17 416
51 606 74 337 41 346 42 373 69 38 38 37 90 -2 130 -21 21 -39 29 -63 29 -18
0 -285 -31 -593 -69 -308 -38 -561 -68 -563 -66 -4 4 -133 1048 -130 1049 93
45 113 112 53 172 -28 28 -72 31 -125 8z"/>
<path d="M1047 2383 c-14 -13 -6 -42 13 -48 18 -6 20 -15 20 -115 0 -101 -1
-109 -21 -115 -14 -5 -19 -14 -17 -28 3 -21 8 -22 156 -25 l152 -3 0 49 c0 60
-20 93 -44 73 -9 -7 -16 -24 -16 -37 0 -23 -3 -24 -75 -24 l-75 0 0 40 c0 36
3 40 24 40 16 0 27 -7 31 -21 5 -14 14 -19 28 -17 20 3 22 9 22 68 0 59 -2 65
-22 68 -14 2 -23 -3 -28 -17 -4 -14 -15 -21 -31 -21 -21 0 -24 4 -24 40 l0 41
68 -3 c65 -3 67 -4 70 -30 3 -22 9 -28 28 -28 23 0 24 3 24 60 l0 60 -138 0
c-76 0 -142 -3 -145 -7z"/>
<path d="M1397 2384 c-13 -14 -7 -43 11 -49 9 -3 36 -29 59 -58 l41 -51 -21
-31 c-12 -16 -41 -49 -65 -73 -60 -58 -53 -74 30 -70 57 3 63 5 66 26 2 12 -1
22 -7 22 -19 0 -12 26 12 48 30 28 31 28 57 -8 20 -28 20 -31 5 -46 -26 -26
-1 -44 60 -44 83 0 84 15 9 94 -35 38 -64 74 -64 81 0 7 27 40 61 74 75 77 73
93 -8 89 l-58 -3 3 -36 c2 -26 -4 -41 -21 -57 l-24 -23 -19 28 c-10 15 -19 42
-19 58 0 29 -2 30 -50 33 -28 2 -54 0 -58 -4z"/>
<path d="M1740 2326 c0 -44 5 -67 15 -76 26 -21 45 -4 45 40 0 38 2 40 30 40
l30 0 0 -110 c0 -107 -1 -110 -22 -110 -33 0 -51 -14 -46 -36 3 -17 15 -19
101 -22 80 -2 98 0 103 13 9 23 -14 45 -47 45 l-29 0 0 111 0 110 33 -3 c29
-3 32 -6 37 -43 4 -32 9 -40 25 -40 18 0 20 8 23 73 l3 72 -151 0 -150 0 0
-64z"/>
</g>
</svg>
