<?xml version="1.0" standalone="no"?>
<!DOCTYPE svg PUBLIC "-//W3C//DTD SVG 20010904//EN"
 "http://www.w3.org/TR/2001/REC-SVG-20010904/DTD/svg10.dtd">
<svg version="1.0" xmlns="http://www.w3.org/2000/svg"
 width="300.000000pt" height="188.000000pt" viewBox="0 0 300.000000 188.000000"
 preserveAspectRatio="xMidYMid meet">
<metadata>
Created by potrace 1.10, written by Peter Selinger 2001-2011
</metadata>
<g transform="translate(0.000000,188.000000) scale(0.050000,-0.050000)"
fill="#000000" stroke="none">
<path d="M3057 2547 c-48 -59 -38 -762 12 -799 61 -45 756 -41 794 5 21 25 27
118 27 397 0 279 -6 372 -27 397 -42 50 -764 50 -806 0z m723 -398 l0 -330
-320 3 -320 2 0 328 0 328 320 0 320 0 0 -331z"/>
<path d="M3414 2380 c-15 -22 -33 -34 -40 -27 -28 28 -69 -38 -69 -113 0 -78
30 -127 71 -116 12 3 35 -12 53 -34 31 -40 31 -40 69 4 20 24 42 39 49 32 29
-28 67 41 68 124 1 84 -10 101 -63 92 -9 -2 -30 15 -46 37 -36 51 -56 52 -92
1z m86 -110 c32 -39 11 -90 -37 -90 -48 0 -72 55 -41 93 29 35 47 34 78 -3z"/>
<path d="M3230 2101 c-20 -33 47 -139 109 -171 151 -78 361 22 361 171 0 65
-186 -44 -211 -124 -14 -43 -49 -50 -49 -9 0 67 -180 181 -210 133z"/>
<path d="M1700 2448 l0 -112 180 7 180 7 0 -460 0 -460 103 1 104 2 -5 453 -5
454 181 0 182 0 0 110 0 110 -460 0 -460 0 0 -112z"/>
<path d="M2780 2260 c-48 -48 -48 -5 1 -401 48 -396 48 -395 115 -412 79 -20
744 65 779 99 79 79 -9 89 -383 45 -194 -24 -352 -42 -353 -42 -28 43 -72 626
-48 652 71 79 -35 135 -111 59z"/>
</g>
</svg>
